<svg width="375" height="544" viewBox="0 0 375 544" fill="none" xmlns="http://www.w3.org/2000/svg">
<rect width="374.035" height="543.12" rx="12" fill="url(#paint0_linear_10_600)"/>
<path d="M63.4499 400.595C63.4499 401.514 63.2333 402.38 62.7999 403.195C62.3666 404.01 61.6733 404.677 60.7199 405.197C59.7666 405.7 58.5446 405.951 57.0539 405.951H53.7779V413.283H50.8139V395.213H57.0539C58.4406 395.213 59.6106 395.456 60.5639 395.941C61.5346 396.409 62.2539 397.05 62.7219 397.865C63.2073 398.68 63.4499 399.59 63.4499 400.595ZM57.0539 403.533C58.1806 403.533 59.0213 403.282 59.5759 402.779C60.1306 402.259 60.4079 401.531 60.4079 400.595C60.4079 398.619 59.2899 397.631 57.0539 397.631H53.7779V403.533H57.0539ZM69.2408 401.037C69.6741 400.309 70.2461 399.746 70.9568 399.347C71.6848 398.931 72.5428 398.723 73.5308 398.723V401.791H72.7768C71.6155 401.791 70.7315 402.086 70.1248 402.675C69.5355 403.264 69.2408 404.287 69.2408 405.743V413.283H66.2768V398.957H69.2408V401.037ZM82.4693 413.517C81.1173 413.517 79.8953 413.214 78.8033 412.607C77.7113 411.983 76.8533 411.116 76.2293 410.007C75.6053 408.88 75.2933 407.58 75.2933 406.107C75.2933 404.651 75.614 403.36 76.2553 402.233C76.8967 401.106 77.772 400.24 78.8813 399.633C79.9907 399.026 81.23 398.723 82.5993 398.723C83.9687 398.723 85.208 399.026 86.3173 399.633C87.4267 400.24 88.302 401.106 88.9433 402.233C89.5847 403.36 89.9053 404.651 89.9053 406.107C89.9053 407.563 89.576 408.854 88.9173 409.981C88.2587 411.108 87.3573 411.983 86.2133 412.607C85.0867 413.214 83.8387 413.517 82.4693 413.517ZM82.4693 410.943C83.232 410.943 83.9427 410.761 84.6013 410.397C85.2773 410.033 85.8233 409.487 86.2393 408.759C86.6553 408.031 86.8633 407.147 86.8633 406.107C86.8633 405.067 86.664 404.192 86.2653 403.481C85.8667 402.753 85.338 402.207 84.6793 401.843C84.0207 401.479 83.31 401.297 82.5473 401.297C81.7847 401.297 81.074 401.479 80.4153 401.843C79.774 402.207 79.2627 402.753 78.8813 403.481C78.5 404.192 78.3093 405.067 78.3093 406.107C78.3093 407.65 78.6993 408.846 79.4793 409.695C80.2767 410.527 81.2733 410.943 82.4693 410.943ZM94.3434 397.059C93.8061 397.059 93.3554 396.877 92.9914 396.513C92.6274 396.149 92.4454 395.698 92.4454 395.161C92.4454 394.624 92.6274 394.173 92.9914 393.809C93.3554 393.445 93.8061 393.263 94.3434 393.263C94.8634 393.263 95.3054 393.445 95.6694 393.809C96.0334 394.173 96.2154 394.624 96.2154 395.161C96.2154 395.698 96.0334 396.149 95.6694 396.513C95.3054 396.877 94.8634 397.059 94.3434 397.059ZM95.7994 416.091C95.7994 417.495 95.4441 418.509 94.7334 419.133C94.0401 419.774 93.0261 420.095 91.6914 420.095H90.1574V417.599H91.1714C91.7781 417.599 92.2027 417.478 92.4454 417.235C92.7054 417.01 92.8354 416.628 92.8354 416.091V398.957H95.7994V416.091ZM112.821 405.769C112.821 406.306 112.786 406.792 112.717 407.225H101.771C101.858 408.369 102.282 409.288 103.045 409.981C103.808 410.674 104.744 411.021 105.853 411.021C107.448 411.021 108.574 410.354 109.233 409.019H112.431C111.998 410.336 111.209 411.42 110.065 412.269C108.938 413.101 107.534 413.517 105.853 413.517C104.484 413.517 103.253 413.214 102.161 412.607C101.086 411.983 100.237 411.116 99.6129 410.007C99.0062 408.88 98.7029 407.58 98.7029 406.107C98.7029 404.634 98.9975 403.342 99.5869 402.233C100.194 401.106 101.034 400.24 102.109 399.633C103.201 399.026 104.449 398.723 105.853 398.723C107.205 398.723 108.41 399.018 109.467 399.607C110.524 400.196 111.348 401.028 111.937 402.103C112.526 403.16 112.821 404.382 112.821 405.769ZM109.727 404.833C109.71 403.741 109.32 402.866 108.557 402.207C107.794 401.548 106.85 401.219 105.723 401.219C104.7 401.219 103.825 401.548 103.097 402.207C102.369 402.848 101.936 403.724 101.797 404.833H109.727ZM114.75 406.107C114.75 404.634 115.044 403.342 115.634 402.233C116.24 401.106 117.072 400.24 118.13 399.633C119.187 399.026 120.4 398.723 121.77 398.723C123.503 398.723 124.933 399.139 126.06 399.971C127.204 400.786 127.975 401.956 128.374 403.481H125.176C124.916 402.77 124.5 402.216 123.928 401.817C123.356 401.418 122.636 401.219 121.77 401.219C120.556 401.219 119.586 401.652 118.858 402.519C118.147 403.368 117.792 404.564 117.792 406.107C117.792 407.65 118.147 408.854 118.858 409.721C119.586 410.588 120.556 411.021 121.77 411.021C123.486 411.021 124.621 410.267 125.176 408.759H128.374C127.958 410.215 127.178 411.376 126.034 412.243C124.89 413.092 123.468 413.517 121.77 413.517C120.4 413.517 119.187 413.214 118.13 412.607C117.072 411.983 116.24 411.116 115.634 410.007C115.044 408.88 114.75 407.58 114.75 406.107ZM134.786 401.375V409.305C134.786 409.842 134.907 410.232 135.15 410.475C135.41 410.7 135.843 410.813 136.45 410.813H138.27V413.283H135.93C134.595 413.283 133.572 412.971 132.862 412.347C132.151 411.723 131.796 410.709 131.796 409.305V401.375H130.106V398.957H131.796V395.395H134.786V398.957H138.27V401.375H134.786ZM166.787 395.213V413.283H163.823V400.907L158.311 413.283H156.257L150.719 400.907V413.283H147.755V395.213H150.953L157.297 409.383L163.615 395.213H166.787ZM169.695 406.055C169.695 404.616 169.99 403.342 170.579 402.233C171.186 401.124 172 400.266 173.023 399.659C174.063 399.035 175.207 398.723 176.455 398.723C177.582 398.723 178.561 398.948 179.393 399.399C180.242 399.832 180.918 400.378 181.421 401.037V398.957H184.411V413.283H181.421V411.151C180.918 411.827 180.234 412.39 179.367 412.841C178.5 413.292 177.512 413.517 176.403 413.517C175.172 413.517 174.046 413.205 173.023 412.581C172 411.94 171.186 411.056 170.579 409.929C169.99 408.785 169.695 407.494 169.695 406.055ZM181.421 406.107C181.421 405.119 181.213 404.261 180.797 403.533C180.398 402.805 179.87 402.25 179.211 401.869C178.552 401.488 177.842 401.297 177.079 401.297C176.316 401.297 175.606 401.488 174.947 401.869C174.288 402.233 173.751 402.779 173.335 403.507C172.936 404.218 172.737 405.067 172.737 406.055C172.737 407.043 172.936 407.91 173.335 408.655C173.751 409.4 174.288 409.972 174.947 410.371C175.623 410.752 176.334 410.943 177.079 410.943C177.842 410.943 178.552 410.752 179.211 410.371C179.87 409.99 180.398 409.435 180.797 408.707C181.213 407.962 181.421 407.095 181.421 406.107ZM195.532 398.723C196.659 398.723 197.664 398.957 198.548 399.425C199.449 399.893 200.151 400.586 200.654 401.505C201.157 402.424 201.408 403.533 201.408 404.833V413.283H198.47V405.275C198.47 403.992 198.149 403.013 197.508 402.337C196.867 401.644 195.991 401.297 194.882 401.297C193.773 401.297 192.889 401.644 192.23 402.337C191.589 403.013 191.268 403.992 191.268 405.275V413.283H188.304V398.957H191.268V400.595C191.753 400.006 192.369 399.546 193.114 399.217C193.877 398.888 194.683 398.723 195.532 398.723ZM204.201 406.055C204.201 404.616 204.496 403.342 205.085 402.233C205.692 401.124 206.506 400.266 207.529 399.659C208.569 399.035 209.713 398.723 210.961 398.723C212.088 398.723 213.067 398.948 213.899 399.399C214.748 399.832 215.424 400.378 215.927 401.037V398.957H218.917V413.283H215.927V411.151C215.424 411.827 214.74 412.39 213.873 412.841C213.006 413.292 212.018 413.517 210.909 413.517C209.678 413.517 208.552 413.205 207.529 412.581C206.506 411.94 205.692 411.056 205.085 409.929C204.496 408.785 204.201 407.494 204.201 406.055ZM215.927 406.107C215.927 405.119 215.719 404.261 215.303 403.533C214.904 402.805 214.376 402.25 213.717 401.869C213.058 401.488 212.348 401.297 211.585 401.297C210.822 401.297 210.112 401.488 209.453 401.869C208.794 402.233 208.257 402.779 207.841 403.507C207.442 404.218 207.243 405.067 207.243 406.055C207.243 407.043 207.442 407.91 207.841 408.655C208.257 409.4 208.794 409.972 209.453 410.371C210.129 410.752 210.84 410.943 211.585 410.943C212.348 410.943 213.058 410.752 213.717 410.371C214.376 409.99 214.904 409.435 215.303 408.707C215.719 407.962 215.927 407.095 215.927 406.107ZM228.582 398.723C229.691 398.723 230.671 398.948 231.52 399.399C232.387 399.832 233.063 400.378 233.548 401.037V398.957H236.538V413.517C236.538 414.834 236.261 416.004 235.706 417.027C235.151 418.067 234.345 418.882 233.288 419.471C232.248 420.06 231 420.355 229.544 420.355C227.603 420.355 225.991 419.896 224.708 418.977C223.425 418.076 222.697 416.845 222.524 415.285H225.462C225.687 416.03 226.164 416.628 226.892 417.079C227.637 417.547 228.521 417.781 229.544 417.781C230.74 417.781 231.702 417.417 232.43 416.689C233.175 415.961 233.548 414.904 233.548 413.517V411.125C233.045 411.801 232.361 412.373 231.494 412.841C230.645 413.292 229.674 413.517 228.582 413.517C227.334 413.517 226.19 413.205 225.15 412.581C224.127 411.94 223.313 411.056 222.706 409.929C222.117 408.785 221.822 407.494 221.822 406.055C221.822 404.616 222.117 403.342 222.706 402.233C223.313 401.124 224.127 400.266 225.15 399.659C226.19 399.035 227.334 398.723 228.582 398.723ZM233.548 406.107C233.548 405.119 233.34 404.261 232.924 403.533C232.525 402.805 231.997 402.25 231.338 401.869C230.679 401.488 229.969 401.297 229.206 401.297C228.443 401.297 227.733 401.488 227.074 401.869C226.415 402.233 225.878 402.779 225.462 403.507C225.063 404.218 224.864 405.067 224.864 406.055C224.864 407.043 225.063 407.91 225.462 408.655C225.878 409.4 226.415 409.972 227.074 410.371C227.75 410.752 228.461 410.943 229.206 410.943C229.969 410.943 230.679 410.752 231.338 410.371C231.997 409.99 232.525 409.435 232.924 408.707C233.34 407.962 233.548 407.095 233.548 406.107ZM253.561 405.769C253.561 406.306 253.526 406.792 253.457 407.225H242.511C242.598 408.369 243.022 409.288 243.785 409.981C244.548 410.674 245.484 411.021 246.593 411.021C248.188 411.021 249.314 410.354 249.973 409.019H253.171C252.738 410.336 251.949 411.42 250.805 412.269C249.678 413.101 248.274 413.517 246.593 413.517C245.224 413.517 243.993 413.214 242.901 412.607C241.826 411.983 240.977 411.116 240.353 410.007C239.746 408.88 239.443 407.58 239.443 406.107C239.443 404.634 239.738 403.342 240.327 402.233C240.934 401.106 241.774 400.24 242.849 399.633C243.941 399.026 245.189 398.723 246.593 398.723C247.945 398.723 249.15 399.018 250.207 399.607C251.264 400.196 252.088 401.028 252.677 402.103C253.266 403.16 253.561 404.382 253.561 405.769ZM250.467 404.833C250.45 403.741 250.06 402.866 249.297 402.207C248.534 401.548 247.59 401.219 246.463 401.219C245.44 401.219 244.565 401.548 243.837 402.207C243.109 402.848 242.676 403.724 242.537 404.833H250.467ZM273.82 398.723C274.947 398.723 275.952 398.957 276.836 399.425C277.737 399.893 278.439 400.586 278.942 401.505C279.462 402.424 279.722 403.533 279.722 404.833V413.283H276.784V405.275C276.784 403.992 276.463 403.013 275.822 402.337C275.181 401.644 274.305 401.297 273.196 401.297C272.087 401.297 271.203 401.644 270.544 402.337C269.903 403.013 269.582 403.992 269.582 405.275V413.283H266.644V405.275C266.644 403.992 266.323 403.013 265.682 402.337C265.041 401.644 264.165 401.297 263.056 401.297C261.947 401.297 261.063 401.644 260.404 402.337C259.763 403.013 259.442 403.992 259.442 405.275V413.283H256.478V398.957H259.442V400.595C259.927 400.006 260.543 399.546 261.288 399.217C262.033 398.888 262.831 398.723 263.68 398.723C264.824 398.723 265.847 398.966 266.748 399.451C267.649 399.936 268.343 400.638 268.828 401.557C269.261 400.69 269.937 400.006 270.856 399.503C271.775 398.983 272.763 398.723 273.82 398.723ZM296.624 405.769C296.624 406.306 296.589 406.792 296.52 407.225H285.574C285.66 408.369 286.085 409.288 286.848 409.981C287.61 410.674 288.546 411.021 289.656 411.021C291.25 411.021 292.377 410.354 293.036 409.019H296.234C295.8 410.336 295.012 411.42 293.868 412.269C292.741 413.101 291.337 413.517 289.656 413.517C288.286 413.517 287.056 413.214 285.964 412.607C284.889 411.983 284.04 411.116 283.416 410.007C282.809 408.88 282.506 407.58 282.506 406.107C282.506 404.634 282.8 403.342 283.39 402.233C283.996 401.106 284.837 400.24 285.912 399.633C287.004 399.026 288.252 398.723 289.656 398.723C291.008 398.723 292.212 399.018 293.27 399.607C294.327 400.196 295.15 401.028 295.74 402.103C296.329 403.16 296.624 404.382 296.624 405.769ZM293.53 404.833C293.512 403.741 293.122 402.866 292.36 402.207C291.597 401.548 290.652 401.219 289.526 401.219C288.503 401.219 287.628 401.548 286.9 402.207C286.172 402.848 285.738 403.724 285.6 404.833H293.53ZM306.768 398.723C307.895 398.723 308.9 398.957 309.784 399.425C310.686 399.893 311.388 400.586 311.89 401.505C312.393 402.424 312.644 403.533 312.644 404.833V413.283H309.706V405.275C309.706 403.992 309.386 403.013 308.744 402.337C308.103 401.644 307.228 401.297 306.118 401.297C305.009 401.297 304.125 401.644 303.466 402.337C302.825 403.013 302.504 403.992 302.504 405.275V413.283H299.54V398.957H302.504V400.595C302.99 400.006 303.605 399.546 304.35 399.217C305.113 398.888 305.919 398.723 306.768 398.723ZM319.883 401.375V409.305C319.883 409.842 320.005 410.232 320.247 410.475C320.507 410.7 320.941 410.813 321.547 410.813H323.367V413.283H321.027C319.693 413.283 318.67 412.971 317.959 412.347C317.249 411.723 316.893 410.709 316.893 409.305V401.375H315.203V398.957H316.893V395.395H319.883V398.957H323.367V401.375H319.883Z" fill="#595959"/>
<path d="M100.847 370.095H96.3672L86.2232 354.767V370.095H81.7432V347.727H86.2232L96.3672 363.087V347.727H100.847V370.095ZM104.122 361.167C104.122 359.375 104.474 357.785 105.178 356.399C105.904 355.012 106.874 353.945 108.09 353.199C109.328 352.452 110.704 352.079 112.218 352.079C113.541 352.079 114.693 352.345 115.674 352.879C116.677 353.412 117.477 354.084 118.074 354.895V352.367H122.586V370.095H118.074V367.503C117.498 368.335 116.698 369.028 115.674 369.583C114.672 370.116 113.509 370.383 112.186 370.383C110.693 370.383 109.328 369.999 108.09 369.231C106.874 368.463 105.904 367.385 105.178 365.999C104.474 364.591 104.122 362.98 104.122 361.167ZM118.074 361.231C118.074 360.143 117.861 359.215 117.434 358.447C117.008 357.657 116.432 357.06 115.706 356.655C114.981 356.228 114.202 356.015 113.37 356.015C112.538 356.015 111.77 356.217 111.066 356.623C110.362 357.028 109.786 357.625 109.338 358.415C108.912 359.183 108.698 360.1 108.698 361.167C108.698 362.233 108.912 363.172 109.338 363.983C109.786 364.772 110.362 365.38 111.066 365.807C111.792 366.233 112.56 366.447 113.37 366.447C114.202 366.447 114.981 366.244 115.706 365.839C116.432 365.412 117.008 364.815 117.434 364.047C117.861 363.257 118.074 362.319 118.074 361.231ZM148.978 352.111C151.154 352.111 152.903 352.783 154.226 354.127C155.57 355.449 156.242 357.305 156.242 359.695V370.095H151.762V360.303C151.762 358.916 151.41 357.86 150.706 357.135C150.002 356.388 149.042 356.015 147.826 356.015C146.61 356.015 145.639 356.388 144.914 357.135C144.21 357.86 143.858 358.916 143.858 360.303V370.095H139.378V360.303C139.378 358.916 139.026 357.86 138.322 357.135C137.618 356.388 136.658 356.015 135.442 356.015C134.205 356.015 133.223 356.388 132.498 357.135C131.794 357.86 131.442 358.916 131.442 360.303V370.095H126.962V352.367H131.442V354.511C132.018 353.764 132.754 353.177 133.65 352.751C134.567 352.324 135.57 352.111 136.658 352.111C138.045 352.111 139.282 352.409 140.37 353.007C141.458 353.583 142.301 354.415 142.898 355.503C143.474 354.479 144.306 353.657 145.394 353.039C146.503 352.42 147.698 352.111 148.978 352.111ZM176.973 360.847C176.973 361.487 176.931 362.063 176.845 362.575H163.885C163.992 363.855 164.44 364.857 165.229 365.583C166.019 366.308 166.989 366.671 168.141 366.671C169.805 366.671 170.989 365.956 171.693 364.527H176.525C176.013 366.233 175.032 367.641 173.581 368.751C172.131 369.839 170.349 370.383 168.237 370.383C166.531 370.383 164.995 370.009 163.629 369.263C162.285 368.495 161.229 367.417 160.461 366.031C159.715 364.644 159.341 363.044 159.341 361.231C159.341 359.396 159.715 357.785 160.461 356.399C161.208 355.012 162.253 353.945 163.597 353.199C164.941 352.452 166.488 352.079 168.237 352.079C169.923 352.079 171.427 352.441 172.749 353.167C174.093 353.892 175.128 354.927 175.853 356.271C176.6 357.593 176.973 359.119 176.973 360.847ZM172.333 359.567C172.312 358.415 171.896 357.497 171.085 356.815C170.275 356.111 169.283 355.759 168.109 355.759C167 355.759 166.061 356.1 165.293 356.783C164.547 357.444 164.088 358.372 163.917 359.567H172.333ZM186.78 358.895C186.78 356.697 187.271 354.735 188.252 353.007C189.255 351.257 190.61 349.903 192.316 348.943C194.044 347.961 195.975 347.471 198.108 347.471C200.604 347.471 202.791 348.111 204.668 349.391C206.546 350.671 207.858 352.441 208.604 354.703H203.452C202.94 353.636 202.215 352.836 201.276 352.303C200.359 351.769 199.292 351.503 198.076 351.503C196.775 351.503 195.612 351.812 194.588 352.431C193.586 353.028 192.796 353.881 192.22 354.991C191.666 356.1 191.388 357.401 191.388 358.895C191.388 360.367 191.666 361.668 192.22 362.799C192.796 363.908 193.586 364.772 194.588 365.391C195.612 365.988 196.775 366.287 198.076 366.287C199.292 366.287 200.359 366.02 201.276 365.487C202.215 364.932 202.94 364.121 203.452 363.055H208.604C207.858 365.337 206.546 367.119 204.668 368.399C202.812 369.657 200.626 370.287 198.108 370.287C195.975 370.287 194.044 369.807 192.316 368.847C190.61 367.865 189.255 366.511 188.252 364.783C187.271 363.055 186.78 361.092 186.78 358.895ZM222.415 352.111C223.759 352.111 224.953 352.409 225.999 353.007C227.044 353.583 227.855 354.447 228.431 355.599C229.028 356.729 229.327 358.095 229.327 359.695V370.095H224.847V360.303C224.847 358.895 224.495 357.817 223.791 357.071C223.087 356.303 222.127 355.919 220.911 355.919C219.673 355.919 218.692 356.303 217.967 357.071C217.263 357.817 216.911 358.895 216.911 360.303V370.095H212.431V346.415H216.911V354.575C217.487 353.807 218.255 353.209 219.215 352.783C220.175 352.335 221.241 352.111 222.415 352.111ZM250.067 360.847C250.067 361.487 250.024 362.063 249.939 362.575H236.979C237.086 363.855 237.534 364.857 238.323 365.583C239.112 366.308 240.083 366.671 241.235 366.671C242.899 366.671 244.083 365.956 244.787 364.527H249.619C249.107 366.233 248.126 367.641 246.675 368.751C245.224 369.839 243.443 370.383 241.331 370.383C239.624 370.383 238.088 370.009 236.723 369.263C235.379 368.495 234.323 367.417 233.555 366.031C232.808 364.644 232.435 363.044 232.435 361.231C232.435 359.396 232.808 357.785 233.555 356.399C234.302 355.012 235.347 353.945 236.691 353.199C238.035 352.452 239.582 352.079 241.331 352.079C243.016 352.079 244.52 352.441 245.843 353.167C247.187 353.892 248.222 354.927 248.947 356.271C249.694 357.593 250.067 359.119 250.067 360.847ZM245.427 359.567C245.406 358.415 244.99 357.497 244.179 356.815C243.368 356.111 242.376 355.759 241.203 355.759C240.094 355.759 239.155 356.1 238.387 356.783C237.64 357.444 237.182 358.372 237.011 359.567H245.427ZM252.185 361.167C252.185 359.375 252.537 357.785 253.241 356.399C253.966 355.012 254.937 353.945 256.153 353.199C257.39 352.452 258.766 352.079 260.281 352.079C261.604 352.079 262.756 352.345 263.737 352.879C264.74 353.412 265.54 354.084 266.137 354.895V352.367H270.649V370.095H266.137V367.503C265.561 368.335 264.761 369.028 263.737 369.583C262.734 370.116 261.572 370.383 260.249 370.383C258.756 370.383 257.39 369.999 256.153 369.231C254.937 368.463 253.966 367.385 253.241 365.999C252.537 364.591 252.185 362.98 252.185 361.167ZM266.137 361.231C266.137 360.143 265.924 359.215 265.497 358.447C265.07 357.657 264.494 357.06 263.769 356.655C263.044 356.228 262.265 356.015 261.433 356.015C260.601 356.015 259.833 356.217 259.129 356.623C258.425 357.028 257.849 357.625 257.401 358.415C256.974 359.183 256.761 360.1 256.761 361.167C256.761 362.233 256.974 363.172 257.401 363.983C257.849 364.772 258.425 365.38 259.129 365.807C259.854 366.233 260.622 366.447 261.433 366.447C262.265 366.447 263.044 366.244 263.769 365.839C264.494 365.412 265.07 364.815 265.497 364.047C265.924 363.257 266.137 362.319 266.137 361.231ZM279.504 354.927C280.08 354.116 280.87 353.444 281.872 352.911C282.896 352.356 284.059 352.079 285.36 352.079C286.875 352.079 288.24 352.452 289.456 353.199C290.694 353.945 291.664 355.012 292.368 356.399C293.094 357.764 293.456 359.353 293.456 361.167C293.456 362.98 293.094 364.591 292.368 365.999C291.664 367.385 290.694 368.463 289.456 369.231C288.24 369.999 286.875 370.383 285.36 370.383C284.059 370.383 282.907 370.116 281.904 369.583C280.923 369.049 280.123 368.377 279.504 367.567V378.543H275.024V352.367H279.504V354.927ZM288.88 361.167C288.88 360.1 288.656 359.183 288.208 358.415C287.782 357.625 287.206 357.028 286.48 356.623C285.776 356.217 285.008 356.015 284.176 356.015C283.366 356.015 282.598 356.228 281.872 356.655C281.168 357.06 280.592 357.657 280.144 358.447C279.718 359.236 279.504 360.164 279.504 361.231C279.504 362.297 279.718 363.225 280.144 364.015C280.592 364.804 281.168 365.412 281.872 365.839C282.598 366.244 283.366 366.447 284.176 366.447C285.008 366.447 285.776 366.233 286.48 365.807C287.206 365.38 287.782 364.772 288.208 363.983C288.656 363.193 288.88 362.255 288.88 361.167Z" fill="#19154E"/>
<rect x="21.5203" y="25.6188" width="330.549" height="189.58" rx="24" fill="#FF5301"/>
<path d="M233.376 88.8123C231.443 88.8124 229.546 89.3296 227.88 90.3101C226.214 91.2907 224.841 92.6989 223.903 94.3888L223.683 94.8431L215.242 111.586L204.502 132.75L211.538 146.615L211.924 147.372C213.009 149.291 214.644 150.841 216.619 151.82C218.591 150.837 220.226 149.289 221.314 147.372L221.7 146.615L242.78 105.019L243.29 104.013C244.007 102.368 244.303 100.57 244.153 98.782C244.002 96.9937 243.409 95.2708 242.427 93.7686C241.445 92.2663 240.105 91.0318 238.528 90.1763C236.95 89.3207 235.184 88.8709 233.39 88.8673L233.376 88.8123ZM168.22 108.956L161.198 95.1874L160.813 94.4301C159.737 92.5125 158.104 90.9665 156.131 89.9964C154.161 90.965 152.53 92.5054 151.45 94.4163L151.05 95.1874L129.942 136.743L129.433 137.734C128.295 140.283 128.185 143.173 129.128 145.801C130.071 148.429 131.992 150.591 134.491 151.835C136.991 153.079 139.874 153.31 142.539 152.478C145.204 151.646 147.444 149.817 148.792 147.372L149.026 146.932L157.522 130.189L168.248 109.039L168.22 108.956Z" fill="white"/>
<path d="M233.34 88.8123C231.409 88.8134 229.514 89.3312 227.85 90.3117C226.187 91.2923 224.816 92.6999 223.881 94.3888L223.646 94.8431L215.151 111.586L204.397 132.75L211.447 146.615L211.833 147.372C212.913 149.294 214.55 150.845 216.528 151.82C218.506 150.845 220.142 149.294 221.223 147.372L221.622 146.615L242.772 105.019L243.267 104.013C243.984 102.368 244.281 100.57 244.13 98.782C243.98 96.9937 243.387 95.2708 242.405 93.7686C241.423 92.2663 240.083 91.0318 238.505 90.1763C236.928 89.3207 235.162 88.8709 233.367 88.8673L233.34 88.8123Z" fill="white"/>
<path d="M139.317 152.948C141.241 152.954 143.131 152.447 144.794 151.479C146.457 150.511 147.831 149.117 148.776 147.441L149.01 146.986L157.52 130.243L168.26 109.08L161.223 95.1457L160.838 94.3883C159.749 92.4674 158.109 90.918 156.129 89.9409C154.154 90.9202 152.518 92.4695 151.434 94.3883L151.048 95.1457L129.871 136.742L129.362 137.747C128.645 139.393 128.348 141.19 128.499 142.979C128.649 144.767 129.242 146.49 130.224 147.992C131.206 149.494 132.546 150.729 134.124 151.584C135.701 152.44 137.467 152.89 139.262 152.893L139.317 152.948Z" fill="url(#paint1_linear_10_600)"/>
<path d="M168.219 108.956L161.197 95.1872L160.811 94.4299C159.73 92.5079 158.094 90.9575 156.116 89.9825C156.773 89.6604 157.46 89.4022 158.167 89.2114C159.068 88.9833 159.993 88.8677 160.921 88.8672H175.627C177.546 88.8725 179.431 89.3846 181.09 90.3517C182.748 91.3188 184.122 92.7066 185.072 94.3748L185.458 95.1321L204.473 132.804L211.481 146.574L211.867 147.331C212.96 149.273 214.616 150.838 216.617 151.82C215.128 152.544 213.495 152.925 211.839 152.935H197.051C195.133 152.929 193.251 152.416 191.595 151.449C189.939 150.482 188.568 149.095 187.619 147.427L187.22 146.67L168.219 108.956Z" fill="#FF8C44"/>
<defs>
<linearGradient id="paint0_linear_10_600" x1="187.018" y1="0" x2="187.018" y2="1518.17" gradientUnits="userSpaceOnUse">
<stop stop-color="white"/>
<stop offset="1" stop-color="#FF5301"/>
</linearGradient>
<linearGradient id="paint1_linear_10_600" x1="2700.31" y1="408.003" x2="239.648" y2="5684.52" gradientUnits="userSpaceOnUse">
<stop stop-color="white"/>
</linearGradient>
</defs>
</svg>
