<svg width="375" height="544" viewBox="0 0 375 544" fill="none" xmlns="http://www.w3.org/2000/svg">
<rect y="0.196777" width="374.035" height="543.12" rx="12" fill="url(#paint0_linear_10093_2161)"/>
<path d="M45.3163 397.802V403.106H51.5563V405.524H45.3163V411.062H52.3363V413.48H42.3523V395.384H52.3363V397.802H45.3163ZM62.1231 406.226L66.7511 413.48H63.3971L60.3031 408.618L57.3911 413.48H54.2971L58.9251 406.434L54.2971 399.154H57.6511L60.7451 404.016L63.6571 399.154H66.7511L62.1231 406.226ZM71.9257 401.26C72.4284 400.601 73.1131 400.046 73.9797 399.596C74.8464 399.145 75.8257 398.92 76.9177 398.92C78.1657 398.92 79.3011 399.232 80.3237 399.856C81.3637 400.462 82.1784 401.32 82.7677 402.43C83.3571 403.539 83.6517 404.813 83.6517 406.252C83.6517 407.69 83.3571 408.982 82.7677 410.126C82.1784 411.252 81.3637 412.136 80.3237 412.778C79.3011 413.402 78.1657 413.714 76.9177 413.714C75.8257 413.714 74.8551 413.497 74.0057 413.064C73.1564 412.613 72.4631 412.058 71.9257 411.4V420.292H68.9617V399.154H71.9257V401.26ZM80.6357 406.252C80.6357 405.264 80.4277 404.414 80.0117 403.704C79.6131 402.976 79.0757 402.43 78.3997 402.066C77.7411 401.684 77.0304 401.494 76.2677 401.494C75.5224 401.494 74.8117 401.684 74.1357 402.066C73.4771 402.447 72.9397 403.002 72.5237 403.73C72.1251 404.458 71.9257 405.316 71.9257 406.304C71.9257 407.292 72.1251 408.158 72.5237 408.904C72.9397 409.632 73.4771 410.186 74.1357 410.568C74.8117 410.949 75.5224 411.14 76.2677 411.14C77.0304 411.14 77.7411 410.949 78.3997 410.568C79.0757 410.169 79.6131 409.597 80.0117 408.852C80.4277 408.106 80.6357 407.24 80.6357 406.252ZM99.7128 405.966C99.7128 406.503 99.6781 406.988 99.6088 407.422H88.6628C88.7495 408.566 89.1741 409.484 89.9368 410.178C90.6995 410.871 91.6355 411.218 92.7448 411.218C94.3395 411.218 95.4661 410.55 96.1248 409.216H99.3228C98.8895 410.533 98.1008 411.616 96.9568 412.466C95.8301 413.298 94.4261 413.714 92.7448 413.714C91.3755 413.714 90.1448 413.41 89.0528 412.804C87.9781 412.18 87.1288 411.313 86.5048 410.204C85.8981 409.077 85.5948 407.777 85.5948 406.304C85.5948 404.83 85.8895 403.539 86.4788 402.43C87.0855 401.303 87.9261 400.436 89.0008 399.83C90.0928 399.223 91.3408 398.92 92.7448 398.92C94.0968 398.92 95.3015 399.214 96.3588 399.804C97.4161 400.393 98.2395 401.225 98.8288 402.3C99.4181 403.357 99.7128 404.579 99.7128 405.966ZM96.6188 405.03C96.6015 403.938 96.2115 403.062 95.4488 402.404C94.6861 401.745 93.7415 401.416 92.6148 401.416C91.5921 401.416 90.7168 401.745 89.9888 402.404C89.2608 403.045 88.8275 403.92 88.6888 405.03H96.6188ZM109.858 398.92C110.984 398.92 111.99 399.154 112.874 399.622C113.775 400.09 114.477 400.783 114.98 401.702C115.482 402.62 115.734 403.73 115.734 405.03V413.48H112.796V405.472C112.796 404.189 112.475 403.21 111.834 402.534C111.192 401.84 110.317 401.494 109.208 401.494C108.098 401.494 107.214 401.84 106.556 402.534C105.914 403.21 105.594 404.189 105.594 405.472V413.48H102.63V399.154H105.594V400.792C106.079 400.202 106.694 399.743 107.44 399.414C108.202 399.084 109.008 398.92 109.858 398.92ZM124.714 413.714C123.588 413.714 122.574 413.514 121.672 413.116C120.788 412.7 120.086 412.145 119.566 411.452C119.046 410.741 118.769 409.952 118.734 409.086H121.802C121.854 409.692 122.14 410.204 122.66 410.62C123.198 411.018 123.865 411.218 124.662 411.218C125.494 411.218 126.136 411.062 126.586 410.75C127.054 410.42 127.288 410.004 127.288 409.502C127.288 408.964 127.028 408.566 126.508 408.306C126.006 408.046 125.2 407.76 124.09 407.448C123.016 407.153 122.14 406.867 121.464 406.59C120.788 406.312 120.199 405.888 119.696 405.316C119.211 404.744 118.968 403.99 118.968 403.054C118.968 402.291 119.194 401.598 119.644 400.974C120.095 400.332 120.736 399.83 121.568 399.466C122.418 399.102 123.388 398.92 124.48 398.92C126.11 398.92 127.418 399.336 128.406 400.168C129.412 400.982 129.949 402.1 130.018 403.522H127.054C127.002 402.88 126.742 402.369 126.274 401.988C125.806 401.606 125.174 401.416 124.376 401.416C123.596 401.416 122.998 401.563 122.582 401.858C122.166 402.152 121.958 402.542 121.958 403.028C121.958 403.409 122.097 403.73 122.374 403.99C122.652 404.25 122.99 404.458 123.388 404.614C123.787 404.752 124.376 404.934 125.156 405.16C126.196 405.437 127.046 405.723 127.704 406.018C128.38 406.295 128.961 406.711 129.446 407.266C129.932 407.82 130.183 408.557 130.2 409.476C130.2 410.29 129.975 411.018 129.524 411.66C129.074 412.301 128.432 412.804 127.6 413.168C126.786 413.532 125.824 413.714 124.714 413.714ZM146.533 405.966C146.533 406.503 146.498 406.988 146.429 407.422H135.483C135.57 408.566 135.994 409.484 136.757 410.178C137.52 410.871 138.456 411.218 139.565 411.218C141.16 411.218 142.286 410.55 142.945 409.216H146.143C145.71 410.533 144.921 411.616 143.777 412.466C142.65 413.298 141.246 413.714 139.565 413.714C138.196 413.714 136.965 413.41 135.873 412.804C134.798 412.18 133.949 411.313 133.325 410.204C132.718 409.077 132.415 407.777 132.415 406.304C132.415 404.83 132.71 403.539 133.299 402.43C133.906 401.303 134.746 400.436 135.821 399.83C136.913 399.223 138.161 398.92 139.565 398.92C140.917 398.92 142.122 399.214 143.179 399.804C144.236 400.393 145.06 401.225 145.649 402.3C146.238 403.357 146.533 404.579 146.533 405.966ZM143.439 405.03C143.422 403.938 143.032 403.062 142.269 402.404C141.506 401.745 140.562 401.416 139.435 401.416C138.412 401.416 137.537 401.745 136.809 402.404C136.081 403.045 135.648 403.92 135.509 405.03H143.439ZM175.236 395.41V413.48H172.272V401.104L166.76 413.48H164.706L159.168 401.104V413.48H156.204V395.41H159.402L165.746 409.58L172.064 395.41H175.236ZM178.144 406.252C178.144 404.813 178.438 403.539 179.028 402.43C179.634 401.32 180.449 400.462 181.472 399.856C182.512 399.232 183.656 398.92 184.904 398.92C186.03 398.92 187.01 399.145 187.842 399.596C188.691 400.029 189.367 400.575 189.87 401.234V399.154H192.86V413.48H189.87V411.348C189.367 412.024 188.682 412.587 187.816 413.038C186.949 413.488 185.961 413.714 184.852 413.714C183.621 413.714 182.494 413.402 181.472 412.778C180.449 412.136 179.634 411.252 179.028 410.126C178.438 408.982 178.144 407.69 178.144 406.252ZM189.87 406.304C189.87 405.316 189.662 404.458 189.246 403.73C188.847 403.002 188.318 402.447 187.66 402.066C187.001 401.684 186.29 401.494 185.528 401.494C184.765 401.494 184.054 401.684 183.396 402.066C182.737 402.43 182.2 402.976 181.784 403.704C181.385 404.414 181.186 405.264 181.186 406.252C181.186 407.24 181.385 408.106 181.784 408.852C182.2 409.597 182.737 410.169 183.396 410.568C184.072 410.949 184.782 411.14 185.528 411.14C186.29 411.14 187.001 410.949 187.66 410.568C188.318 410.186 188.847 409.632 189.246 408.904C189.662 408.158 189.87 407.292 189.87 406.304ZM203.981 398.92C205.107 398.92 206.113 399.154 206.997 399.622C207.898 400.09 208.6 400.783 209.103 401.702C209.605 402.62 209.857 403.73 209.857 405.03V413.48H206.919V405.472C206.919 404.189 206.598 403.21 205.957 402.534C205.315 401.84 204.44 401.494 203.331 401.494C202.221 401.494 201.337 401.84 200.679 402.534C200.037 403.21 199.717 404.189 199.717 405.472V413.48H196.753V399.154H199.717V400.792C200.202 400.202 200.817 399.743 201.563 399.414C202.325 399.084 203.131 398.92 203.981 398.92ZM212.65 406.252C212.65 404.813 212.944 403.539 213.534 402.43C214.14 401.32 214.955 400.462 215.978 399.856C217.018 399.232 218.162 398.92 219.41 398.92C220.536 398.92 221.516 399.145 222.348 399.596C223.197 400.029 223.873 400.575 224.376 401.234V399.154H227.366V413.48H224.376V411.348C223.873 412.024 223.188 412.587 222.322 413.038C221.455 413.488 220.467 413.714 219.358 413.714C218.127 413.714 217 413.402 215.978 412.778C214.955 412.136 214.14 411.252 213.534 410.126C212.944 408.982 212.65 407.69 212.65 406.252ZM224.376 406.304C224.376 405.316 224.168 404.458 223.752 403.73C223.353 403.002 222.824 402.447 222.166 402.066C221.507 401.684 220.796 401.494 220.034 401.494C219.271 401.494 218.56 401.684 217.902 402.066C217.243 402.43 216.706 402.976 216.29 403.704C215.891 404.414 215.692 405.264 215.692 406.252C215.692 407.24 215.891 408.106 216.29 408.852C216.706 409.597 217.243 410.169 217.902 410.568C218.578 410.949 219.288 411.14 220.034 411.14C220.796 411.14 221.507 410.949 222.166 410.568C222.824 410.186 223.353 409.632 223.752 408.904C224.168 408.158 224.376 407.292 224.376 406.304ZM237.031 398.92C238.14 398.92 239.119 399.145 239.969 399.596C240.835 400.029 241.511 400.575 241.997 401.234V399.154H244.987V413.714C244.987 415.031 244.709 416.201 244.155 417.224C243.6 418.264 242.794 419.078 241.737 419.668C240.697 420.257 239.449 420.552 237.993 420.552C236.051 420.552 234.439 420.092 233.157 419.174C231.874 418.272 231.146 417.042 230.973 415.482H233.911C234.136 416.227 234.613 416.825 235.341 417.276C236.086 417.744 236.97 417.978 237.993 417.978C239.189 417.978 240.151 417.614 240.879 416.886C241.624 416.158 241.997 415.1 241.997 413.714V411.322C241.494 411.998 240.809 412.57 239.943 413.038C239.093 413.488 238.123 413.714 237.031 413.714C235.783 413.714 234.639 413.402 233.599 412.778C232.576 412.136 231.761 411.252 231.155 410.126C230.565 408.982 230.271 407.69 230.271 406.252C230.271 404.813 230.565 403.539 231.155 402.43C231.761 401.32 232.576 400.462 233.599 399.856C234.639 399.232 235.783 398.92 237.031 398.92ZM241.997 406.304C241.997 405.316 241.789 404.458 241.373 403.73C240.974 403.002 240.445 402.447 239.787 402.066C239.128 401.684 238.417 401.494 237.655 401.494C236.892 401.494 236.181 401.684 235.523 402.066C234.864 402.43 234.327 402.976 233.911 403.704C233.512 404.414 233.313 405.264 233.313 406.252C233.313 407.24 233.512 408.106 233.911 408.852C234.327 409.597 234.864 410.169 235.523 410.568C236.199 410.949 236.909 411.14 237.655 411.14C238.417 411.14 239.128 410.949 239.787 410.568C240.445 410.186 240.974 409.632 241.373 408.904C241.789 408.158 241.997 407.292 241.997 406.304ZM262.01 405.966C262.01 406.503 261.975 406.988 261.906 407.422H250.96C251.046 408.566 251.471 409.484 252.234 410.178C252.996 410.871 253.932 411.218 255.042 411.218C256.636 411.218 257.763 410.55 258.422 409.216H261.62C261.186 410.533 260.398 411.616 259.254 412.466C258.127 413.298 256.723 413.714 255.042 413.714C253.672 413.714 252.442 413.41 251.35 412.804C250.275 412.18 249.426 411.313 248.802 410.204C248.195 409.077 247.892 407.777 247.892 406.304C247.892 404.83 248.186 403.539 248.776 402.43C249.382 401.303 250.223 400.436 251.298 399.83C252.39 399.223 253.638 398.92 255.042 398.92C256.394 398.92 257.598 399.214 258.656 399.804C259.713 400.393 260.536 401.225 261.126 402.3C261.715 403.357 262.01 404.579 262.01 405.966ZM258.916 405.03C258.898 403.938 258.508 403.062 257.746 402.404C256.983 401.745 256.038 401.416 254.912 401.416C253.889 401.416 253.014 401.745 252.286 402.404C251.558 403.045 251.124 403.92 250.986 405.03H258.916ZM282.269 398.92C283.395 398.92 284.401 399.154 285.285 399.622C286.186 400.09 286.888 400.783 287.391 401.702C287.911 402.62 288.171 403.73 288.171 405.03V413.48H285.233V405.472C285.233 404.189 284.912 403.21 284.271 402.534C283.629 401.84 282.754 401.494 281.645 401.494C280.535 401.494 279.651 401.84 278.993 402.534C278.351 403.21 278.031 404.189 278.031 405.472V413.48H275.093V405.472C275.093 404.189 274.772 403.21 274.131 402.534C273.489 401.84 272.614 401.494 271.505 401.494C270.395 401.494 269.511 401.84 268.853 402.534C268.211 403.21 267.891 404.189 267.891 405.472V413.48H264.927V399.154H267.891V400.792C268.376 400.202 268.991 399.743 269.737 399.414C270.482 399.084 271.279 398.92 272.129 398.92C273.273 398.92 274.295 399.162 275.197 399.648C276.098 400.133 276.791 400.835 277.277 401.754C277.71 400.887 278.386 400.202 279.305 399.7C280.223 399.18 281.211 398.92 282.269 398.92ZM305.072 405.966C305.072 406.503 305.038 406.988 304.968 407.422H294.022C294.109 408.566 294.534 409.484 295.296 410.178C296.059 410.871 296.995 411.218 298.104 411.218C299.699 411.218 300.826 410.55 301.484 409.216H304.682C304.249 410.533 303.46 411.616 302.316 412.466C301.19 413.298 299.786 413.714 298.104 413.714C296.735 413.714 295.504 413.41 294.412 412.804C293.338 412.18 292.488 411.313 291.864 410.204C291.258 409.077 290.954 407.777 290.954 406.304C290.954 404.83 291.249 403.539 291.838 402.43C292.445 401.303 293.286 400.436 294.36 399.83C295.452 399.223 296.7 398.92 298.104 398.92C299.456 398.92 300.661 399.214 301.718 399.804C302.776 400.393 303.599 401.225 304.188 402.3C304.778 403.357 305.072 404.579 305.072 405.966ZM301.978 405.03C301.961 403.938 301.571 403.062 300.808 402.404C300.046 401.745 299.101 401.416 297.974 401.416C296.952 401.416 296.076 401.745 295.348 402.404C294.62 403.045 294.187 403.92 294.048 405.03H301.978ZM315.217 398.92C316.344 398.92 317.349 399.154 318.233 399.622C319.134 400.09 319.836 400.783 320.339 401.702C320.842 402.62 321.093 403.73 321.093 405.03V413.48H318.155V405.472C318.155 404.189 317.834 403.21 317.193 402.534C316.552 401.84 315.676 401.494 314.567 401.494C313.458 401.494 312.574 401.84 311.915 402.534C311.274 403.21 310.953 404.189 310.953 405.472V413.48H307.989V399.154H310.953V400.792C311.438 400.202 312.054 399.743 312.799 399.414C313.562 399.084 314.368 398.92 315.217 398.92ZM328.332 401.572V409.502C328.332 410.039 328.453 410.429 328.696 410.672C328.956 410.897 329.389 411.01 329.996 411.01H331.816V413.48H329.476C328.141 413.48 327.118 413.168 326.408 412.544C325.697 411.92 325.342 410.906 325.342 409.502V401.572H323.652V399.154H325.342V395.592H328.332V399.154H331.816V401.572H328.332Z" fill="#595959"/>
<path d="M111.004 373.936L107.612 369.872C106.674 370.107 105.714 370.224 104.732 370.224C102.642 370.224 100.722 369.733 98.9723 368.752C97.2229 367.771 95.8363 366.416 94.8123 364.688C93.7883 362.939 93.2763 360.965 93.2763 358.768C93.2763 356.592 93.7883 354.64 94.8123 352.912C95.8363 351.163 97.2229 349.797 98.9723 348.816C100.722 347.835 102.642 347.344 104.732 347.344C106.844 347.344 108.764 347.835 110.492 348.816C112.242 349.797 113.618 351.163 114.62 352.912C115.644 354.64 116.156 356.592 116.156 358.768C116.156 360.752 115.73 362.565 114.876 364.208C114.044 365.829 112.903 367.152 111.452 368.176L116.572 373.936H111.004ZM97.8843 358.768C97.8843 360.261 98.1723 361.573 98.7483 362.704C99.3243 363.835 100.124 364.709 101.148 365.328C102.194 365.925 103.388 366.224 104.732 366.224C106.076 366.224 107.26 365.925 108.284 365.328C109.308 364.709 110.108 363.835 110.684 362.704C111.26 361.573 111.548 360.261 111.548 358.768C111.548 357.275 111.26 355.973 110.684 354.864C110.108 353.733 109.308 352.869 108.284 352.272C107.26 351.675 106.076 351.376 104.732 351.376C103.388 351.376 102.194 351.675 101.148 352.272C100.124 352.869 99.3243 353.733 98.7483 354.864C98.1723 355.973 97.8843 357.275 97.8843 358.768ZM136.288 352.272V370H131.776V367.76C131.2 368.528 130.442 369.136 129.504 369.584C128.586 370.011 127.584 370.224 126.496 370.224C125.109 370.224 123.882 369.936 122.816 369.36C121.749 368.763 120.906 367.899 120.288 366.768C119.69 365.616 119.392 364.251 119.392 362.672V352.272H123.872V362.032C123.872 363.44 124.224 364.528 124.928 365.296C125.632 366.043 126.592 366.416 127.808 366.416C129.045 366.416 130.016 366.043 130.72 365.296C131.424 364.528 131.776 363.44 131.776 362.032V352.272H136.288ZM142.98 350.16C142.191 350.16 141.529 349.915 140.996 349.424C140.484 348.912 140.228 348.283 140.228 347.536C140.228 346.789 140.484 346.171 140.996 345.68C141.529 345.168 142.191 344.912 142.98 344.912C143.769 344.912 144.42 345.168 144.932 345.68C145.465 346.171 145.732 346.789 145.732 347.536C145.732 348.283 145.465 348.912 144.932 349.424C144.42 349.915 143.769 350.16 142.98 350.16ZM145.188 352.272V370H140.708V352.272H145.188ZM148.462 361.136C148.462 359.301 148.836 357.701 149.582 356.336C150.329 354.949 151.364 353.883 152.686 353.136C154.009 352.368 155.524 351.984 157.23 351.984C159.428 351.984 161.241 352.539 162.67 353.648C164.121 354.736 165.092 356.272 165.582 358.256H160.75C160.494 357.488 160.057 356.891 159.438 356.464C158.841 356.016 158.094 355.792 157.198 355.792C155.918 355.792 154.905 356.261 154.158 357.2C153.412 358.117 153.038 359.429 153.038 361.136C153.038 362.821 153.412 364.133 154.158 365.072C154.905 365.989 155.918 366.448 157.198 366.448C159.012 366.448 160.196 365.637 160.75 364.016H165.582C165.092 365.936 164.121 367.461 162.67 368.592C161.22 369.723 159.406 370.288 157.23 370.288C155.524 370.288 154.009 369.915 152.686 369.168C151.364 368.4 150.329 367.333 149.582 365.968C148.836 364.581 148.462 362.971 148.462 361.136ZM179.36 370L173.344 362.448V370H168.864V346.32H173.344V359.792L179.296 352.272H185.12L177.312 361.168L185.184 370H179.36ZM200.224 358.544C201.482 358.779 202.517 359.408 203.328 360.432C204.138 361.456 204.544 362.629 204.544 363.952C204.544 365.147 204.245 366.203 203.648 367.12C203.072 368.016 202.229 368.72 201.12 369.232C200.01 369.744 198.698 370 197.184 370H187.552V347.664H196.768C198.282 347.664 199.584 347.909 200.672 348.4C201.781 348.891 202.613 349.573 203.168 350.448C203.744 351.323 204.032 352.315 204.032 353.424C204.032 354.725 203.68 355.813 202.976 356.688C202.293 357.563 201.376 358.181 200.224 358.544ZM192.032 356.88H196.128C197.194 356.88 198.016 356.645 198.592 356.176C199.168 355.685 199.456 354.992 199.456 354.096C199.456 353.2 199.168 352.507 198.592 352.016C198.016 351.525 197.194 351.28 196.128 351.28H192.032V356.88ZM196.544 366.352C197.632 366.352 198.474 366.096 199.072 365.584C199.69 365.072 200 364.347 200 363.408C200 362.448 199.68 361.701 199.04 361.168C198.4 360.613 197.536 360.336 196.448 360.336H192.032V366.352H196.544ZM215.986 370.288C214.28 370.288 212.744 369.915 211.378 369.168C210.013 368.4 208.936 367.323 208.146 365.936C207.378 364.549 206.994 362.949 206.994 361.136C206.994 359.323 207.389 357.723 208.178 356.336C208.989 354.949 210.088 353.883 211.474 353.136C212.861 352.368 214.408 351.984 216.114 351.984C217.821 351.984 219.368 352.368 220.754 353.136C222.141 353.883 223.229 354.949 224.018 356.336C224.829 357.723 225.234 359.323 225.234 361.136C225.234 362.949 224.818 364.549 223.986 365.936C223.176 367.323 222.066 368.4 220.658 369.168C219.272 369.915 217.714 370.288 215.986 370.288ZM215.986 366.384C216.797 366.384 217.554 366.192 218.258 365.808C218.984 365.403 219.56 364.805 219.986 364.016C220.413 363.227 220.626 362.267 220.626 361.136C220.626 359.451 220.178 358.16 219.282 357.264C218.408 356.347 217.33 355.888 216.05 355.888C214.77 355.888 213.693 356.347 212.818 357.264C211.965 358.16 211.538 359.451 211.538 361.136C211.538 362.821 211.954 364.123 212.786 365.04C213.64 365.936 214.706 366.384 215.986 366.384ZM236.393 370.288C234.686 370.288 233.15 369.915 231.785 369.168C230.419 368.4 229.342 367.323 228.553 365.936C227.785 364.549 227.401 362.949 227.401 361.136C227.401 359.323 227.795 357.723 228.585 356.336C229.395 354.949 230.494 353.883 231.881 353.136C233.267 352.368 234.814 351.984 236.521 351.984C238.227 351.984 239.774 352.368 241.161 353.136C242.547 353.883 243.635 354.949 244.425 356.336C245.235 357.723 245.641 359.323 245.641 361.136C245.641 362.949 245.225 364.549 244.392 365.936C243.582 367.323 242.473 368.4 241.065 369.168C239.678 369.915 238.121 370.288 236.393 370.288ZM236.393 366.384C237.203 366.384 237.961 366.192 238.665 365.808C239.39 365.403 239.966 364.805 240.393 364.016C240.819 363.227 241.033 362.267 241.033 361.136C241.033 359.451 240.585 358.16 239.689 357.264C238.814 356.347 237.737 355.888 236.457 355.888C235.177 355.888 234.099 356.347 233.225 357.264C232.371 358.16 231.945 359.451 231.945 361.136C231.945 362.821 232.361 364.123 233.193 365.04C234.046 365.936 235.113 366.384 236.393 366.384ZM259.423 370L253.407 362.448V370H248.927V346.32H253.407V359.792L259.359 352.272H265.183L257.375 361.168L265.247 370H259.423ZM274.398 370.288C272.948 370.288 271.646 370.032 270.494 369.52C269.342 368.987 268.425 368.272 267.742 367.376C267.081 366.48 266.718 365.488 266.654 364.4H271.166C271.252 365.083 271.582 365.648 272.158 366.096C272.756 366.544 273.492 366.768 274.366 366.768C275.22 366.768 275.881 366.597 276.35 366.256C276.841 365.915 277.086 365.477 277.086 364.944C277.086 364.368 276.788 363.941 276.19 363.664C275.614 363.365 274.686 363.045 273.406 362.704C272.084 362.384 270.996 362.053 270.142 361.712C269.31 361.371 268.585 360.848 267.966 360.144C267.369 359.44 267.07 358.491 267.07 357.296C267.07 356.315 267.348 355.419 267.902 354.608C268.478 353.797 269.289 353.157 270.334 352.688C271.401 352.219 272.649 351.984 274.078 351.984C276.19 351.984 277.876 352.517 279.134 353.584C280.393 354.629 281.086 356.048 281.214 357.84H276.926C276.862 357.136 276.564 356.581 276.03 356.176C275.518 355.749 274.825 355.536 273.95 355.536C273.14 355.536 272.51 355.685 272.062 355.984C271.636 356.283 271.422 356.699 271.422 357.232C271.422 357.829 271.721 358.288 272.318 358.608C272.916 358.907 273.844 359.216 275.102 359.536C276.382 359.856 277.438 360.187 278.27 360.528C279.102 360.869 279.817 361.403 280.414 362.128C281.033 362.832 281.353 363.771 281.374 364.944C281.374 365.968 281.086 366.885 280.51 367.696C279.956 368.507 279.145 369.147 278.078 369.616C277.033 370.064 275.806 370.288 274.398 370.288Z" fill="#19154E"/>
<rect x="21.75" y="25.8154" width="330.549" height="189.58" rx="24" fill="#2CA01C"/>
<path d="M168.328 98.9689C156.283 98.9689 146.516 108.657 146.516 120.605C146.516 132.553 156.265 142.223 168.328 142.223H171.444V134.197H168.328C160.766 134.197 154.625 128.106 154.625 120.605C154.625 113.104 160.766 107.012 168.328 107.012H175.817V149.037C175.817 153.466 179.444 157.062 183.908 157.062V98.9689H168.328ZM205.72 142.223C217.765 142.223 227.533 132.534 227.533 120.605C227.533 108.675 217.784 98.9869 205.72 98.9869H202.604V107.012H205.72C213.283 107.012 219.424 113.104 219.424 120.605C219.424 128.106 213.283 134.197 205.72 134.197H198.231V92.1726C198.231 87.7442 194.605 84.1472 190.14 84.1472V142.223H205.72Z" fill="white"/>
<defs>
<linearGradient id="paint0_linear_10093_2161" x1="187.018" y1="0.196777" x2="187.018" y2="1518.37" gradientUnits="userSpaceOnUse">
<stop stop-color="white"/>
<stop offset="1" stop-color="#2CA01C"/>
</linearGradient>
</defs>
</svg>
