<svg width="375" height="544" viewBox="0 0 375 544" fill="none" xmlns="http://www.w3.org/2000/svg">
<rect width="374.035" height="543.12" rx="12" fill="url(#paint0_linear_10_535)"/>
<path d="M63.4499 400.595C63.4499 401.514 63.2333 402.38 62.7999 403.195C62.3666 404.01 61.6733 404.677 60.7199 405.197C59.7666 405.7 58.5446 405.951 57.0539 405.951H53.7779V413.283H50.8139V395.213H57.0539C58.4406 395.213 59.6106 395.456 60.5639 395.941C61.5346 396.409 62.2539 397.05 62.7219 397.865C63.2073 398.68 63.4499 399.59 63.4499 400.595ZM57.0539 403.533C58.1806 403.533 59.0213 403.282 59.5759 402.779C60.1306 402.259 60.4079 401.531 60.4079 400.595C60.4079 398.619 59.2899 397.631 57.0539 397.631H53.7779V403.533H57.0539ZM69.2408 401.037C69.6741 400.309 70.2461 399.746 70.9568 399.347C71.6848 398.931 72.5428 398.723 73.5308 398.723V401.791H72.7768C71.6155 401.791 70.7315 402.086 70.1248 402.675C69.5355 403.264 69.2408 404.287 69.2408 405.743V413.283H66.2768V398.957H69.2408V401.037ZM82.4693 413.517C81.1173 413.517 79.8953 413.214 78.8033 412.607C77.7113 411.983 76.8533 411.116 76.2293 410.007C75.6053 408.88 75.2933 407.58 75.2933 406.107C75.2933 404.651 75.614 403.36 76.2553 402.233C76.8967 401.106 77.772 400.24 78.8813 399.633C79.9907 399.026 81.23 398.723 82.5993 398.723C83.9687 398.723 85.208 399.026 86.3173 399.633C87.4267 400.24 88.302 401.106 88.9433 402.233C89.5847 403.36 89.9053 404.651 89.9053 406.107C89.9053 407.563 89.576 408.854 88.9173 409.981C88.2587 411.108 87.3573 411.983 86.2133 412.607C85.0867 413.214 83.8387 413.517 82.4693 413.517ZM82.4693 410.943C83.232 410.943 83.9427 410.761 84.6013 410.397C85.2773 410.033 85.8233 409.487 86.2393 408.759C86.6553 408.031 86.8633 407.147 86.8633 406.107C86.8633 405.067 86.664 404.192 86.2653 403.481C85.8667 402.753 85.338 402.207 84.6793 401.843C84.0207 401.479 83.31 401.297 82.5473 401.297C81.7847 401.297 81.074 401.479 80.4153 401.843C79.774 402.207 79.2627 402.753 78.8813 403.481C78.5 404.192 78.3093 405.067 78.3093 406.107C78.3093 407.65 78.6993 408.846 79.4793 409.695C80.2767 410.527 81.2733 410.943 82.4693 410.943ZM94.3434 397.059C93.8061 397.059 93.3554 396.877 92.9914 396.513C92.6274 396.149 92.4454 395.698 92.4454 395.161C92.4454 394.624 92.6274 394.173 92.9914 393.809C93.3554 393.445 93.8061 393.263 94.3434 393.263C94.8634 393.263 95.3054 393.445 95.6694 393.809C96.0334 394.173 96.2154 394.624 96.2154 395.161C96.2154 395.698 96.0334 396.149 95.6694 396.513C95.3054 396.877 94.8634 397.059 94.3434 397.059ZM95.7994 416.091C95.7994 417.495 95.4441 418.509 94.7334 419.133C94.0401 419.774 93.0261 420.095 91.6914 420.095H90.1574V417.599H91.1714C91.7781 417.599 92.2027 417.478 92.4454 417.235C92.7054 417.01 92.8354 416.628 92.8354 416.091V398.957H95.7994V416.091ZM112.821 405.769C112.821 406.306 112.786 406.792 112.717 407.225H101.771C101.858 408.369 102.282 409.288 103.045 409.981C103.808 410.674 104.744 411.021 105.853 411.021C107.448 411.021 108.574 410.354 109.233 409.019H112.431C111.998 410.336 111.209 411.42 110.065 412.269C108.938 413.101 107.534 413.517 105.853 413.517C104.484 413.517 103.253 413.214 102.161 412.607C101.086 411.983 100.237 411.116 99.6129 410.007C99.0062 408.88 98.7029 407.58 98.7029 406.107C98.7029 404.634 98.9975 403.342 99.5869 402.233C100.194 401.106 101.034 400.24 102.109 399.633C103.201 399.026 104.449 398.723 105.853 398.723C107.205 398.723 108.41 399.018 109.467 399.607C110.524 400.196 111.348 401.028 111.937 402.103C112.526 403.16 112.821 404.382 112.821 405.769ZM109.727 404.833C109.71 403.741 109.32 402.866 108.557 402.207C107.794 401.548 106.85 401.219 105.723 401.219C104.7 401.219 103.825 401.548 103.097 402.207C102.369 402.848 101.936 403.724 101.797 404.833H109.727ZM114.75 406.107C114.75 404.634 115.044 403.342 115.634 402.233C116.24 401.106 117.072 400.24 118.13 399.633C119.187 399.026 120.4 398.723 121.77 398.723C123.503 398.723 124.933 399.139 126.06 399.971C127.204 400.786 127.975 401.956 128.374 403.481H125.176C124.916 402.77 124.5 402.216 123.928 401.817C123.356 401.418 122.636 401.219 121.77 401.219C120.556 401.219 119.586 401.652 118.858 402.519C118.147 403.368 117.792 404.564 117.792 406.107C117.792 407.65 118.147 408.854 118.858 409.721C119.586 410.588 120.556 411.021 121.77 411.021C123.486 411.021 124.621 410.267 125.176 408.759H128.374C127.958 410.215 127.178 411.376 126.034 412.243C124.89 413.092 123.468 413.517 121.77 413.517C120.4 413.517 119.187 413.214 118.13 412.607C117.072 411.983 116.24 411.116 115.634 410.007C115.044 408.88 114.75 407.58 114.75 406.107ZM134.786 401.375V409.305C134.786 409.842 134.907 410.232 135.15 410.475C135.41 410.7 135.843 410.813 136.45 410.813H138.27V413.283H135.93C134.595 413.283 133.572 412.971 132.862 412.347C132.151 411.723 131.796 410.709 131.796 409.305V401.375H130.106V398.957H131.796V395.395H134.786V398.957H138.27V401.375H134.786ZM166.787 395.213V413.283H163.823V400.907L158.311 413.283H156.257L150.719 400.907V413.283H147.755V395.213H150.953L157.297 409.383L163.615 395.213H166.787ZM169.695 406.055C169.695 404.616 169.99 403.342 170.579 402.233C171.186 401.124 172 400.266 173.023 399.659C174.063 399.035 175.207 398.723 176.455 398.723C177.582 398.723 178.561 398.948 179.393 399.399C180.242 399.832 180.918 400.378 181.421 401.037V398.957H184.411V413.283H181.421V411.151C180.918 411.827 180.234 412.39 179.367 412.841C178.5 413.292 177.512 413.517 176.403 413.517C175.172 413.517 174.046 413.205 173.023 412.581C172 411.94 171.186 411.056 170.579 409.929C169.99 408.785 169.695 407.494 169.695 406.055ZM181.421 406.107C181.421 405.119 181.213 404.261 180.797 403.533C180.398 402.805 179.87 402.25 179.211 401.869C178.552 401.488 177.842 401.297 177.079 401.297C176.316 401.297 175.606 401.488 174.947 401.869C174.288 402.233 173.751 402.779 173.335 403.507C172.936 404.218 172.737 405.067 172.737 406.055C172.737 407.043 172.936 407.91 173.335 408.655C173.751 409.4 174.288 409.972 174.947 410.371C175.623 410.752 176.334 410.943 177.079 410.943C177.842 410.943 178.552 410.752 179.211 410.371C179.87 409.99 180.398 409.435 180.797 408.707C181.213 407.962 181.421 407.095 181.421 406.107ZM195.532 398.723C196.659 398.723 197.664 398.957 198.548 399.425C199.449 399.893 200.151 400.586 200.654 401.505C201.157 402.424 201.408 403.533 201.408 404.833V413.283H198.47V405.275C198.47 403.992 198.149 403.013 197.508 402.337C196.867 401.644 195.991 401.297 194.882 401.297C193.773 401.297 192.889 401.644 192.23 402.337C191.589 403.013 191.268 403.992 191.268 405.275V413.283H188.304V398.957H191.268V400.595C191.753 400.006 192.369 399.546 193.114 399.217C193.877 398.888 194.683 398.723 195.532 398.723ZM204.201 406.055C204.201 404.616 204.496 403.342 205.085 402.233C205.692 401.124 206.506 400.266 207.529 399.659C208.569 399.035 209.713 398.723 210.961 398.723C212.088 398.723 213.067 398.948 213.899 399.399C214.748 399.832 215.424 400.378 215.927 401.037V398.957H218.917V413.283H215.927V411.151C215.424 411.827 214.74 412.39 213.873 412.841C213.006 413.292 212.018 413.517 210.909 413.517C209.678 413.517 208.552 413.205 207.529 412.581C206.506 411.94 205.692 411.056 205.085 409.929C204.496 408.785 204.201 407.494 204.201 406.055ZM215.927 406.107C215.927 405.119 215.719 404.261 215.303 403.533C214.904 402.805 214.376 402.25 213.717 401.869C213.058 401.488 212.348 401.297 211.585 401.297C210.822 401.297 210.112 401.488 209.453 401.869C208.794 402.233 208.257 402.779 207.841 403.507C207.442 404.218 207.243 405.067 207.243 406.055C207.243 407.043 207.442 407.91 207.841 408.655C208.257 409.4 208.794 409.972 209.453 410.371C210.129 410.752 210.84 410.943 211.585 410.943C212.348 410.943 213.058 410.752 213.717 410.371C214.376 409.99 214.904 409.435 215.303 408.707C215.719 407.962 215.927 407.095 215.927 406.107ZM228.582 398.723C229.691 398.723 230.671 398.948 231.52 399.399C232.387 399.832 233.063 400.378 233.548 401.037V398.957H236.538V413.517C236.538 414.834 236.261 416.004 235.706 417.027C235.151 418.067 234.345 418.882 233.288 419.471C232.248 420.06 231 420.355 229.544 420.355C227.603 420.355 225.991 419.896 224.708 418.977C223.425 418.076 222.697 416.845 222.524 415.285H225.462C225.687 416.03 226.164 416.628 226.892 417.079C227.637 417.547 228.521 417.781 229.544 417.781C230.74 417.781 231.702 417.417 232.43 416.689C233.175 415.961 233.548 414.904 233.548 413.517V411.125C233.045 411.801 232.361 412.373 231.494 412.841C230.645 413.292 229.674 413.517 228.582 413.517C227.334 413.517 226.19 413.205 225.15 412.581C224.127 411.94 223.313 411.056 222.706 409.929C222.117 408.785 221.822 407.494 221.822 406.055C221.822 404.616 222.117 403.342 222.706 402.233C223.313 401.124 224.127 400.266 225.15 399.659C226.19 399.035 227.334 398.723 228.582 398.723ZM233.548 406.107C233.548 405.119 233.34 404.261 232.924 403.533C232.525 402.805 231.997 402.25 231.338 401.869C230.679 401.488 229.969 401.297 229.206 401.297C228.443 401.297 227.733 401.488 227.074 401.869C226.415 402.233 225.878 402.779 225.462 403.507C225.063 404.218 224.864 405.067 224.864 406.055C224.864 407.043 225.063 407.91 225.462 408.655C225.878 409.4 226.415 409.972 227.074 410.371C227.75 410.752 228.461 410.943 229.206 410.943C229.969 410.943 230.679 410.752 231.338 410.371C231.997 409.99 232.525 409.435 232.924 408.707C233.34 407.962 233.548 407.095 233.548 406.107ZM253.561 405.769C253.561 406.306 253.526 406.792 253.457 407.225H242.511C242.598 408.369 243.022 409.288 243.785 409.981C244.548 410.674 245.484 411.021 246.593 411.021C248.188 411.021 249.314 410.354 249.973 409.019H253.171C252.738 410.336 251.949 411.42 250.805 412.269C249.678 413.101 248.274 413.517 246.593 413.517C245.224 413.517 243.993 413.214 242.901 412.607C241.826 411.983 240.977 411.116 240.353 410.007C239.746 408.88 239.443 407.58 239.443 406.107C239.443 404.634 239.738 403.342 240.327 402.233C240.934 401.106 241.774 400.24 242.849 399.633C243.941 399.026 245.189 398.723 246.593 398.723C247.945 398.723 249.15 399.018 250.207 399.607C251.264 400.196 252.088 401.028 252.677 402.103C253.266 403.16 253.561 404.382 253.561 405.769ZM250.467 404.833C250.45 403.741 250.06 402.866 249.297 402.207C248.534 401.548 247.59 401.219 246.463 401.219C245.44 401.219 244.565 401.548 243.837 402.207C243.109 402.848 242.676 403.724 242.537 404.833H250.467ZM273.82 398.723C274.947 398.723 275.952 398.957 276.836 399.425C277.737 399.893 278.439 400.586 278.942 401.505C279.462 402.424 279.722 403.533 279.722 404.833V413.283H276.784V405.275C276.784 403.992 276.463 403.013 275.822 402.337C275.181 401.644 274.305 401.297 273.196 401.297C272.087 401.297 271.203 401.644 270.544 402.337C269.903 403.013 269.582 403.992 269.582 405.275V413.283H266.644V405.275C266.644 403.992 266.323 403.013 265.682 402.337C265.041 401.644 264.165 401.297 263.056 401.297C261.947 401.297 261.063 401.644 260.404 402.337C259.763 403.013 259.442 403.992 259.442 405.275V413.283H256.478V398.957H259.442V400.595C259.927 400.006 260.543 399.546 261.288 399.217C262.033 398.888 262.831 398.723 263.68 398.723C264.824 398.723 265.847 398.966 266.748 399.451C267.649 399.936 268.343 400.638 268.828 401.557C269.261 400.69 269.937 400.006 270.856 399.503C271.775 398.983 272.763 398.723 273.82 398.723ZM296.624 405.769C296.624 406.306 296.589 406.792 296.52 407.225H285.574C285.66 408.369 286.085 409.288 286.848 409.981C287.61 410.674 288.546 411.021 289.656 411.021C291.25 411.021 292.377 410.354 293.036 409.019H296.234C295.8 410.336 295.012 411.42 293.868 412.269C292.741 413.101 291.337 413.517 289.656 413.517C288.286 413.517 287.056 413.214 285.964 412.607C284.889 411.983 284.04 411.116 283.416 410.007C282.809 408.88 282.506 407.58 282.506 406.107C282.506 404.634 282.8 403.342 283.39 402.233C283.996 401.106 284.837 400.24 285.912 399.633C287.004 399.026 288.252 398.723 289.656 398.723C291.008 398.723 292.212 399.018 293.27 399.607C294.327 400.196 295.15 401.028 295.74 402.103C296.329 403.16 296.624 404.382 296.624 405.769ZM293.53 404.833C293.512 403.741 293.122 402.866 292.36 402.207C291.597 401.548 290.652 401.219 289.526 401.219C288.503 401.219 287.628 401.548 286.9 402.207C286.172 402.848 285.738 403.724 285.6 404.833H293.53ZM306.768 398.723C307.895 398.723 308.9 398.957 309.784 399.425C310.686 399.893 311.388 400.586 311.89 401.505C312.393 402.424 312.644 403.533 312.644 404.833V413.283H309.706V405.275C309.706 403.992 309.386 403.013 308.744 402.337C308.103 401.644 307.228 401.297 306.118 401.297C305.009 401.297 304.125 401.644 303.466 402.337C302.825 403.013 302.504 403.992 302.504 405.275V413.283H299.54V398.957H302.504V400.595C302.99 400.006 303.605 399.546 304.35 399.217C305.113 398.888 305.919 398.723 306.768 398.723ZM319.883 401.375V409.305C319.883 409.842 320.005 410.232 320.247 410.475C320.507 410.7 320.941 410.813 321.547 410.813H323.367V413.283H321.027C319.693 413.283 318.67 412.971 317.959 412.347C317.249 411.723 316.893 410.709 316.893 409.305V401.375H315.203V398.957H316.893V395.395H319.883V398.957H323.367V401.375H319.883Z" fill="#595959"/>
<path d="M148.745 347.758V351.374H139.433V357.102H146.569V360.654H139.433V370.094H134.953V347.758H148.745ZM156.402 346.414V370.094H151.922V346.414H156.402ZM159.676 361.166C159.676 359.374 160.028 357.785 160.732 356.398C161.458 355.012 162.428 353.945 163.644 353.198C164.882 352.452 166.258 352.078 167.772 352.078C169.095 352.078 170.247 352.345 171.228 352.878C172.231 353.412 173.031 354.084 173.628 354.894V352.366H178.14V370.094H173.628V367.502C173.052 368.334 172.252 369.028 171.228 369.582C170.226 370.116 169.063 370.382 167.74 370.382C166.247 370.382 164.882 369.998 163.644 369.23C162.428 368.462 161.458 367.385 160.732 365.998C160.028 364.59 159.676 362.98 159.676 361.166ZM173.628 361.23C173.628 360.142 173.415 359.214 172.988 358.446C172.562 357.657 171.986 357.06 171.26 356.654C170.535 356.228 169.756 356.014 168.924 356.014C168.092 356.014 167.324 356.217 166.62 356.622C165.916 357.028 165.34 357.625 164.892 358.414C164.466 359.182 164.252 360.1 164.252 361.166C164.252 362.233 164.466 363.172 164.892 363.982C165.34 364.772 165.916 365.38 166.62 365.806C167.346 366.233 168.114 366.446 168.924 366.446C169.756 366.446 170.535 366.244 171.26 365.838C171.986 365.412 172.562 364.814 172.988 364.046C173.415 363.257 173.628 362.318 173.628 361.23ZM187.732 356.046V364.622C187.732 365.22 187.87 365.657 188.148 365.934C188.446 366.19 188.937 366.318 189.62 366.318H191.7V370.094H188.884C185.108 370.094 183.22 368.26 183.22 364.59V356.046H181.108V352.366H183.22V347.982H187.732V352.366H191.7V356.046H187.732ZM203.05 356.046H199.946V370.094H195.402V356.046H193.386V352.366H195.402V351.47C195.402 349.294 196.021 347.694 197.258 346.67C198.495 345.646 200.362 345.166 202.858 345.23V349.006C201.77 348.985 201.013 349.166 200.586 349.55C200.159 349.934 199.946 350.628 199.946 351.63V352.366H203.05V356.046ZM208.225 350.254C207.436 350.254 206.775 350.009 206.241 349.518C205.729 349.006 205.473 348.377 205.473 347.63C205.473 346.884 205.729 346.265 206.241 345.774C206.775 345.262 207.436 345.006 208.225 345.006C209.015 345.006 209.665 345.262 210.177 345.774C210.711 346.265 210.977 346.884 210.977 347.63C210.977 348.377 210.711 349.006 210.177 349.518C209.665 350.009 209.015 350.254 208.225 350.254ZM210.433 352.366V370.094H205.953V352.366H210.433ZM219.34 346.414V370.094H214.86V346.414H219.34ZM240.246 360.846C240.246 361.486 240.203 362.062 240.118 362.574H227.158C227.264 363.854 227.712 364.857 228.502 365.582C229.291 366.308 230.262 366.67 231.414 366.67C233.078 366.67 234.262 365.956 234.966 364.526H239.798C239.286 366.233 238.304 367.641 236.854 368.75C235.403 369.838 233.622 370.382 231.51 370.382C229.803 370.382 228.267 370.009 226.902 369.262C225.558 368.494 224.502 367.417 223.734 366.03C222.987 364.644 222.614 363.044 222.614 361.23C222.614 359.396 222.987 357.785 223.734 356.398C224.48 355.012 225.526 353.945 226.87 353.198C228.214 352.452 229.76 352.078 231.51 352.078C233.195 352.078 234.699 352.441 236.022 353.166C237.366 353.892 238.4 354.926 239.126 356.27C239.872 357.593 240.246 359.118 240.246 360.846ZM235.606 359.566C235.584 358.414 235.168 357.497 234.358 356.814C233.547 356.11 232.555 355.758 231.382 355.758C230.272 355.758 229.334 356.1 228.566 356.782C227.819 357.444 227.36 358.372 227.19 359.566H235.606Z" fill="#19154E"/>
<rect x="21.5203" y="25.619" width="330.549" height="189.58" rx="24" fill="#FEE4CB"/>
<g clip-path="url(#clip0_10_535)">
<path d="M162.129 125.674C160.911 126.89 159.49 127.497 157.663 127.497H151.575H142.847C141.426 127.497 140.411 127.092 139.6 126.08C138.788 125.269 138.179 124.257 138.179 122.839V100.154V77.2669C138.179 75.8491 138.788 74.8364 139.6 74.0262C140.411 73.216 141.629 72.6084 142.847 72.6084H156.446H170.247C171.668 72.6084 172.683 73.216 173.495 74.0262C174.307 74.8364 174.916 76.0516 174.916 77.2669V95.0906V110.484C174.916 112.104 174.307 113.724 173.089 114.737L167.812 120.003L162.129 125.674Z" fill="#3B2FC9"/>
<path d="M182.019 96.5084C180.802 95.2931 180.193 93.8753 180.193 92.255V85.9762V77.2669C180.193 75.8491 180.802 74.8364 181.613 74.0262C182.425 73.216 183.643 72.6084 184.861 72.6084H207.593H230.528C231.949 72.6084 232.964 73.216 233.775 74.0262C234.587 74.8364 235.196 76.0516 235.196 77.2669V90.8372V104.61C235.196 106.028 234.587 107.041 233.775 107.851C232.964 108.661 231.746 109.269 230.528 109.269H212.667H197.242C195.618 109.269 193.994 108.661 192.776 107.446L187.499 102.18L182.019 96.5084Z" fill="#3B2FC9"/>
<path d="M211.449 116.763C212.667 115.547 214.088 114.94 215.914 114.94H222.003H230.731C232.152 114.94 233.167 115.547 233.978 116.358C234.79 117.168 235.399 118.383 235.399 119.598V142.283V164.968C235.399 166.386 234.79 167.398 233.978 168.208C233.167 169.019 231.949 169.626 230.731 169.626H216.929H203.128C201.707 169.626 200.692 169.019 199.88 168.208C199.068 167.398 198.459 166.183 198.459 164.968V147.144V131.751C198.459 130.13 199.068 128.51 200.286 127.497L205.563 122.231L211.449 116.763Z" fill="#3B2FC9"/>
<path d="M191.356 145.929C192.574 147.144 193.182 148.562 193.182 150.385V156.461V165.17C193.182 166.588 192.574 167.601 191.762 168.411C190.95 169.221 189.732 169.829 188.514 169.829H165.782H142.847C141.426 169.829 140.411 169.221 139.6 168.411C138.788 167.601 138.179 166.386 138.179 165.17V151.6V137.827C138.179 136.409 138.788 135.397 139.6 134.586C140.411 133.776 141.629 133.169 142.847 133.169H160.708H176.133C177.757 133.169 179.381 133.776 180.396 134.991L185.673 140.258L191.356 145.929Z" fill="#3B2FC9"/>
</g>
<defs>
<linearGradient id="paint0_linear_10_535" x1="187.018" y1="0" x2="187.018" y2="1518.17" gradientUnits="userSpaceOnUse">
<stop stop-color="white"/>
<stop offset="1" stop-color="#FEE4CB"/>
</linearGradient>
<clipPath id="clip0_10_535">
<rect width="97.2203" height="97.2203" fill="white" transform="translate(138.179 72.6084)"/>
</clipPath>
</defs>
</svg>
