<svg width="375" height="544" viewBox="0 0 375 544" fill="none" xmlns="http://www.w3.org/2000/svg">
<rect width="374.035" height="543.12" rx="12" fill="url(#paint0_linear_10_488)"/>
<path d="M64.3596 403.5C64.3596 404.419 64.1429 405.286 63.7096 406.1C63.2763 406.915 62.5829 407.582 61.6296 408.102C60.6763 408.605 59.4543 408.856 57.9636 408.856H54.6876V416.188H51.7236V398.118H57.9636C59.3503 398.118 60.5203 398.361 61.4736 398.846C62.4443 399.314 63.1636 399.956 63.6316 400.77C64.1169 401.585 64.3596 402.495 64.3596 403.5ZM57.9636 406.438C59.0903 406.438 59.9309 406.187 60.4856 405.684C61.0403 405.164 61.3176 404.436 61.3176 403.5C61.3176 401.524 60.1996 400.536 57.9636 400.536H54.6876V406.438H57.9636ZM70.1505 403.942C70.5838 403.214 71.1558 402.651 71.8665 402.252C72.5945 401.836 73.4525 401.628 74.4405 401.628V404.696H73.6865C72.5251 404.696 71.6411 404.991 71.0345 405.58C70.4451 406.17 70.1505 407.192 70.1505 408.648V416.188H67.1865V401.862H70.1505V403.942ZM83.379 416.422C82.027 416.422 80.805 416.119 79.713 415.512C78.621 414.888 77.763 414.022 77.139 412.912C76.515 411.786 76.203 410.486 76.203 409.012C76.203 407.556 76.5237 406.265 77.165 405.138C77.8063 404.012 78.6817 403.145 79.791 402.538C80.9003 401.932 82.1397 401.628 83.509 401.628C84.8783 401.628 86.1177 401.932 87.227 402.538C88.3363 403.145 89.2117 404.012 89.853 405.138C90.4943 406.265 90.815 407.556 90.815 409.012C90.815 410.468 90.4857 411.76 89.827 412.886C89.1683 414.013 88.267 414.888 87.123 415.512C85.9963 416.119 84.7483 416.422 83.379 416.422ZM83.379 413.848C84.1417 413.848 84.8523 413.666 85.511 413.302C86.187 412.938 86.733 412.392 87.149 411.664C87.565 410.936 87.773 410.052 87.773 409.012C87.773 407.972 87.5737 407.097 87.175 406.386C86.7763 405.658 86.2477 405.112 85.589 404.748C84.9303 404.384 84.2197 404.202 83.457 404.202C82.6943 404.202 81.9837 404.384 81.325 404.748C80.6837 405.112 80.1723 405.658 79.791 406.386C79.4097 407.097 79.219 407.972 79.219 409.012C79.219 410.555 79.609 411.751 80.389 412.6C81.1863 413.432 82.183 413.848 83.379 413.848ZM95.2531 399.964C94.7157 399.964 94.2651 399.782 93.9011 399.418C93.5371 399.054 93.3551 398.604 93.3551 398.066C93.3551 397.529 93.5371 397.078 93.9011 396.714C94.2651 396.35 94.7157 396.168 95.2531 396.168C95.7731 396.168 96.2151 396.35 96.5791 396.714C96.9431 397.078 97.1251 397.529 97.1251 398.066C97.1251 398.604 96.9431 399.054 96.5791 399.418C96.2151 399.782 95.7731 399.964 95.2531 399.964ZM96.7091 418.996C96.7091 420.4 96.3537 421.414 95.6431 422.038C94.9497 422.68 93.9357 423 92.6011 423H91.0671V420.504H92.0811C92.6877 420.504 93.1124 420.383 93.3551 420.14C93.6151 419.915 93.7451 419.534 93.7451 418.996V401.862H96.7091V418.996ZM113.731 408.674C113.731 409.212 113.696 409.697 113.627 410.13H102.681C102.767 411.274 103.192 412.193 103.955 412.886C104.717 413.58 105.653 413.926 106.763 413.926C108.357 413.926 109.484 413.259 110.143 411.924H113.341C112.907 413.242 112.119 414.325 110.975 415.174C109.848 416.006 108.444 416.422 106.763 416.422C105.393 416.422 104.163 416.119 103.071 415.512C101.996 414.888 101.147 414.022 100.523 412.912C99.9159 411.786 99.6125 410.486 99.6125 409.012C99.6125 407.539 99.9072 406.248 100.497 405.138C101.103 404.012 101.944 403.145 103.019 402.538C104.111 401.932 105.359 401.628 106.763 401.628C108.115 401.628 109.319 401.923 110.377 402.512C111.434 403.102 112.257 403.934 112.847 405.008C113.436 406.066 113.731 407.288 113.731 408.674ZM110.637 407.738C110.619 406.646 110.229 405.771 109.467 405.112C108.704 404.454 107.759 404.124 106.633 404.124C105.61 404.124 104.735 404.454 104.007 405.112C103.279 405.754 102.845 406.629 102.707 407.738H110.637ZM115.659 409.012C115.659 407.539 115.954 406.248 116.543 405.138C117.15 404.012 117.982 403.145 119.039 402.538C120.097 401.932 121.31 401.628 122.679 401.628C124.413 401.628 125.843 402.044 126.969 402.876C128.113 403.691 128.885 404.861 129.283 406.386H126.085C125.825 405.676 125.409 405.121 124.837 404.722C124.265 404.324 123.546 404.124 122.679 404.124C121.466 404.124 120.495 404.558 119.767 405.424C119.057 406.274 118.701 407.47 118.701 409.012C118.701 410.555 119.057 411.76 119.767 412.626C120.495 413.493 121.466 413.926 122.679 413.926C124.395 413.926 125.531 413.172 126.085 411.664H129.283C128.867 413.12 128.087 414.282 126.943 415.148C125.799 415.998 124.378 416.422 122.679 416.422C121.31 416.422 120.097 416.119 119.039 415.512C117.982 414.888 117.15 414.022 116.543 412.912C115.954 411.786 115.659 410.486 115.659 409.012ZM135.695 404.28V412.21C135.695 412.748 135.817 413.138 136.059 413.38C136.319 413.606 136.753 413.718 137.359 413.718H139.179V416.188H136.839C135.505 416.188 134.482 415.876 133.771 415.252C133.061 414.628 132.705 413.614 132.705 412.21V404.28H131.015V401.862H132.705V398.3H135.695V401.862H139.179V404.28H135.695ZM167.697 398.118V416.188H164.733V403.812L159.221 416.188H157.167L151.629 403.812V416.188H148.665V398.118H151.863L158.207 412.288L164.525 398.118H167.697ZM170.605 408.96C170.605 407.522 170.899 406.248 171.489 405.138C172.095 404.029 172.91 403.171 173.933 402.564C174.973 401.94 176.117 401.628 177.365 401.628C178.491 401.628 179.471 401.854 180.303 402.304C181.152 402.738 181.828 403.284 182.331 403.942V401.862H185.321V416.188H182.331V414.056C181.828 414.732 181.143 415.296 180.277 415.746C179.41 416.197 178.422 416.422 177.313 416.422C176.082 416.422 174.955 416.11 173.933 415.486C172.91 414.845 172.095 413.961 171.489 412.834C170.899 411.69 170.605 410.399 170.605 408.96ZM182.331 409.012C182.331 408.024 182.123 407.166 181.707 406.438C181.308 405.71 180.779 405.156 180.121 404.774C179.462 404.393 178.751 404.202 177.989 404.202C177.226 404.202 176.515 404.393 175.857 404.774C175.198 405.138 174.661 405.684 174.245 406.412C173.846 407.123 173.647 407.972 173.647 408.96C173.647 409.948 173.846 410.815 174.245 411.56C174.661 412.306 175.198 412.878 175.857 413.276C176.533 413.658 177.243 413.848 177.989 413.848C178.751 413.848 179.462 413.658 180.121 413.276C180.779 412.895 181.308 412.34 181.707 411.612C182.123 410.867 182.331 410 182.331 409.012ZM196.442 401.628C197.568 401.628 198.574 401.862 199.458 402.33C200.359 402.798 201.061 403.492 201.564 404.41C202.066 405.329 202.318 406.438 202.318 407.738V416.188H199.38V408.18C199.38 406.898 199.059 405.918 198.418 405.242C197.776 404.549 196.901 404.202 195.792 404.202C194.682 404.202 193.798 404.549 193.14 405.242C192.498 405.918 192.178 406.898 192.178 408.18V416.188H189.214V401.862H192.178V403.5C192.663 402.911 193.278 402.452 194.024 402.122C194.786 401.793 195.592 401.628 196.442 401.628ZM205.111 408.96C205.111 407.522 205.405 406.248 205.995 405.138C206.601 404.029 207.416 403.171 208.439 402.564C209.479 401.94 210.623 401.628 211.871 401.628C212.997 401.628 213.977 401.854 214.809 402.304C215.658 402.738 216.334 403.284 216.837 403.942V401.862H219.827V416.188H216.837V414.056C216.334 414.732 215.649 415.296 214.783 415.746C213.916 416.197 212.928 416.422 211.819 416.422C210.588 416.422 209.461 416.11 208.439 415.486C207.416 414.845 206.601 413.961 205.995 412.834C205.405 411.69 205.111 410.399 205.111 408.96ZM216.837 409.012C216.837 408.024 216.629 407.166 216.213 406.438C215.814 405.71 215.285 405.156 214.627 404.774C213.968 404.393 213.257 404.202 212.495 404.202C211.732 404.202 211.021 404.393 210.363 404.774C209.704 405.138 209.167 405.684 208.751 406.412C208.352 407.123 208.153 407.972 208.153 408.96C208.153 409.948 208.352 410.815 208.751 411.56C209.167 412.306 209.704 412.878 210.363 413.276C211.039 413.658 211.749 413.848 212.495 413.848C213.257 413.848 213.968 413.658 214.627 413.276C215.285 412.895 215.814 412.34 216.213 411.612C216.629 410.867 216.837 410 216.837 409.012ZM229.492 401.628C230.601 401.628 231.58 401.854 232.43 402.304C233.296 402.738 233.972 403.284 234.458 403.942V401.862H237.448V416.422C237.448 417.74 237.17 418.91 236.616 419.932C236.061 420.972 235.255 421.787 234.198 422.376C233.158 422.966 231.91 423.26 230.454 423.26C228.512 423.26 226.9 422.801 225.618 421.882C224.335 420.981 223.607 419.75 223.434 418.19H226.372C226.597 418.936 227.074 419.534 227.802 419.984C228.547 420.452 229.431 420.686 230.454 420.686C231.65 420.686 232.612 420.322 233.34 419.594C234.085 418.866 234.458 417.809 234.458 416.422V414.03C233.955 414.706 233.27 415.278 232.404 415.746C231.554 416.197 230.584 416.422 229.492 416.422C228.244 416.422 227.1 416.11 226.06 415.486C225.037 414.845 224.222 413.961 223.616 412.834C223.026 411.69 222.732 410.399 222.732 408.96C222.732 407.522 223.026 406.248 223.616 405.138C224.222 404.029 225.037 403.171 226.06 402.564C227.1 401.94 228.244 401.628 229.492 401.628ZM234.458 409.012C234.458 408.024 234.25 407.166 233.834 406.438C233.435 405.71 232.906 405.156 232.248 404.774C231.589 404.393 230.878 404.202 230.116 404.202C229.353 404.202 228.642 404.393 227.984 404.774C227.325 405.138 226.788 405.684 226.372 406.412C225.973 407.123 225.774 407.972 225.774 408.96C225.774 409.948 225.973 410.815 226.372 411.56C226.788 412.306 227.325 412.878 227.984 413.276C228.66 413.658 229.37 413.848 230.116 413.848C230.878 413.848 231.589 413.658 232.248 413.276C232.906 412.895 233.435 412.34 233.834 411.612C234.25 410.867 234.458 410 234.458 409.012ZM254.471 408.674C254.471 409.212 254.436 409.697 254.367 410.13H243.421C243.507 411.274 243.932 412.193 244.695 412.886C245.457 413.58 246.393 413.926 247.503 413.926C249.097 413.926 250.224 413.259 250.883 411.924H254.081C253.647 413.242 252.859 414.325 251.715 415.174C250.588 416.006 249.184 416.422 247.503 416.422C246.133 416.422 244.903 416.119 243.811 415.512C242.736 414.888 241.887 414.022 241.263 412.912C240.656 411.786 240.353 410.486 240.353 409.012C240.353 407.539 240.647 406.248 241.237 405.138C241.843 404.012 242.684 403.145 243.759 402.538C244.851 401.932 246.099 401.628 247.503 401.628C248.855 401.628 250.059 401.923 251.117 402.512C252.174 403.102 252.997 403.934 253.587 405.008C254.176 406.066 254.471 407.288 254.471 408.674ZM251.377 407.738C251.359 406.646 250.969 405.771 250.207 405.112C249.444 404.454 248.499 404.124 247.373 404.124C246.35 404.124 245.475 404.454 244.747 405.112C244.019 405.754 243.585 406.629 243.447 407.738H251.377ZM274.73 401.628C275.856 401.628 276.862 401.862 277.746 402.33C278.647 402.798 279.349 403.492 279.852 404.41C280.372 405.329 280.632 406.438 280.632 407.738V416.188H277.694V408.18C277.694 406.898 277.373 405.918 276.732 405.242C276.09 404.549 275.215 404.202 274.106 404.202C272.996 404.202 272.112 404.549 271.454 405.242C270.812 405.918 270.492 406.898 270.492 408.18V416.188H267.554V408.18C267.554 406.898 267.233 405.918 266.592 405.242C265.95 404.549 265.075 404.202 263.966 404.202C262.856 404.202 261.972 404.549 261.314 405.242C260.672 405.918 260.352 406.898 260.352 408.18V416.188H257.388V401.862H260.352V403.5C260.837 402.911 261.452 402.452 262.198 402.122C262.943 401.793 263.74 401.628 264.59 401.628C265.734 401.628 266.756 401.871 267.658 402.356C268.559 402.842 269.252 403.544 269.738 404.462C270.171 403.596 270.847 402.911 271.766 402.408C272.684 401.888 273.672 401.628 274.73 401.628ZM297.533 408.674C297.533 409.212 297.499 409.697 297.429 410.13H286.483C286.57 411.274 286.995 412.193 287.757 412.886C288.52 413.58 289.456 413.926 290.565 413.926C292.16 413.926 293.287 413.259 293.945 411.924H297.143C296.71 413.242 295.921 414.325 294.777 415.174C293.651 416.006 292.247 416.422 290.565 416.422C289.196 416.422 287.965 416.119 286.873 415.512C285.799 414.888 284.949 414.022 284.325 412.912C283.719 411.786 283.415 410.486 283.415 409.012C283.415 407.539 283.71 406.248 284.299 405.138C284.906 404.012 285.747 403.145 286.821 402.538C287.913 401.932 289.161 401.628 290.565 401.628C291.917 401.628 293.122 401.923 294.179 402.512C295.237 403.102 296.06 403.934 296.649 405.008C297.239 406.066 297.533 407.288 297.533 408.674ZM294.439 407.738C294.422 406.646 294.032 405.771 293.269 405.112C292.507 404.454 291.562 404.124 290.435 404.124C289.413 404.124 288.537 404.454 287.809 405.112C287.081 405.754 286.648 406.629 286.509 407.738H294.439ZM307.678 401.628C308.805 401.628 309.81 401.862 310.694 402.33C311.595 402.798 312.297 403.492 312.8 404.41C313.303 405.329 313.554 406.438 313.554 407.738V416.188H310.616V408.18C310.616 406.898 310.295 405.918 309.654 405.242C309.013 404.549 308.137 404.202 307.028 404.202C305.919 404.202 305.035 404.549 304.376 405.242C303.735 405.918 303.414 406.898 303.414 408.18V416.188H300.45V401.862H303.414V403.5C303.899 402.911 304.515 402.452 305.26 402.122C306.023 401.793 306.829 401.628 307.678 401.628ZM320.793 404.28V412.21C320.793 412.748 320.914 413.138 321.157 413.38C321.417 413.606 321.85 413.718 322.457 413.718H324.277V416.188H321.937C320.602 416.188 319.58 415.876 318.869 415.252C318.158 414.628 317.803 413.614 317.803 412.21V404.28H316.113V401.862H317.803V398.3H320.793V401.862H324.277V404.28H320.793Z" fill="#595959"/>
<path d="M117.889 361.8C117.889 359.603 118.379 357.64 119.361 355.912C120.363 354.163 121.718 352.808 123.425 351.848C125.153 350.867 127.083 350.376 129.217 350.376C131.713 350.376 133.899 351.016 135.777 352.296C137.654 353.576 138.966 355.347 139.713 357.608H134.561C134.049 356.541 133.323 355.741 132.385 355.208C131.467 354.675 130.401 354.408 129.185 354.408C127.883 354.408 126.721 354.717 125.697 355.336C124.694 355.933 123.905 356.787 123.329 357.896C122.774 359.005 122.497 360.307 122.497 361.8C122.497 363.272 122.774 364.573 123.329 365.704C123.905 366.813 124.694 367.677 125.697 368.296C126.721 368.893 127.883 369.192 129.185 369.192C130.401 369.192 131.467 368.925 132.385 368.392C133.323 367.837 134.049 367.027 134.561 365.96H139.713C138.966 368.243 137.654 370.024 135.777 371.304C133.921 372.563 131.734 373.192 129.217 373.192C127.083 373.192 125.153 372.712 123.425 371.752C121.718 370.771 120.363 369.416 119.361 367.688C118.379 365.96 117.889 363.997 117.889 361.8ZM153.523 355.016C154.867 355.016 156.062 355.315 157.107 355.912C158.152 356.488 158.963 357.352 159.539 358.504C160.136 359.635 160.435 361 160.435 362.6V373H155.955V363.208C155.955 361.8 155.603 360.723 154.899 359.976C154.195 359.208 153.235 358.824 152.019 358.824C150.782 358.824 149.8 359.208 149.075 359.976C148.371 360.723 148.019 361.8 148.019 363.208V373H143.539V349.32H148.019V357.48C148.595 356.712 149.363 356.115 150.323 355.688C151.283 355.24 152.35 355.016 153.523 355.016ZM163.543 364.072C163.543 362.28 163.895 360.691 164.599 359.304C165.325 357.917 166.295 356.851 167.511 356.104C168.749 355.357 170.125 354.984 171.639 354.984C172.962 354.984 174.114 355.251 175.095 355.784C176.098 356.317 176.898 356.989 177.495 357.8V355.272H182.007V373H177.495V370.408C176.919 371.24 176.119 371.933 175.095 372.488C174.093 373.021 172.93 373.288 171.607 373.288C170.114 373.288 168.749 372.904 167.511 372.136C166.295 371.368 165.325 370.291 164.599 368.904C163.895 367.496 163.543 365.885 163.543 364.072ZM177.495 364.136C177.495 363.048 177.282 362.12 176.855 361.352C176.429 360.563 175.853 359.965 175.127 359.56C174.402 359.133 173.623 358.92 172.791 358.92C171.959 358.92 171.191 359.123 170.487 359.528C169.783 359.933 169.207 360.531 168.759 361.32C168.333 362.088 168.119 363.005 168.119 364.072C168.119 365.139 168.333 366.077 168.759 366.888C169.207 367.677 169.783 368.285 170.487 368.712C171.213 369.139 171.981 369.352 172.791 369.352C173.623 369.352 174.402 369.149 175.127 368.744C175.853 368.317 176.429 367.72 176.855 366.952C177.282 366.163 177.495 365.224 177.495 364.136ZM191.599 358.952V367.528C191.599 368.125 191.737 368.563 192.015 368.84C192.313 369.096 192.804 369.224 193.487 369.224H195.567V373H192.751C188.975 373 187.087 371.165 187.087 367.496V358.952H184.975V355.272H187.087V350.888H191.599V355.272H195.567V358.952H191.599ZM214.341 357.384C213.829 356.445 213.125 355.731 212.229 355.24C211.333 354.749 210.288 354.504 209.093 354.504C207.77 354.504 206.597 354.803 205.573 355.4C204.549 355.997 203.749 356.851 203.173 357.96C202.597 359.069 202.309 360.349 202.309 361.8C202.309 363.293 202.597 364.595 203.173 365.704C203.77 366.813 204.592 367.667 205.637 368.264C206.682 368.861 207.898 369.16 209.285 369.16C210.992 369.16 212.389 368.712 213.477 367.816C214.565 366.899 215.28 365.629 215.621 364.008H207.941V360.584H220.037V364.488C219.738 366.045 219.098 367.485 218.117 368.808C217.136 370.131 215.866 371.197 214.309 372.008C212.773 372.797 211.045 373.192 209.125 373.192C206.97 373.192 205.018 372.712 203.269 371.752C201.541 370.771 200.176 369.416 199.173 367.688C198.192 365.96 197.701 363.997 197.701 361.8C197.701 359.603 198.192 357.64 199.173 355.912C200.176 354.163 201.541 352.808 203.269 351.848C205.018 350.867 206.96 350.376 209.093 350.376C211.61 350.376 213.797 350.995 215.653 352.232C217.509 353.448 218.789 355.165 219.493 357.384H214.341ZM239.64 357.576C239.64 358.771 239.352 359.891 238.776 360.936C238.221 361.981 237.336 362.824 236.12 363.464C234.925 364.104 233.41 364.424 231.576 364.424H227.832V373H223.352V350.664H231.576C233.304 350.664 234.776 350.963 235.992 351.56C237.208 352.157 238.114 352.979 238.712 354.024C239.33 355.069 239.64 356.253 239.64 357.576ZM231.384 360.808C232.621 360.808 233.538 360.531 234.136 359.976C234.733 359.4 235.032 358.6 235.032 357.576C235.032 355.4 233.816 354.312 231.384 354.312H227.832V360.808H231.384ZM258.02 350.664V354.28H252.068V373H247.588V354.28H241.636V350.664H258.02Z" fill="#19154E"/>
<rect x="21.5127" y="25.6194" width="330.549" height="189.58" rx="24" fill="#10A37F"/>
<g clip-path="url(#clip0_10_488)">
<path d="M220.424 64.5073H153.161C140.414 64.5073 130.081 74.9257 130.081 87.7774V154.661C130.081 167.513 140.414 177.931 153.161 177.931H220.424C233.171 177.931 243.505 167.513 243.505 154.661V87.7774C243.505 74.9257 233.171 64.5073 220.424 64.5073Z" fill="#10A37F"/>
<path d="M226.074 111.735C226.864 109.309 227.267 106.768 227.268 104.212C227.267 99.9806 226.164 95.826 224.071 92.1749C219.864 84.6974 212.062 80.0809 203.618 80.0809C201.954 80.0809 200.295 80.2603 198.668 80.6162C196.48 78.0985 193.795 76.0831 190.788 74.7029C187.782 73.3227 184.523 72.6091 181.227 72.609H181.079L181.024 72.6093C170.796 72.6093 161.726 79.3496 158.582 89.2862C155.327 89.967 152.253 91.35 149.564 93.3426C146.875 95.3352 144.634 97.8915 142.991 100.84C140.904 104.513 139.804 108.684 139.803 112.931C139.804 118.899 141.973 124.655 145.89 129.083C145.099 131.509 144.696 134.05 144.696 136.606C144.696 140.837 145.8 144.992 147.893 148.643C150.382 153.069 154.183 156.574 158.749 158.651C163.314 160.729 168.407 161.271 173.294 160.201C175.482 162.719 178.168 164.735 181.175 166.115C184.181 167.495 187.44 168.209 190.736 168.209H190.884L190.944 168.209C201.178 168.209 210.245 161.468 213.389 151.522C216.644 150.841 219.718 149.458 222.407 147.466C225.096 145.473 227.337 142.917 228.98 139.968C231.065 136.298 232.163 132.131 232.162 127.888C232.161 121.92 229.991 116.163 226.074 111.735ZM190.89 161.959H190.866C186.771 161.958 182.806 160.491 179.661 157.813C179.848 157.71 180.033 157.603 180.215 157.492L198.853 146.497C199.318 146.227 199.704 145.836 199.973 145.363C200.243 144.891 200.384 144.354 200.385 143.807V116.953L208.262 121.599C208.304 121.62 208.339 121.651 208.366 121.69C208.393 121.728 208.41 121.773 208.416 121.82V144.043C208.405 153.924 200.565 161.939 190.89 161.959ZM153.201 145.519C151.662 142.8 150.851 139.716 150.85 136.575C150.85 135.551 150.937 134.524 151.108 133.515C151.246 133.599 151.488 133.75 151.662 133.852L170.3 144.847C170.764 145.124 171.293 145.27 171.831 145.27C172.369 145.27 172.897 145.124 173.362 144.846L196.116 131.428V140.719L196.117 140.735C196.117 140.78 196.106 140.824 196.087 140.864C196.067 140.904 196.039 140.939 196.004 140.966L177.163 152.076C174.497 153.643 171.475 154.468 168.399 154.469C165.32 154.468 162.295 153.641 159.628 152.07C156.96 150.499 154.744 148.241 153.201 145.519ZM148.298 103.964C150.345 100.333 153.577 97.5525 157.429 96.1096C157.429 96.2735 157.42 96.5638 157.42 96.7654V118.756L157.42 118.774C157.42 119.32 157.561 119.856 157.83 120.328C158.099 120.8 158.485 121.191 158.949 121.462L181.704 134.878L173.827 139.524C173.788 139.55 173.743 139.566 173.697 139.57C173.65 139.575 173.604 139.567 173.561 139.549L154.718 128.429C152.054 126.853 149.843 124.59 148.305 121.866C146.768 119.142 145.959 116.053 145.958 112.909C145.959 109.77 146.766 106.685 148.298 103.964ZM213.021 119.347L190.267 105.928L198.144 101.285C198.183 101.258 198.228 101.242 198.274 101.238C198.321 101.234 198.367 101.241 198.41 101.26L217.253 112.37C219.919 113.943 222.132 116.206 223.672 118.929C225.211 121.653 226.022 124.742 226.022 127.887C226.022 135.393 221.436 142.109 214.541 144.701V122.053C214.542 122.045 214.542 122.036 214.542 122.028C214.542 121.484 214.401 120.95 214.134 120.479C213.867 120.008 213.483 119.618 213.021 119.347ZM220.862 107.294C220.679 107.18 220.494 107.067 220.309 106.957L201.671 95.9621C201.206 95.6855 200.678 95.5397 200.14 95.5395C199.602 95.5397 199.074 95.6855 198.609 95.9621L175.854 109.381V100.089L175.854 100.073C175.854 99.9825 175.896 99.8971 175.967 99.8427L194.808 88.7419C197.473 87.1727 200.495 86.3466 203.571 86.3465C213.259 86.3465 221.115 94.37 221.115 104.264C221.115 105.279 221.03 106.294 220.862 107.294ZM171.571 123.855L163.692 119.209C163.651 119.188 163.615 119.157 163.588 119.119C163.562 119.08 163.545 119.036 163.539 118.989V96.7648C163.543 86.8762 171.399 78.8593 181.082 78.8593C185.184 78.8602 189.155 80.3275 192.307 83.0066C192.166 83.0857 191.918 83.2252 191.754 83.327L173.116 94.322C172.651 94.5922 172.264 94.9833 171.995 95.4557C171.726 95.928 171.585 96.4646 171.584 97.0111V97.0288L171.571 123.855ZM175.851 114.432L185.985 108.454L196.12 114.428V126.38L185.985 132.355L175.851 126.38V114.432Z" fill="white"/>
</g>
<defs>
<linearGradient id="paint0_linear_10_488" x1="187.018" y1="0" x2="187.018" y2="1518.17" gradientUnits="userSpaceOnUse">
<stop stop-color="white"/>
<stop offset="1" stop-color="#10A37F"/>
</linearGradient>
<clipPath id="clip0_10_488">
<rect width="113.424" height="113.424" fill="white" transform="translate(130.081 64.5073)"/>
</clipPath>
</defs>
</svg>
