<svg width="375" height="544" viewBox="0 0 375 544" fill="none" xmlns="http://www.w3.org/2000/svg">
<rect width="374.035" height="543.12" rx="12" fill="url(#paint0_linear_10_560)"/>
<path d="M63.4504 400.595C63.4504 401.514 63.2337 402.381 62.8004 403.195C62.3671 404.01 61.6737 404.677 60.7204 405.197C59.7671 405.7 58.5451 405.951 57.0544 405.951H53.7784V413.283H50.8144V395.213H57.0544C58.4411 395.213 59.6111 395.456 60.5644 395.941C61.5351 396.409 62.2544 397.051 62.7224 397.865C63.2077 398.68 63.4504 399.59 63.4504 400.595ZM57.0544 403.533C58.1811 403.533 59.0217 403.282 59.5764 402.779C60.1311 402.259 60.4084 401.531 60.4084 400.595C60.4084 398.619 59.2904 397.631 57.0544 397.631H53.7784V403.533H57.0544ZM69.2413 401.037C69.6746 400.309 70.2466 399.746 70.9573 399.347C71.6853 398.931 72.5433 398.723 73.5313 398.723V401.791H72.7773C71.616 401.791 70.732 402.086 70.1253 402.675C69.536 403.265 69.2413 404.287 69.2413 405.743V413.283H66.2773V398.957H69.2413V401.037ZM82.4698 413.517C81.1178 413.517 79.8958 413.214 78.8038 412.607C77.7118 411.983 76.8538 411.117 76.2298 410.007C75.6058 408.881 75.2938 407.581 75.2938 406.107C75.2938 404.651 75.6145 403.36 76.2558 402.233C76.8972 401.107 77.7725 400.24 78.8818 399.633C79.9912 399.027 81.2305 398.723 82.5998 398.723C83.9692 398.723 85.2085 399.027 86.3178 399.633C87.4272 400.24 88.3025 401.107 88.9438 402.233C89.5852 403.36 89.9058 404.651 89.9058 406.107C89.9058 407.563 89.5765 408.855 88.9178 409.981C88.2592 411.108 87.3578 411.983 86.2138 412.607C85.0872 413.214 83.8392 413.517 82.4698 413.517ZM82.4698 410.943C83.2325 410.943 83.9432 410.761 84.6018 410.397C85.2778 410.033 85.8238 409.487 86.2398 408.759C86.6558 408.031 86.8638 407.147 86.8638 406.107C86.8638 405.067 86.6645 404.192 86.2658 403.481C85.8672 402.753 85.3385 402.207 84.6798 401.843C84.0212 401.479 83.3105 401.297 82.5478 401.297C81.7852 401.297 81.0745 401.479 80.4158 401.843C79.7745 402.207 79.2632 402.753 78.8818 403.481C78.5005 404.192 78.3098 405.067 78.3098 406.107C78.3098 407.65 78.6998 408.846 79.4798 409.695C80.2772 410.527 81.2738 410.943 82.4698 410.943ZM94.3439 397.059C93.8066 397.059 93.3559 396.877 92.9919 396.513C92.6279 396.149 92.4459 395.699 92.4459 395.161C92.4459 394.624 92.6279 394.173 92.9919 393.809C93.3559 393.445 93.8066 393.263 94.3439 393.263C94.8639 393.263 95.3059 393.445 95.6699 393.809C96.0339 394.173 96.2159 394.624 96.2159 395.161C96.2159 395.699 96.0339 396.149 95.6699 396.513C95.3059 396.877 94.8639 397.059 94.3439 397.059ZM95.7999 416.091C95.7999 417.495 95.4446 418.509 94.7339 419.133C94.0406 419.775 93.0266 420.095 91.6919 420.095H90.1579V417.599H91.1719C91.7786 417.599 92.2032 417.478 92.4459 417.235C92.7059 417.01 92.8359 416.629 92.8359 416.091V398.957H95.7999V416.091ZM112.821 405.769C112.821 406.307 112.787 406.792 112.717 407.225H101.771C101.858 408.369 102.283 409.288 103.045 409.981C103.808 410.675 104.744 411.021 105.853 411.021C107.448 411.021 108.575 410.354 109.233 409.019H112.431C111.998 410.337 111.209 411.42 110.065 412.269C108.939 413.101 107.535 413.517 105.853 413.517C104.484 413.517 103.253 413.214 102.161 412.607C101.087 411.983 100.237 411.117 99.6134 410.007C99.0067 408.881 98.7034 407.581 98.7034 406.107C98.7034 404.634 98.998 403.343 99.5874 402.233C100.194 401.107 101.035 400.24 102.109 399.633C103.201 399.027 104.449 398.723 105.853 398.723C107.205 398.723 108.41 399.018 109.467 399.607C110.525 400.197 111.348 401.029 111.937 402.103C112.527 403.161 112.821 404.383 112.821 405.769ZM109.727 404.833C109.71 403.741 109.32 402.866 108.557 402.207C107.795 401.549 106.85 401.219 105.723 401.219C104.701 401.219 103.825 401.549 103.097 402.207C102.369 402.849 101.936 403.724 101.797 404.833H109.727ZM114.75 406.107C114.75 404.634 115.045 403.343 115.634 402.233C116.241 401.107 117.073 400.24 118.13 399.633C119.188 399.027 120.401 398.723 121.77 398.723C123.504 398.723 124.934 399.139 126.06 399.971C127.204 400.786 127.976 401.956 128.374 403.481H125.176C124.916 402.771 124.5 402.216 123.928 401.817C123.356 401.419 122.637 401.219 121.77 401.219C120.557 401.219 119.586 401.653 118.858 402.519C118.148 403.369 117.792 404.565 117.792 406.107C117.792 407.65 118.148 408.855 118.858 409.721C119.586 410.588 120.557 411.021 121.77 411.021C123.486 411.021 124.622 410.267 125.176 408.759H128.374C127.958 410.215 127.178 411.377 126.034 412.243C124.89 413.093 123.469 413.517 121.77 413.517C120.401 413.517 119.188 413.214 118.13 412.607C117.073 411.983 116.241 411.117 115.634 410.007C115.045 408.881 114.75 407.581 114.75 406.107ZM134.786 401.375V409.305C134.786 409.843 134.907 410.233 135.15 410.475C135.41 410.701 135.843 410.813 136.45 410.813H138.27V413.283H135.93C134.595 413.283 133.573 412.971 132.862 412.347C132.151 411.723 131.796 410.709 131.796 409.305V401.375H130.106V398.957H131.796V395.395H134.786V398.957H138.27V401.375H134.786ZM166.788 395.213V413.283H163.824V400.907L158.312 413.283H156.258L150.72 400.907V413.283H147.756V395.213H150.954L157.298 409.383L163.616 395.213H166.788ZM169.696 406.055C169.696 404.617 169.99 403.343 170.58 402.233C171.186 401.124 172.001 400.266 173.024 399.659C174.064 399.035 175.208 398.723 176.456 398.723C177.582 398.723 178.562 398.949 179.394 399.399C180.243 399.833 180.919 400.379 181.422 401.037V398.957H184.412V413.283H181.422V411.151C180.919 411.827 180.234 412.391 179.368 412.841C178.501 413.292 177.513 413.517 176.404 413.517C175.173 413.517 174.046 413.205 173.024 412.581C172.001 411.94 171.186 411.056 170.58 409.929C169.99 408.785 169.696 407.494 169.696 406.055ZM181.422 406.107C181.422 405.119 181.214 404.261 180.798 403.533C180.399 402.805 179.87 402.251 179.212 401.869C178.553 401.488 177.842 401.297 177.08 401.297C176.317 401.297 175.606 401.488 174.948 401.869C174.289 402.233 173.752 402.779 173.336 403.507C172.937 404.218 172.738 405.067 172.738 406.055C172.738 407.043 172.937 407.91 173.336 408.655C173.752 409.401 174.289 409.973 174.948 410.371C175.624 410.753 176.334 410.943 177.08 410.943C177.842 410.943 178.553 410.753 179.212 410.371C179.87 409.99 180.399 409.435 180.798 408.707C181.214 407.962 181.422 407.095 181.422 406.107ZM195.533 398.723C196.659 398.723 197.665 398.957 198.549 399.425C199.45 399.893 200.152 400.587 200.655 401.505C201.157 402.424 201.409 403.533 201.409 404.833V413.283H198.471V405.275C198.471 403.993 198.15 403.013 197.509 402.337C196.867 401.644 195.992 401.297 194.883 401.297C193.773 401.297 192.889 401.644 192.231 402.337C191.589 403.013 191.269 403.993 191.269 405.275V413.283H188.305V398.957H191.269V400.595C191.754 400.006 192.369 399.547 193.115 399.217C193.877 398.888 194.683 398.723 195.533 398.723ZM204.201 406.055C204.201 404.617 204.496 403.343 205.085 402.233C205.692 401.124 206.507 400.266 207.529 399.659C208.569 399.035 209.713 398.723 210.961 398.723C212.088 398.723 213.067 398.949 213.899 399.399C214.749 399.833 215.425 400.379 215.927 401.037V398.957H218.917V413.283H215.927V411.151C215.425 411.827 214.74 412.391 213.873 412.841C213.007 413.292 212.019 413.517 210.909 413.517C209.679 413.517 208.552 413.205 207.529 412.581C206.507 411.94 205.692 411.056 205.085 409.929C204.496 408.785 204.201 407.494 204.201 406.055ZM215.927 406.107C215.927 405.119 215.719 404.261 215.303 403.533C214.905 402.805 214.376 402.251 213.717 401.869C213.059 401.488 212.348 401.297 211.585 401.297C210.823 401.297 210.112 401.488 209.453 401.869C208.795 402.233 208.257 402.779 207.841 403.507C207.443 404.218 207.243 405.067 207.243 406.055C207.243 407.043 207.443 407.91 207.841 408.655C208.257 409.401 208.795 409.973 209.453 410.371C210.129 410.753 210.84 410.943 211.585 410.943C212.348 410.943 213.059 410.753 213.717 410.371C214.376 409.99 214.905 409.435 215.303 408.707C215.719 407.962 215.927 407.095 215.927 406.107ZM228.583 398.723C229.692 398.723 230.671 398.949 231.521 399.399C232.387 399.833 233.063 400.379 233.549 401.037V398.957H236.539V413.517C236.539 414.835 236.261 416.005 235.707 417.027C235.152 418.067 234.346 418.882 233.289 419.471C232.249 420.061 231.001 420.355 229.545 420.355C227.603 420.355 225.991 419.896 224.709 418.977C223.426 418.076 222.698 416.845 222.525 415.285H225.463C225.688 416.031 226.165 416.629 226.893 417.079C227.638 417.547 228.522 417.781 229.545 417.781C230.741 417.781 231.703 417.417 232.431 416.689C233.176 415.961 233.549 414.904 233.549 413.517V411.125C233.046 411.801 232.361 412.373 231.495 412.841C230.645 413.292 229.675 413.517 228.583 413.517C227.335 413.517 226.191 413.205 225.151 412.581C224.128 411.94 223.313 411.056 222.707 409.929C222.117 408.785 221.823 407.494 221.823 406.055C221.823 404.617 222.117 403.343 222.707 402.233C223.313 401.124 224.128 400.266 225.151 399.659C226.191 399.035 227.335 398.723 228.583 398.723ZM233.549 406.107C233.549 405.119 233.341 404.261 232.925 403.533C232.526 402.805 231.997 402.251 231.339 401.869C230.68 401.488 229.969 401.297 229.207 401.297C228.444 401.297 227.733 401.488 227.075 401.869C226.416 402.233 225.879 402.779 225.463 403.507C225.064 404.218 224.865 405.067 224.865 406.055C224.865 407.043 225.064 407.91 225.463 408.655C225.879 409.401 226.416 409.973 227.075 410.371C227.751 410.753 228.461 410.943 229.207 410.943C229.969 410.943 230.68 410.753 231.339 410.371C231.997 409.99 232.526 409.435 232.925 408.707C233.341 407.962 233.549 407.095 233.549 406.107ZM253.562 405.769C253.562 406.307 253.527 406.792 253.458 407.225H242.512C242.598 408.369 243.023 409.288 243.786 409.981C244.548 410.675 245.484 411.021 246.594 411.021C248.188 411.021 249.315 410.354 249.974 409.019H253.172C252.738 410.337 251.95 411.42 250.806 412.269C249.679 413.101 248.275 413.517 246.594 413.517C245.224 413.517 243.994 413.214 242.902 412.607C241.827 411.983 240.978 411.117 240.354 410.007C239.747 408.881 239.444 407.581 239.444 406.107C239.444 404.634 239.738 403.343 240.328 402.233C240.934 401.107 241.775 400.24 242.85 399.633C243.942 399.027 245.19 398.723 246.594 398.723C247.946 398.723 249.15 399.018 250.208 399.607C251.265 400.197 252.088 401.029 252.678 402.103C253.267 403.161 253.562 404.383 253.562 405.769ZM250.468 404.833C250.45 403.741 250.06 402.866 249.298 402.207C248.535 401.549 247.59 401.219 246.464 401.219C245.441 401.219 244.566 401.549 243.838 402.207C243.11 402.849 242.676 403.724 242.538 404.833H250.468ZM273.82 398.723C274.947 398.723 275.952 398.957 276.836 399.425C277.738 399.893 278.44 400.587 278.942 401.505C279.462 402.424 279.722 403.533 279.722 404.833V413.283H276.784V405.275C276.784 403.993 276.464 403.013 275.822 402.337C275.181 401.644 274.306 401.297 273.196 401.297C272.087 401.297 271.203 401.644 270.544 402.337C269.903 403.013 269.582 403.993 269.582 405.275V413.283H266.644V405.275C266.644 403.993 266.324 403.013 265.682 402.337C265.041 401.644 264.166 401.297 263.056 401.297C261.947 401.297 261.063 401.644 260.404 402.337C259.763 403.013 259.442 403.993 259.442 405.275V413.283H256.478V398.957H259.442V400.595C259.928 400.006 260.543 399.547 261.288 399.217C262.034 398.888 262.831 398.723 263.68 398.723C264.824 398.723 265.847 398.966 266.748 399.451C267.65 399.937 268.343 400.639 268.828 401.557C269.262 400.691 269.938 400.006 270.856 399.503C271.775 398.983 272.763 398.723 273.82 398.723ZM296.624 405.769C296.624 406.307 296.589 406.792 296.52 407.225H285.574C285.661 408.369 286.085 409.288 286.848 409.981C287.611 410.675 288.547 411.021 289.656 411.021C291.251 411.021 292.377 410.354 293.036 409.019H296.234C295.801 410.337 295.012 411.42 293.868 412.269C292.741 413.101 291.337 413.517 289.656 413.517C288.287 413.517 287.056 413.214 285.964 412.607C284.889 411.983 284.04 411.117 283.416 410.007C282.809 408.881 282.506 407.581 282.506 406.107C282.506 404.634 282.801 403.343 283.39 402.233C283.997 401.107 284.837 400.24 285.912 399.633C287.004 399.027 288.252 398.723 289.656 398.723C291.008 398.723 292.213 399.018 293.27 399.607C294.327 400.197 295.151 401.029 295.74 402.103C296.329 403.161 296.624 404.383 296.624 405.769ZM293.53 404.833C293.513 403.741 293.123 402.866 292.36 402.207C291.597 401.549 290.653 401.219 289.526 401.219C288.503 401.219 287.628 401.549 286.9 402.207C286.172 402.849 285.739 403.724 285.6 404.833H293.53ZM306.769 398.723C307.896 398.723 308.901 398.957 309.785 399.425C310.686 399.893 311.388 400.587 311.891 401.505C312.394 402.424 312.645 403.533 312.645 404.833V413.283H309.707V405.275C309.707 403.993 309.386 403.013 308.745 402.337C308.104 401.644 307.228 401.297 306.119 401.297C305.01 401.297 304.126 401.644 303.467 402.337C302.826 403.013 302.505 403.993 302.505 405.275V413.283H299.541V398.957H302.505V400.595C302.99 400.006 303.606 399.547 304.351 399.217C305.114 398.888 305.92 398.723 306.769 398.723ZM319.884 401.375V409.305C319.884 409.843 320.005 410.233 320.248 410.475C320.508 410.701 320.941 410.813 321.548 410.813H323.368V413.283H321.028C319.693 413.283 318.67 412.971 317.96 412.347C317.249 411.723 316.894 410.709 316.894 409.305V401.375H315.204V398.957H316.894V395.395H319.884V398.957H323.368V401.375H319.884Z" fill="#595959"/>
<path d="M164.817 365.839H155.921L154.449 370.095H149.745L157.777 347.727H162.993L171.025 370.095H166.289L164.817 365.839ZM163.601 362.255L160.369 352.911L157.137 362.255H163.601ZM203.883 347.759L197.643 370.095H192.363L188.171 354.191L183.787 370.095L178.539 370.127L172.523 347.759H177.323L181.259 365.103L185.803 347.759H190.795L195.083 365.007L199.051 347.759H203.883ZM214.52 370.319C212.963 370.319 211.555 370.053 210.296 369.519C209.059 368.986 208.077 368.218 207.352 367.215C206.627 366.213 206.253 365.029 206.232 363.663H211.032C211.096 364.581 211.416 365.306 211.992 365.839C212.589 366.373 213.4 366.639 214.424 366.639C215.469 366.639 216.291 366.394 216.888 365.903C217.485 365.391 217.784 364.73 217.784 363.919C217.784 363.258 217.581 362.714 217.176 362.287C216.771 361.861 216.259 361.53 215.64 361.295C215.043 361.039 214.211 360.762 213.144 360.463C211.693 360.037 210.509 359.621 209.592 359.215C208.696 358.789 207.917 358.159 207.256 357.327C206.616 356.474 206.296 355.343 206.296 353.935C206.296 352.613 206.627 351.461 207.288 350.479C207.949 349.498 208.877 348.751 210.072 348.239C211.267 347.706 212.632 347.439 214.168 347.439C216.472 347.439 218.339 348.005 219.768 349.135C221.219 350.245 222.019 351.802 222.168 353.807H217.24C217.197 353.039 216.867 352.41 216.248 351.919C215.651 351.407 214.851 351.151 213.848 351.151C212.973 351.151 212.269 351.375 211.736 351.823C211.224 352.271 210.968 352.922 210.968 353.775C210.968 354.373 211.16 354.874 211.544 355.279C211.949 355.663 212.44 355.983 213.016 356.239C213.613 356.474 214.445 356.751 215.512 357.071C216.963 357.498 218.147 357.925 219.064 358.351C219.981 358.778 220.771 359.418 221.432 360.271C222.093 361.125 222.424 362.245 222.424 363.631C222.424 364.826 222.115 365.935 221.496 366.959C220.877 367.983 219.971 368.805 218.776 369.423C217.581 370.021 216.163 370.319 214.52 370.319Z" fill="#19154E"/>
<rect x="21.5208" y="25.6189" width="330.549" height="189.58" rx="24" fill="#262E3B"/>
<g clip-path="url(#clip0_10_560)">
<path d="M164.021 111.478C164.021 112.808 164.165 113.886 164.417 114.677C164.704 115.468 165.064 116.331 165.567 117.265C165.747 117.553 165.819 117.84 165.819 118.092C165.819 118.452 165.603 118.811 165.136 119.171L162.871 120.68C162.547 120.896 162.224 121.004 161.936 121.004C161.577 121.004 161.217 120.824 160.858 120.501C160.355 119.961 159.923 119.386 159.564 118.811C159.204 118.2 158.845 117.517 158.449 116.69C155.645 119.997 152.123 121.651 147.881 121.651C144.861 121.651 142.453 120.788 140.691 119.063C138.93 117.337 138.031 115.036 138.031 112.161C138.031 109.105 139.109 106.625 141.302 104.755C143.495 102.886 146.407 101.951 150.11 101.951C151.332 101.951 152.59 102.059 153.92 102.239C155.25 102.419 156.616 102.706 158.054 103.03V100.406C158.054 97.6737 157.479 95.7684 156.364 94.654C155.214 93.5396 153.273 93.0004 150.505 93.0004C149.247 93.0004 147.953 93.1442 146.623 93.4677C145.292 93.7913 143.998 94.1867 142.74 94.69C142.165 94.9416 141.734 95.0854 141.482 95.1573C141.23 95.2292 141.051 95.2651 140.907 95.2651C140.404 95.2651 140.152 94.9057 140.152 94.1508V92.3893C140.152 91.8141 140.224 91.3828 140.404 91.1311C140.583 90.8795 140.907 90.6279 141.41 90.3762C142.668 89.7292 144.178 89.1899 145.94 88.7586C147.701 88.2912 149.57 88.0756 151.547 88.0756C155.825 88.0756 158.953 89.0462 160.966 90.9873C162.943 92.9285 163.949 95.8763 163.949 99.8305V111.478H164.021ZM149.426 116.942C150.613 116.942 151.835 116.726 153.129 116.295C154.423 115.863 155.574 115.072 156.544 113.994C157.119 113.311 157.551 112.556 157.766 111.693C157.982 110.831 158.126 109.788 158.126 108.566V107.056C157.083 106.804 155.969 106.589 154.819 106.445C153.668 106.301 152.554 106.229 151.44 106.229C149.031 106.229 147.27 106.697 146.083 107.667C144.897 108.638 144.322 110.004 144.322 111.801C144.322 113.491 144.753 114.749 145.652 115.612C146.515 116.51 147.773 116.942 149.426 116.942ZM178.293 120.824C177.646 120.824 177.214 120.716 176.927 120.465C176.639 120.249 176.387 119.746 176.172 119.063L167.724 91.2749C167.508 90.556 167.4 90.0886 167.4 89.837C167.4 89.2618 167.688 88.9383 168.263 88.9383H171.786C172.469 88.9383 172.936 89.0462 173.188 89.2978C173.476 89.5135 173.691 90.0167 173.907 90.6998L179.946 114.497L185.554 90.6998C185.734 89.9808 185.95 89.5135 186.237 89.2978C186.525 89.0821 187.028 88.9383 187.675 88.9383H190.551C191.234 88.9383 191.701 89.0462 191.989 89.2978C192.276 89.5135 192.528 90.0167 192.672 90.6998L198.352 114.785L204.571 90.6998C204.786 89.9808 205.038 89.5135 205.29 89.2978C205.577 89.0821 206.044 88.9383 206.692 88.9383H210.035C210.61 88.9383 210.933 89.2259 210.933 89.837C210.933 90.0167 210.897 90.1965 210.861 90.4122C210.826 90.6279 210.754 90.9154 210.61 91.3109L201.946 119.099C201.731 119.818 201.479 120.285 201.191 120.501C200.904 120.716 200.437 120.86 199.825 120.86H196.734C196.051 120.86 195.584 120.752 195.296 120.501C195.008 120.249 194.757 119.782 194.613 119.063L189.041 95.8763L183.505 119.027C183.325 119.746 183.11 120.213 182.822 120.465C182.535 120.716 182.031 120.824 181.384 120.824H178.293ZM224.486 121.795C222.616 121.795 220.747 121.579 218.95 121.148C217.152 120.716 215.75 120.249 214.816 119.71C214.241 119.386 213.845 119.027 213.701 118.703C213.558 118.38 213.486 118.02 213.486 117.697V115.863C213.486 115.108 213.773 114.749 214.312 114.749C214.528 114.749 214.744 114.785 214.96 114.857C215.175 114.929 215.499 115.072 215.858 115.216C217.08 115.755 218.411 116.187 219.813 116.474C221.25 116.762 222.652 116.906 224.09 116.906C226.355 116.906 228.116 116.51 229.339 115.72C230.561 114.929 231.208 113.778 231.208 112.304C231.208 111.298 230.884 110.471 230.237 109.788C229.59 109.105 228.368 108.494 226.607 107.919L221.394 106.301C218.77 105.474 216.829 104.252 215.643 102.634C214.456 101.053 213.845 99.2913 213.845 97.422C213.845 95.9122 214.169 94.5821 214.816 93.4318C215.463 92.2815 216.326 91.2749 217.404 90.4841C218.482 89.6573 219.705 89.0462 221.143 88.6148C222.581 88.1834 224.09 88.0037 225.672 88.0037C226.463 88.0037 227.29 88.0396 228.081 88.1475C228.907 88.2553 229.662 88.3991 230.417 88.5429C231.136 88.7226 231.819 88.9024 232.466 89.118C233.113 89.3337 233.617 89.5494 233.976 89.7651C234.479 90.0527 234.839 90.3403 235.054 90.6638C235.27 90.9514 235.378 91.3468 235.378 91.8501V93.5396C235.378 94.2945 235.09 94.69 234.551 94.69C234.264 94.69 233.796 94.5462 233.185 94.2586C231.136 93.324 228.835 92.8566 226.283 92.8566C224.234 92.8566 222.616 93.1802 221.502 93.8632C220.388 94.5462 219.813 95.5887 219.813 97.0625C219.813 98.0691 220.172 98.9318 220.891 99.6148C221.61 100.298 222.94 100.981 224.845 101.592L229.95 103.21C232.538 104.036 234.407 105.187 235.522 106.661C236.636 108.134 237.175 109.824 237.175 111.693C237.175 113.239 236.852 114.641 236.241 115.863C235.594 117.086 234.731 118.164 233.617 119.027C232.502 119.925 231.172 120.572 229.626 121.04C228.009 121.543 226.319 121.795 224.486 121.795Z" fill="white"/>
<path d="M231.28 139.265C219.453 148.001 202.27 152.638 187.495 152.638C166.789 152.638 148.132 144.981 134.041 132.256C132.926 131.249 133.933 129.883 135.263 130.674C150.505 139.517 169.306 144.873 188.754 144.873C201.875 144.873 216.29 142.141 229.554 136.533C231.532 135.635 233.221 137.828 231.28 139.265ZM236.205 133.658C234.695 131.716 226.211 132.723 222.365 133.19C221.215 133.334 221.035 132.328 222.077 131.573C228.835 126.828 239.943 128.194 241.238 129.775C242.532 131.393 240.878 142.501 234.551 147.821C233.581 148.648 232.646 148.217 233.077 147.138C234.515 143.579 237.715 135.563 236.205 133.658Z" fill="#FF9900"/>
</g>
<defs>
<linearGradient id="paint0_linear_10_560" x1="187.018" y1="0" x2="187.018" y2="1518.17" gradientUnits="userSpaceOnUse">
<stop stop-color="white"/>
<stop offset="1" stop-color="#3C434F"/>
</linearGradient>
<clipPath id="clip0_10_560">
<rect width="108.563" height="108.563" fill="white" transform="translate(133.322 66.1279)"/>
</clipPath>
</defs>
</svg>
