<svg width="375" height="544" viewBox="0 0 375 544" fill="none" xmlns="http://www.w3.org/2000/svg">
<rect width="374.035" height="543.12" rx="12" fill="url(#paint0_linear_10_583)"/>
<path d="M63.4502 400.595C63.4502 401.514 63.2335 402.38 62.8002 403.195C62.3668 404.01 61.6735 404.677 60.7202 405.197C59.7668 405.7 58.5448 405.951 57.0542 405.951H53.7782V413.283H50.8142V395.213H57.0542C58.4408 395.213 59.6108 395.456 60.5642 395.941C61.5348 396.409 62.2542 397.05 62.7222 397.865C63.2075 398.68 63.4502 399.59 63.4502 400.595ZM57.0542 403.533C58.1808 403.533 59.0215 403.282 59.5762 402.779C60.1308 402.259 60.4082 401.531 60.4082 400.595C60.4082 398.619 59.2902 397.631 57.0542 397.631H53.7782V403.533H57.0542ZM69.2411 401.037C69.6744 400.309 70.2464 399.746 70.9571 399.347C71.6851 398.931 72.5431 398.723 73.5311 398.723V401.791H72.7771C71.6157 401.791 70.7317 402.086 70.1251 402.675C69.5357 403.264 69.2411 404.287 69.2411 405.743V413.283H66.2771V398.957H69.2411V401.037ZM82.4696 413.517C81.1176 413.517 79.8956 413.214 78.8036 412.607C77.7116 411.983 76.8536 411.116 76.2296 410.007C75.6056 408.88 75.2936 407.58 75.2936 406.107C75.2936 404.651 75.6142 403.36 76.2556 402.233C76.8969 401.106 77.7722 400.24 78.8816 399.633C79.9909 399.026 81.2302 398.723 82.5996 398.723C83.9689 398.723 85.2082 399.026 86.3176 399.633C87.4269 400.24 88.3022 401.106 88.9436 402.233C89.5849 403.36 89.9056 404.651 89.9056 406.107C89.9056 407.563 89.5762 408.854 88.9176 409.981C88.2589 411.108 87.3576 411.983 86.2136 412.607C85.0869 413.214 83.8389 413.517 82.4696 413.517ZM82.4696 410.943C83.2322 410.943 83.9429 410.761 84.6016 410.397C85.2776 410.033 85.8236 409.487 86.2396 408.759C86.6556 408.031 86.8636 407.147 86.8636 406.107C86.8636 405.067 86.6642 404.192 86.2656 403.481C85.8669 402.753 85.3382 402.207 84.6796 401.843C84.0209 401.479 83.3102 401.297 82.5476 401.297C81.7849 401.297 81.0742 401.479 80.4156 401.843C79.7742 402.207 79.2629 402.753 78.8816 403.481C78.5002 404.192 78.3096 405.067 78.3096 406.107C78.3096 407.65 78.6996 408.846 79.4796 409.695C80.2769 410.527 81.2736 410.943 82.4696 410.943ZM94.3437 397.059C93.8063 397.059 93.3557 396.877 92.9917 396.513C92.6277 396.149 92.4457 395.698 92.4457 395.161C92.4457 394.624 92.6277 394.173 92.9917 393.809C93.3557 393.445 93.8063 393.263 94.3437 393.263C94.8637 393.263 95.3057 393.445 95.6697 393.809C96.0337 394.173 96.2157 394.624 96.2157 395.161C96.2157 395.698 96.0337 396.149 95.6697 396.513C95.3057 396.877 94.8637 397.059 94.3437 397.059ZM95.7997 416.091C95.7997 417.495 95.4443 418.509 94.7337 419.133C94.0403 419.774 93.0263 420.095 91.6917 420.095H90.1577V417.599H91.1717C91.7783 417.599 92.203 417.478 92.4457 417.235C92.7057 417.01 92.8357 416.628 92.8357 416.091V398.957H95.7997V416.091ZM112.821 405.769C112.821 406.306 112.786 406.792 112.717 407.225H101.771C101.858 408.369 102.282 409.288 103.045 409.981C103.808 410.674 104.744 411.021 105.853 411.021C107.448 411.021 108.574 410.354 109.233 409.019H112.431C111.998 410.336 111.209 411.42 110.065 412.269C108.938 413.101 107.534 413.517 105.853 413.517C104.484 413.517 103.253 413.214 102.161 412.607C101.086 411.983 100.237 411.116 99.6131 410.007C99.0065 408.88 98.7031 407.58 98.7031 406.107C98.7031 404.634 98.9978 403.342 99.5871 402.233C100.194 401.106 101.034 400.24 102.109 399.633C103.201 399.026 104.449 398.723 105.853 398.723C107.205 398.723 108.41 399.018 109.467 399.607C110.524 400.196 111.348 401.028 111.937 402.103C112.526 403.16 112.821 404.382 112.821 405.769ZM109.727 404.833C109.71 403.741 109.32 402.866 108.557 402.207C107.794 401.548 106.85 401.219 105.723 401.219C104.7 401.219 103.825 401.548 103.097 402.207C102.369 402.848 101.936 403.724 101.797 404.833H109.727ZM114.75 406.107C114.75 404.634 115.045 403.342 115.634 402.233C116.241 401.106 117.073 400.24 118.13 399.633C119.187 399.026 120.401 398.723 121.77 398.723C123.503 398.723 124.933 399.139 126.06 399.971C127.204 400.786 127.975 401.956 128.374 403.481H125.176C124.916 402.77 124.5 402.216 123.928 401.817C123.356 401.418 122.637 401.219 121.77 401.219C120.557 401.219 119.586 401.652 118.858 402.519C118.147 403.368 117.792 404.564 117.792 406.107C117.792 407.65 118.147 408.854 118.858 409.721C119.586 410.588 120.557 411.021 121.77 411.021C123.486 411.021 124.621 410.267 125.176 408.759H128.374C127.958 410.215 127.178 411.376 126.034 412.243C124.89 413.092 123.469 413.517 121.77 413.517C120.401 413.517 119.187 413.214 118.13 412.607C117.073 411.983 116.241 411.116 115.634 410.007C115.045 408.88 114.75 407.58 114.75 406.107ZM134.786 401.375V409.305C134.786 409.842 134.907 410.232 135.15 410.475C135.41 410.7 135.843 410.813 136.45 410.813H138.27V413.283H135.93C134.595 413.283 133.573 412.971 132.862 412.347C132.151 411.723 131.796 410.709 131.796 409.305V401.375H130.106V398.957H131.796V395.395H134.786V398.957H138.27V401.375H134.786ZM166.788 395.213V413.283H163.824V400.907L158.312 413.283H156.258L150.72 400.907V413.283H147.756V395.213H150.954L157.298 409.383L163.616 395.213H166.788ZM169.695 406.055C169.695 404.616 169.99 403.342 170.579 402.233C171.186 401.124 172.001 400.266 173.023 399.659C174.063 399.035 175.207 398.723 176.455 398.723C177.582 398.723 178.561 398.948 179.393 399.399C180.243 399.832 180.919 400.378 181.421 401.037V398.957H184.411V413.283H181.421V411.151C180.919 411.827 180.234 412.39 179.367 412.841C178.501 413.292 177.513 413.517 176.403 413.517C175.173 413.517 174.046 413.205 173.023 412.581C172.001 411.94 171.186 411.056 170.579 409.929C169.99 408.785 169.695 407.494 169.695 406.055ZM181.421 406.107C181.421 405.119 181.213 404.261 180.797 403.533C180.399 402.805 179.87 402.25 179.211 401.869C178.553 401.488 177.842 401.297 177.079 401.297C176.317 401.297 175.606 401.488 174.947 401.869C174.289 402.233 173.751 402.779 173.335 403.507C172.937 404.218 172.737 405.067 172.737 406.055C172.737 407.043 172.937 407.91 173.335 408.655C173.751 409.4 174.289 409.972 174.947 410.371C175.623 410.752 176.334 410.943 177.079 410.943C177.842 410.943 178.553 410.752 179.211 410.371C179.87 409.99 180.399 409.435 180.797 408.707C181.213 407.962 181.421 407.095 181.421 406.107ZM195.532 398.723C196.659 398.723 197.664 398.957 198.548 399.425C199.45 399.893 200.152 400.586 200.654 401.505C201.157 402.424 201.408 403.533 201.408 404.833V413.283H198.47V405.275C198.47 403.992 198.15 403.013 197.508 402.337C196.867 401.644 195.992 401.297 194.882 401.297C193.773 401.297 192.889 401.644 192.23 402.337C191.589 403.013 191.268 403.992 191.268 405.275V413.283H188.304V398.957H191.268V400.595C191.754 400.006 192.369 399.546 193.114 399.217C193.877 398.888 194.683 398.723 195.532 398.723ZM204.201 406.055C204.201 404.616 204.496 403.342 205.085 402.233C205.692 401.124 206.506 400.266 207.529 399.659C208.569 399.035 209.713 398.723 210.961 398.723C212.088 398.723 213.067 398.948 213.899 399.399C214.749 399.832 215.425 400.378 215.927 401.037V398.957H218.917V413.283H215.927V411.151C215.425 411.827 214.74 412.39 213.873 412.841C213.007 413.292 212.019 413.517 210.909 413.517C209.678 413.517 208.552 413.205 207.529 412.581C206.506 411.94 205.692 411.056 205.085 409.929C204.496 408.785 204.201 407.494 204.201 406.055ZM215.927 406.107C215.927 405.119 215.719 404.261 215.303 403.533C214.904 402.805 214.376 402.25 213.717 401.869C213.058 401.488 212.348 401.297 211.585 401.297C210.822 401.297 210.112 401.488 209.453 401.869C208.794 402.233 208.257 402.779 207.841 403.507C207.442 404.218 207.243 405.067 207.243 406.055C207.243 407.043 207.442 407.91 207.841 408.655C208.257 409.4 208.794 409.972 209.453 410.371C210.129 410.752 210.84 410.943 211.585 410.943C212.348 410.943 213.058 410.752 213.717 410.371C214.376 409.99 214.904 409.435 215.303 408.707C215.719 407.962 215.927 407.095 215.927 406.107ZM228.582 398.723C229.692 398.723 230.671 398.948 231.52 399.399C232.387 399.832 233.063 400.378 233.548 401.037V398.957H236.538V413.517C236.538 414.834 236.261 416.004 235.706 417.027C235.152 418.067 234.346 418.882 233.288 419.471C232.248 420.06 231 420.355 229.544 420.355C227.603 420.355 225.991 419.896 224.708 418.977C223.426 418.076 222.698 416.845 222.524 415.285H225.462C225.688 416.03 226.164 416.628 226.892 417.079C227.638 417.547 228.522 417.781 229.544 417.781C230.74 417.781 231.702 417.417 232.43 416.689C233.176 415.961 233.548 414.904 233.548 413.517V411.125C233.046 411.801 232.361 412.373 231.494 412.841C230.645 413.292 229.674 413.517 228.582 413.517C227.334 413.517 226.19 413.205 225.15 412.581C224.128 411.94 223.313 411.056 222.706 409.929C222.117 408.785 221.822 407.494 221.822 406.055C221.822 404.616 222.117 403.342 222.706 402.233C223.313 401.124 224.128 400.266 225.15 399.659C226.19 399.035 227.334 398.723 228.582 398.723ZM233.548 406.107C233.548 405.119 233.34 404.261 232.924 403.533C232.526 402.805 231.997 402.25 231.338 401.869C230.68 401.488 229.969 401.297 229.206 401.297C228.444 401.297 227.733 401.488 227.074 401.869C226.416 402.233 225.878 402.779 225.462 403.507C225.064 404.218 224.864 405.067 224.864 406.055C224.864 407.043 225.064 407.91 225.462 408.655C225.878 409.4 226.416 409.972 227.074 410.371C227.75 410.752 228.461 410.943 229.206 410.943C229.969 410.943 230.68 410.752 231.338 410.371C231.997 409.99 232.526 409.435 232.924 408.707C233.34 407.962 233.548 407.095 233.548 406.107ZM253.561 405.769C253.561 406.306 253.527 406.792 253.457 407.225H242.511C242.598 408.369 243.023 409.288 243.785 409.981C244.548 410.674 245.484 411.021 246.593 411.021C248.188 411.021 249.315 410.354 249.973 409.019H253.171C252.738 410.336 251.949 411.42 250.805 412.269C249.679 413.101 248.275 413.517 246.593 413.517C245.224 413.517 243.993 413.214 242.901 412.607C241.827 411.983 240.977 411.116 240.353 410.007C239.747 408.88 239.443 407.58 239.443 406.107C239.443 404.634 239.738 403.342 240.327 402.233C240.934 401.106 241.775 400.24 242.849 399.633C243.941 399.026 245.189 398.723 246.593 398.723C247.945 398.723 249.15 399.018 250.207 399.607C251.265 400.196 252.088 401.028 252.677 402.103C253.267 403.16 253.561 404.382 253.561 405.769ZM250.467 404.833C250.45 403.741 250.06 402.866 249.297 402.207C248.535 401.548 247.59 401.219 246.463 401.219C245.441 401.219 244.565 401.548 243.837 402.207C243.109 402.848 242.676 403.724 242.537 404.833H250.467ZM273.82 398.723C274.947 398.723 275.952 398.957 276.836 399.425C277.738 399.893 278.44 400.586 278.942 401.505C279.462 402.424 279.722 403.533 279.722 404.833V413.283H276.784V405.275C276.784 403.992 276.464 403.013 275.822 402.337C275.181 401.644 274.306 401.297 273.196 401.297C272.087 401.297 271.203 401.644 270.544 402.337C269.903 403.013 269.582 403.992 269.582 405.275V413.283H266.644V405.275C266.644 403.992 266.324 403.013 265.682 402.337C265.041 401.644 264.166 401.297 263.056 401.297C261.947 401.297 261.063 401.644 260.404 402.337C259.763 403.013 259.442 403.992 259.442 405.275V413.283H256.478V398.957H259.442V400.595C259.928 400.006 260.543 399.546 261.288 399.217C262.034 398.888 262.831 398.723 263.68 398.723C264.824 398.723 265.847 398.966 266.748 399.451C267.65 399.936 268.343 400.638 268.828 401.557C269.262 400.69 269.938 400.006 270.856 399.503C271.775 398.983 272.763 398.723 273.82 398.723ZM296.624 405.769C296.624 406.306 296.589 406.792 296.52 407.225H285.574C285.661 408.369 286.085 409.288 286.848 409.981C287.611 410.674 288.547 411.021 289.656 411.021C291.251 411.021 292.377 410.354 293.036 409.019H296.234C295.801 410.336 295.012 411.42 293.868 412.269C292.741 413.101 291.337 413.517 289.656 413.517C288.287 413.517 287.056 413.214 285.964 412.607C284.889 411.983 284.04 411.116 283.416 410.007C282.809 408.88 282.506 407.58 282.506 406.107C282.506 404.634 282.801 403.342 283.39 402.233C283.997 401.106 284.837 400.24 285.912 399.633C287.004 399.026 288.252 398.723 289.656 398.723C291.008 398.723 292.213 399.018 293.27 399.607C294.327 400.196 295.151 401.028 295.74 402.103C296.329 403.16 296.624 404.382 296.624 405.769ZM293.53 404.833C293.513 403.741 293.123 402.866 292.36 402.207C291.597 401.548 290.653 401.219 289.526 401.219C288.503 401.219 287.628 401.548 286.9 402.207C286.172 402.848 285.739 403.724 285.6 404.833H293.53ZM306.769 398.723C307.895 398.723 308.901 398.957 309.785 399.425C310.686 399.893 311.388 400.586 311.891 401.505C312.393 402.424 312.645 403.533 312.645 404.833V413.283H309.707V405.275C309.707 403.992 309.386 403.013 308.745 402.337C308.103 401.644 307.228 401.297 306.119 401.297C305.009 401.297 304.125 401.644 303.467 402.337C302.825 403.013 302.505 403.992 302.505 405.275V413.283H299.541V398.957H302.505V400.595C302.99 400.006 303.605 399.546 304.351 399.217C305.113 398.888 305.919 398.723 306.769 398.723ZM319.883 401.375V409.305C319.883 409.842 320.005 410.232 320.247 410.475C320.507 410.7 320.941 410.813 321.547 410.813H323.367V413.283H321.027C319.693 413.283 318.67 412.971 317.959 412.347C317.249 411.723 316.893 410.709 316.893 409.305V401.375H315.203V398.957H316.893V395.395H319.883V398.957H323.367V401.375H319.883Z" fill="#595959"/>
<path d="M147.44 370.319C145.883 370.319 144.475 370.052 143.216 369.519C141.979 368.985 140.997 368.217 140.272 367.215C139.547 366.212 139.173 365.028 139.152 363.663H143.952C144.016 364.58 144.336 365.305 144.912 365.839C145.509 366.372 146.32 366.639 147.344 366.639C148.389 366.639 149.211 366.393 149.808 365.903C150.405 365.391 150.704 364.729 150.704 363.919C150.704 363.257 150.501 362.713 150.096 362.287C149.691 361.86 149.179 361.529 148.56 361.295C147.963 361.039 147.131 360.761 146.064 360.463C144.613 360.036 143.429 359.62 142.512 359.215C141.616 358.788 140.837 358.159 140.176 357.327C139.536 356.473 139.216 355.343 139.216 353.935C139.216 352.612 139.547 351.46 140.208 350.479C140.869 349.497 141.797 348.751 142.992 348.239C144.187 347.705 145.552 347.439 147.088 347.439C149.392 347.439 151.259 348.004 152.688 349.135C154.139 350.244 154.939 351.801 155.088 353.807H150.16C150.117 353.039 149.787 352.409 149.168 351.919C148.571 351.407 147.771 351.151 146.768 351.151C145.893 351.151 145.189 351.375 144.656 351.823C144.144 352.271 143.888 352.921 143.888 353.775C143.888 354.372 144.08 354.873 144.464 355.279C144.869 355.663 145.36 355.983 145.936 356.239C146.533 356.473 147.365 356.751 148.432 357.071C149.883 357.497 151.067 357.924 151.984 358.351C152.901 358.777 153.691 359.417 154.352 360.271C155.013 361.124 155.344 362.244 155.344 363.631C155.344 364.825 155.035 365.935 154.416 366.959C153.797 367.983 152.891 368.804 151.696 369.423C150.501 370.02 149.083 370.319 147.44 370.319ZM169.724 370.095L163.708 362.543V370.095H159.228V346.415H163.708V359.887L169.66 352.367H175.484L167.676 361.263L175.548 370.095H169.724ZM194.876 352.367L183.9 378.479H179.132L182.972 369.647L175.868 352.367H180.892L185.468 364.751L190.108 352.367H194.876ZM201.771 354.927C202.347 354.116 203.136 353.444 204.139 352.911C205.163 352.356 206.325 352.079 207.627 352.079C209.141 352.079 210.507 352.452 211.723 353.199C212.96 353.945 213.931 355.012 214.635 356.399C215.36 357.764 215.723 359.353 215.723 361.167C215.723 362.98 215.36 364.591 214.635 365.999C213.931 367.385 212.96 368.463 211.723 369.231C210.507 369.999 209.141 370.383 207.627 370.383C206.325 370.383 205.173 370.116 204.171 369.583C203.189 369.049 202.389 368.377 201.771 367.567V378.543H197.291V352.367H201.771V354.927ZM211.147 361.167C211.147 360.1 210.923 359.183 210.475 358.415C210.048 357.625 209.472 357.028 208.747 356.623C208.043 356.217 207.275 356.015 206.443 356.015C205.632 356.015 204.864 356.228 204.139 356.655C203.435 357.06 202.859 357.657 202.411 358.447C201.984 359.236 201.771 360.164 201.771 361.231C201.771 362.297 201.984 363.225 202.411 364.015C202.859 364.804 203.435 365.412 204.139 365.839C204.864 366.244 205.632 366.447 206.443 366.447C207.275 366.447 208.043 366.233 208.747 365.807C209.472 365.38 210.048 364.772 210.475 363.983C210.923 363.193 211.147 362.255 211.147 361.167ZM235.458 360.847C235.458 361.487 235.415 362.063 235.33 362.575H222.37C222.477 363.855 222.925 364.857 223.714 365.583C224.503 366.308 225.474 366.671 226.626 366.671C228.29 366.671 229.474 365.956 230.178 364.527H235.01C234.498 366.233 233.517 367.641 232.066 368.751C230.615 369.839 228.834 370.383 226.722 370.383C225.015 370.383 223.479 370.009 222.114 369.263C220.77 368.495 219.714 367.417 218.946 366.031C218.199 364.644 217.826 363.044 217.826 361.231C217.826 359.396 218.199 357.785 218.946 356.399C219.693 355.012 220.738 353.945 222.082 353.199C223.426 352.452 224.973 352.079 226.722 352.079C228.407 352.079 229.911 352.441 231.234 353.167C232.578 353.892 233.613 354.927 234.338 356.271C235.085 357.593 235.458 359.119 235.458 360.847ZM230.818 359.567C230.797 358.415 230.381 357.497 229.57 356.815C228.759 356.111 227.767 355.759 226.594 355.759C225.485 355.759 224.546 356.1 223.778 356.783C223.031 357.444 222.573 358.372 222.402 359.567H230.818Z" fill="#19154E"/>
<rect x="21.5205" y="25.6191" width="330.549" height="189.58" rx="24" fill="#0098E3"/>
<path d="M169.775 127.701C182.751 127.701 193.27 117.182 193.27 104.206C193.27 91.23 182.751 80.7109 169.775 80.7109C156.799 80.7109 146.28 91.23 146.28 104.206C146.28 117.182 156.799 127.701 169.775 127.701Z" fill="white"/>
<path d="M203.802 161.728C216.778 161.728 227.297 151.209 227.297 138.233C227.297 125.257 216.778 114.738 203.802 114.738C190.826 114.738 180.307 125.257 180.307 138.233C180.307 151.209 190.826 161.728 203.802 161.728Z" fill="white"/>
<path d="M186.789 160.108C208.266 160.108 225.677 142.697 225.677 121.219C225.677 99.7421 208.266 82.3313 186.789 82.3313C165.311 82.3313 147.901 99.7421 147.901 121.219C147.901 142.697 165.311 160.108 186.789 160.108Z" fill="white"/>
<path fill-rule="evenodd" clip-rule="evenodd" d="M176.704 120.481C175.184 119.479 173.915 118.14 172.998 116.568C172.111 114.908 171.674 113.045 171.728 111.163C171.661 108.776 172.475 106.447 174.017 104.622C175.618 102.789 177.676 101.413 179.982 100.635C182.49 99.7488 185.133 99.3042 187.793 99.3203C189.533 99.3038 191.272 99.4372 192.99 99.719C194.219 99.909 195.426 100.221 196.593 100.649C197.665 101.012 198.633 101.631 199.413 102.451C199.989 103.125 200.298 103.986 200.285 104.873C200.305 105.333 200.235 105.793 200.078 106.226C199.921 106.66 199.68 107.058 199.369 107.398C199.075 107.711 198.717 107.959 198.32 108.124C197.923 108.29 197.496 108.369 197.066 108.358C196.474 108.353 195.89 108.222 195.353 107.974C194.031 107.382 192.669 106.884 191.277 106.482C189.996 106.145 188.675 105.981 187.35 105.995C185.624 105.931 183.917 106.367 182.433 107.25C181.806 107.631 181.293 108.173 180.948 108.82C180.602 109.467 180.437 110.194 180.469 110.927C180.46 111.888 180.825 112.815 181.488 113.511C182.276 114.328 183.207 114.994 184.234 115.475C185.386 116.046 187.104 116.804 189.387 117.749C189.641 117.829 189.887 117.928 190.126 118.045C192.354 118.926 194.491 120.024 196.504 121.323C198.095 122.36 199.437 123.737 200.432 125.354C201.412 127.053 201.903 128.99 201.85 130.95C201.932 133.352 201.244 135.717 199.886 137.699C198.503 139.575 196.59 140.995 194.393 141.774C191.746 142.72 188.949 143.175 186.139 143.118C182.277 143.254 178.434 142.528 174.888 140.992C173.981 140.588 173.185 139.97 172.57 139.19C172.06 138.476 171.795 137.616 171.817 136.739C171.791 136.276 171.866 135.813 172.037 135.383C172.208 134.952 172.47 134.563 172.806 134.243C173.51 133.627 174.425 133.304 175.36 133.343C176.401 133.357 177.424 133.62 178.343 134.111C179.484 134.682 180.385 135.11 181.045 135.395C181.799 135.711 182.58 135.958 183.378 136.134C184.362 136.35 185.368 136.454 186.375 136.444C188.156 136.57 189.929 136.097 191.41 135.1C191.965 134.666 192.408 134.106 192.704 133.467C192.999 132.827 193.138 132.127 193.108 131.423C193.11 130.424 192.73 129.463 192.045 128.735C191.14 127.803 190.081 127.034 188.915 126.462C187.537 125.733 185.597 124.847 183.097 123.804C180.86 122.912 178.719 121.799 176.704 120.481Z" fill="#28A8EA"/>
<path opacity="0.1" fill-rule="evenodd" clip-rule="evenodd" d="M177.115 81.8938C176.088 81.5498 175.038 81.2791 173.972 81.0836C167.574 83.1368 161.758 86.6864 157.007 91.4376C152.256 96.1888 148.706 102.005 146.653 108.403C146.849 109.468 147.119 110.519 147.463 111.546C147.75 112.476 148.114 113.381 148.549 114.252C149.956 106.475 153.705 99.3129 159.294 93.7243C164.882 88.1357 172.044 84.3869 179.821 82.9794C178.951 82.5442 178.046 82.1811 177.115 81.8938Z" fill="black"/>
<path opacity="0.1" fill-rule="evenodd" clip-rule="evenodd" d="M177.115 81.8938C169.939 83.6637 163.384 87.3618 158.157 92.5881C152.931 97.8143 149.233 104.37 147.463 111.546C147.75 112.476 148.113 113.381 148.549 114.252C149.956 106.475 153.705 99.3129 159.294 93.7243C164.882 88.1357 172.044 84.3869 179.821 82.9794C178.951 82.5442 178.045 82.1811 177.115 81.8938Z" fill="black"/>
<path opacity="0.1" fill-rule="evenodd" clip-rule="evenodd" d="M226.115 130.893C225.827 129.963 225.464 129.058 225.029 128.187C223.621 135.964 219.873 143.126 214.284 148.714C208.695 154.303 201.534 158.052 193.756 159.459C194.627 159.895 195.532 160.258 196.462 160.545C197.49 160.889 198.54 161.16 199.606 161.355C206.004 159.302 211.819 155.752 216.571 151.001C221.322 146.25 224.871 140.434 226.925 134.036C226.729 132.971 226.458 131.92 226.115 130.893Z" fill="black"/>
<path opacity="0.1" fill-rule="evenodd" clip-rule="evenodd" d="M225.029 128.187C223.621 135.964 219.873 143.126 214.284 148.714C208.695 154.303 201.534 158.052 193.756 159.459C194.627 159.895 195.532 160.258 196.462 160.545C203.638 158.775 210.194 155.077 215.42 149.851C220.647 144.624 224.345 138.069 226.115 130.893C225.827 129.963 225.464 129.058 225.029 128.187Z" fill="black"/>
<defs>
<linearGradient id="paint0_linear_10_583" x1="187.018" y1="0" x2="187.018" y2="1518.17" gradientUnits="userSpaceOnUse">
<stop stop-color="white"/>
<stop offset="1" stop-color="#0098E3"/>
</linearGradient>
</defs>
</svg>
