<svg width="383" height="552" viewBox="0 0 383 552" fill="none" xmlns="http://www.w3.org/2000/svg">
<g filter="url(#filter0_d_10_499)">
<rect x="4" width="374.035" height="543.12" rx="12" fill="url(#paint0_linear_10_499)"/>
</g>
<path d="M73.6001 400.596C73.6001 401.514 73.3834 402.381 72.9501 403.196C72.5167 404.01 71.8234 404.678 70.8701 405.198C69.9167 405.7 68.6947 405.952 67.2041 405.952H63.9281V413.284H60.9641V395.214H67.2041C68.5907 395.214 69.7607 395.456 70.7141 395.942C71.6847 396.41 72.4041 397.051 72.8721 397.866C73.3574 398.68 73.6001 399.59 73.6001 400.596ZM67.2041 403.534C68.3307 403.534 69.1714 403.282 69.7261 402.78C70.2807 402.26 70.5581 401.532 70.5581 400.596C70.5581 398.62 69.4401 397.632 67.2041 397.632H63.9281V403.534H67.2041ZM79.391 401.038C79.8243 400.31 80.3963 399.746 81.107 399.348C81.835 398.932 82.693 398.724 83.681 398.724V401.792H82.927C81.7656 401.792 80.8816 402.086 80.275 402.676C79.6856 403.265 79.391 404.288 79.391 405.744V413.284H76.427V398.958H79.391V401.038ZM92.6195 413.518C91.2675 413.518 90.0455 413.214 88.9535 412.608C87.8615 411.984 87.0035 411.117 86.3795 410.008C85.7555 408.881 85.4435 407.581 85.4435 406.108C85.4435 404.652 85.7641 403.36 86.4055 402.234C87.0468 401.107 87.9221 400.24 89.0315 399.634C90.1408 399.027 91.3801 398.724 92.7495 398.724C94.1188 398.724 95.3581 399.027 96.4675 399.634C97.5768 400.24 98.4521 401.107 99.0935 402.234C99.7348 403.36 100.055 404.652 100.055 406.108C100.055 407.564 99.7261 408.855 99.0675 409.982C98.4088 411.108 97.5075 411.984 96.3635 412.608C95.2368 413.214 93.9888 413.518 92.6195 413.518ZM92.6195 410.944C93.3821 410.944 94.0928 410.762 94.7515 410.398C95.4275 410.034 95.9735 409.488 96.3895 408.76C96.8055 408.032 97.0135 407.148 97.0135 406.108C97.0135 405.068 96.8141 404.192 96.4155 403.482C96.0168 402.754 95.4881 402.208 94.8295 401.844C94.1708 401.48 93.4601 401.298 92.6975 401.298C91.9348 401.298 91.2241 401.48 90.5655 401.844C89.9241 402.208 89.4128 402.754 89.0315 403.482C88.6501 404.192 88.4595 405.068 88.4595 406.108C88.4595 407.65 88.8495 408.846 89.6295 409.696C90.4268 410.528 91.4235 410.944 92.6195 410.944ZM104.494 397.06C103.956 397.06 103.506 396.878 103.142 396.514C102.778 396.15 102.596 395.699 102.596 395.162C102.596 394.624 102.778 394.174 103.142 393.81C103.506 393.446 103.956 393.264 104.494 393.264C105.014 393.264 105.456 393.446 105.82 393.81C106.184 394.174 106.366 394.624 106.366 395.162C106.366 395.699 106.184 396.15 105.82 396.514C105.456 396.878 105.014 397.06 104.494 397.06ZM105.95 416.092C105.95 417.496 105.594 418.51 104.884 419.134C104.19 419.775 103.176 420.096 101.842 420.096H100.308V417.6H101.322C101.928 417.6 102.353 417.478 102.596 417.236C102.856 417.01 102.986 416.629 102.986 416.092V398.958H105.95V416.092ZM122.971 405.77C122.971 406.307 122.936 406.792 122.867 407.226H111.921C112.008 408.37 112.432 409.288 113.195 409.982C113.958 410.675 114.894 411.022 116.003 411.022C117.598 411.022 118.724 410.354 119.383 409.02H122.581C122.148 410.337 121.359 411.42 120.215 412.27C119.088 413.102 117.684 413.518 116.003 413.518C114.634 413.518 113.403 413.214 112.311 412.608C111.236 411.984 110.387 411.117 109.763 410.008C109.156 408.881 108.853 407.581 108.853 406.108C108.853 404.634 109.148 403.343 109.737 402.234C110.344 401.107 111.184 400.24 112.259 399.634C113.351 399.027 114.599 398.724 116.003 398.724C117.355 398.724 118.56 399.018 119.617 399.608C120.674 400.197 121.498 401.029 122.087 402.104C122.676 403.161 122.971 404.383 122.971 405.77ZM119.877 404.834C119.86 403.742 119.47 402.866 118.707 402.208C117.944 401.549 117 401.22 115.873 401.22C114.85 401.22 113.975 401.549 113.247 402.208C112.519 402.849 112.086 403.724 111.947 404.834H119.877ZM124.9 406.108C124.9 404.634 125.195 403.343 125.784 402.234C126.391 401.107 127.223 400.24 128.28 399.634C129.337 399.027 130.551 398.724 131.92 398.724C133.653 398.724 135.083 399.14 136.21 399.972C137.354 400.786 138.125 401.956 138.524 403.482H135.326C135.066 402.771 134.65 402.216 134.078 401.818C133.506 401.419 132.787 401.22 131.92 401.22C130.707 401.22 129.736 401.653 129.008 402.52C128.297 403.369 127.942 404.565 127.942 406.108C127.942 407.65 128.297 408.855 129.008 409.722C129.736 410.588 130.707 411.022 131.92 411.022C133.636 411.022 134.771 410.268 135.326 408.76H138.524C138.108 410.216 137.328 411.377 136.184 412.244C135.04 413.093 133.619 413.518 131.92 413.518C130.551 413.518 129.337 413.214 128.28 412.608C127.223 411.984 126.391 411.117 125.784 410.008C125.195 408.881 124.9 407.581 124.9 406.108ZM144.936 401.376V409.306C144.936 409.843 145.057 410.233 145.3 410.476C145.56 410.701 145.993 410.814 146.6 410.814H148.42V413.284H146.08C144.745 413.284 143.722 412.972 143.012 412.348C142.301 411.724 141.946 410.71 141.946 409.306V401.376H140.256V398.958H141.946V395.396H144.936V398.958H148.42V401.376H144.936ZM176.937 395.214V413.284H173.973V400.908L168.461 413.284H166.407L160.869 400.908V413.284H157.905V395.214H161.103L167.447 409.384L173.765 395.214H176.937ZM179.845 406.056C179.845 404.617 180.14 403.343 180.729 402.234C181.336 401.124 182.151 400.266 183.173 399.66C184.213 399.036 185.357 398.724 186.605 398.724C187.732 398.724 188.711 398.949 189.543 399.4C190.393 399.833 191.069 400.379 191.571 401.038V398.958H194.561V413.284H191.571V411.152C191.069 411.828 190.384 412.391 189.517 412.842C188.651 413.292 187.663 413.518 186.553 413.518C185.323 413.518 184.196 413.206 183.173 412.582C182.151 411.94 181.336 411.056 180.729 409.93C180.14 408.786 179.845 407.494 179.845 406.056ZM191.571 406.108C191.571 405.12 191.363 404.262 190.947 403.534C190.549 402.806 190.02 402.251 189.361 401.87C188.703 401.488 187.992 401.298 187.229 401.298C186.467 401.298 185.756 401.488 185.097 401.87C184.439 402.234 183.901 402.78 183.485 403.508C183.087 404.218 182.887 405.068 182.887 406.056C182.887 407.044 183.087 407.91 183.485 408.656C183.901 409.401 184.439 409.973 185.097 410.372C185.773 410.753 186.484 410.944 187.229 410.944C187.992 410.944 188.703 410.753 189.361 410.372C190.02 409.99 190.549 409.436 190.947 408.708C191.363 407.962 191.571 407.096 191.571 406.108ZM205.682 398.724C206.809 398.724 207.814 398.958 208.698 399.426C209.6 399.894 210.302 400.587 210.804 401.506C211.307 402.424 211.558 403.534 211.558 404.834V413.284H208.62V405.276C208.62 403.993 208.3 403.014 207.658 402.338C207.017 401.644 206.142 401.298 205.032 401.298C203.923 401.298 203.039 401.644 202.38 402.338C201.739 403.014 201.418 403.993 201.418 405.276V413.284H198.454V398.958H201.418V400.596C201.904 400.006 202.519 399.547 203.264 399.218C204.027 398.888 204.833 398.724 205.682 398.724ZM214.351 406.056C214.351 404.617 214.646 403.343 215.235 402.234C215.842 401.124 216.656 400.266 217.679 399.66C218.719 399.036 219.863 398.724 221.111 398.724C222.238 398.724 223.217 398.949 224.049 399.4C224.898 399.833 225.574 400.379 226.077 401.038V398.958H229.067V413.284H226.077V411.152C225.574 411.828 224.89 412.391 224.023 412.842C223.156 413.292 222.168 413.518 221.059 413.518C219.828 413.518 218.702 413.206 217.679 412.582C216.656 411.94 215.842 411.056 215.235 409.93C214.646 408.786 214.351 407.494 214.351 406.056ZM226.077 406.108C226.077 405.12 225.869 404.262 225.453 403.534C225.054 402.806 224.526 402.251 223.867 401.87C223.208 401.488 222.498 401.298 221.735 401.298C220.972 401.298 220.262 401.488 219.603 401.87C218.944 402.234 218.407 402.78 217.991 403.508C217.592 404.218 217.393 405.068 217.393 406.056C217.393 407.044 217.592 407.91 217.991 408.656C218.407 409.401 218.944 409.973 219.603 410.372C220.279 410.753 220.99 410.944 221.735 410.944C222.498 410.944 223.208 410.753 223.867 410.372C224.526 409.99 225.054 409.436 225.453 408.708C225.869 407.962 226.077 407.096 226.077 406.108ZM238.732 398.724C239.841 398.724 240.821 398.949 241.67 399.4C242.537 399.833 243.213 400.379 243.698 401.038V398.958H246.688V413.518C246.688 414.835 246.411 416.005 245.856 417.028C245.301 418.068 244.495 418.882 243.438 419.472C242.398 420.061 241.15 420.356 239.694 420.356C237.753 420.356 236.141 419.896 234.858 418.978C233.575 418.076 232.847 416.846 232.674 415.286H235.612C235.837 416.031 236.314 416.629 237.042 417.08C237.787 417.548 238.671 417.782 239.694 417.782C240.89 417.782 241.852 417.418 242.58 416.69C243.325 415.962 243.698 414.904 243.698 413.518V411.126C243.195 411.802 242.511 412.374 241.644 412.842C240.795 413.292 239.824 413.518 238.732 413.518C237.484 413.518 236.34 413.206 235.3 412.582C234.277 411.94 233.463 411.056 232.856 409.93C232.267 408.786 231.972 407.494 231.972 406.056C231.972 404.617 232.267 403.343 232.856 402.234C233.463 401.124 234.277 400.266 235.3 399.66C236.34 399.036 237.484 398.724 238.732 398.724ZM243.698 406.108C243.698 405.12 243.49 404.262 243.074 403.534C242.675 402.806 242.147 402.251 241.488 401.87C240.829 401.488 240.119 401.298 239.356 401.298C238.593 401.298 237.883 401.488 237.224 401.87C236.565 402.234 236.028 402.78 235.612 403.508C235.213 404.218 235.014 405.068 235.014 406.056C235.014 407.044 235.213 407.91 235.612 408.656C236.028 409.401 236.565 409.973 237.224 410.372C237.9 410.753 238.611 410.944 239.356 410.944C240.119 410.944 240.829 410.753 241.488 410.372C242.147 409.99 242.675 409.436 243.074 408.708C243.49 407.962 243.698 407.096 243.698 406.108ZM263.711 405.77C263.711 406.307 263.677 406.792 263.607 407.226H252.661C252.748 408.37 253.173 409.288 253.935 409.982C254.698 410.675 255.634 411.022 256.743 411.022C258.338 411.022 259.465 410.354 260.123 409.02H263.321C262.888 410.337 262.099 411.42 260.955 412.27C259.829 413.102 258.425 413.518 256.743 413.518C255.374 413.518 254.143 413.214 253.051 412.608C251.977 411.984 251.127 411.117 250.503 410.008C249.897 408.881 249.593 407.581 249.593 406.108C249.593 404.634 249.888 403.343 250.477 402.234C251.084 401.107 251.925 400.24 252.999 399.634C254.091 399.027 255.339 398.724 256.743 398.724C258.095 398.724 259.3 399.018 260.357 399.608C261.415 400.197 262.238 401.029 262.827 402.104C263.417 403.161 263.711 404.383 263.711 405.77ZM260.617 404.834C260.6 403.742 260.21 402.866 259.447 402.208C258.685 401.549 257.74 401.22 256.613 401.22C255.591 401.22 254.715 401.549 253.987 402.208C253.259 402.849 252.826 403.724 252.687 404.834H260.617ZM283.97 398.724C285.097 398.724 286.102 398.958 286.986 399.426C287.887 399.894 288.589 400.587 289.092 401.506C289.612 402.424 289.872 403.534 289.872 404.834V413.284H286.934V405.276C286.934 403.993 286.613 403.014 285.972 402.338C285.331 401.644 284.455 401.298 283.346 401.298C282.237 401.298 281.353 401.644 280.694 402.338C280.053 403.014 279.732 403.993 279.732 405.276V413.284H276.794V405.276C276.794 403.993 276.473 403.014 275.832 402.338C275.191 401.644 274.315 401.298 273.206 401.298C272.097 401.298 271.213 401.644 270.554 402.338C269.913 403.014 269.592 403.993 269.592 405.276V413.284H266.628V398.958H269.592V400.596C270.077 400.006 270.693 399.547 271.438 399.218C272.183 398.888 272.981 398.724 273.83 398.724C274.974 398.724 275.997 398.966 276.898 399.452C277.799 399.937 278.493 400.639 278.978 401.558C279.411 400.691 280.087 400.006 281.006 399.504C281.925 398.984 282.913 398.724 283.97 398.724ZM306.774 405.77C306.774 406.307 306.739 406.792 306.67 407.226H295.724C295.81 408.37 296.235 409.288 296.998 409.982C297.76 410.675 298.696 411.022 299.806 411.022C301.4 411.022 302.527 410.354 303.186 409.02H306.384C305.95 410.337 305.162 411.42 304.018 412.27C302.891 413.102 301.487 413.518 299.806 413.518C298.436 413.518 297.206 413.214 296.114 412.608C295.039 411.984 294.19 411.117 293.566 410.008C292.959 408.881 292.656 407.581 292.656 406.108C292.656 404.634 292.95 403.343 293.54 402.234C294.146 401.107 294.987 400.24 296.062 399.634C297.154 399.027 298.402 398.724 299.806 398.724C301.158 398.724 302.362 399.018 303.42 399.608C304.477 400.197 305.3 401.029 305.89 402.104C306.479 403.161 306.774 404.383 306.774 405.77ZM303.68 404.834C303.662 403.742 303.272 402.866 302.51 402.208C301.747 401.549 300.802 401.22 299.676 401.22C298.653 401.22 297.778 401.549 297.05 402.208C296.322 402.849 295.888 403.724 295.75 404.834H303.68ZM316.919 398.724C318.045 398.724 319.051 398.958 319.935 399.426C320.836 399.894 321.538 400.587 322.041 401.506C322.543 402.424 322.795 403.534 322.795 404.834V413.284H319.857V405.276C319.857 403.993 319.536 403.014 318.895 402.338C318.253 401.644 317.378 401.298 316.269 401.298C315.159 401.298 314.275 401.644 313.617 402.338C312.975 403.014 312.655 403.993 312.655 405.276V413.284H309.691V398.958H312.655V400.596C313.14 400.006 313.755 399.547 314.501 399.218C315.263 398.888 316.069 398.724 316.919 398.724ZM330.033 401.376V409.306C330.033 409.843 330.155 410.233 330.397 410.476C330.657 410.701 331.091 410.814 331.697 410.814H333.517V413.284H331.177C329.843 413.284 328.82 412.972 328.109 412.348C327.399 411.724 327.043 410.71 327.043 409.306V401.376H325.353V398.958H327.043V395.396H330.033V398.958H333.517V401.376H330.033Z" fill="#595959"/>
<path d="M136.387 366.543H143.747V370.095H131.907V347.759H136.387V366.543ZM148.866 350.255C148.077 350.255 147.415 350.01 146.882 349.519C146.37 349.007 146.114 348.378 146.114 347.631C146.114 346.885 146.37 346.266 146.882 345.775C147.415 345.263 148.077 345.007 148.866 345.007C149.655 345.007 150.306 345.263 150.818 345.775C151.351 346.266 151.618 346.885 151.618 347.631C151.618 348.378 151.351 349.007 150.818 349.519C150.306 350.01 149.655 350.255 148.866 350.255ZM151.074 352.367V370.095H146.594V352.367H151.074ZM165.324 352.111C167.436 352.111 169.143 352.783 170.444 354.127C171.746 355.45 172.396 357.306 172.396 359.695V370.095H167.916V360.303C167.916 358.895 167.564 357.818 166.86 357.071C166.156 356.303 165.196 355.919 163.98 355.919C162.743 355.919 161.762 356.303 161.036 357.071C160.332 357.818 159.98 358.895 159.98 360.303V370.095H155.5V352.367H159.98V354.575C160.578 353.807 161.335 353.21 162.252 352.783C163.191 352.335 164.215 352.111 165.324 352.111ZM187.153 370.095L181.137 362.543V370.095H176.657V346.415H181.137V359.887L187.089 352.367H192.913L185.105 361.263L192.977 370.095H187.153ZM211.824 360.847C211.824 361.487 211.781 362.063 211.696 362.575H198.736C198.843 363.855 199.291 364.858 200.08 365.583C200.869 366.309 201.84 366.671 202.992 366.671C204.656 366.671 205.84 365.957 206.544 364.527H211.376C210.864 366.234 209.883 367.642 208.432 368.751C206.981 369.839 205.2 370.383 203.088 370.383C201.381 370.383 199.845 370.01 198.48 369.263C197.136 368.495 196.08 367.418 195.312 366.031C194.565 364.645 194.192 363.045 194.192 361.231C194.192 359.397 194.565 357.786 195.312 356.399C196.059 355.013 197.104 353.946 198.448 353.199C199.792 352.453 201.339 352.079 203.088 352.079C204.773 352.079 206.277 352.442 207.6 353.167C208.944 353.893 209.979 354.927 210.704 356.271C211.451 357.594 211.824 359.119 211.824 360.847ZM207.184 359.567C207.163 358.415 206.747 357.498 205.936 356.815C205.125 356.111 204.133 355.759 202.96 355.759C201.851 355.759 200.912 356.101 200.144 356.783C199.397 357.445 198.939 358.373 198.768 359.567H207.184ZM213.942 361.167C213.942 359.375 214.294 357.786 214.998 356.399C215.723 355.013 216.705 353.946 217.942 353.199C219.179 352.453 220.555 352.079 222.07 352.079C223.222 352.079 224.321 352.335 225.366 352.847C226.411 353.338 227.243 353.999 227.862 354.831V346.415H232.406V370.095H227.862V367.471C227.307 368.346 226.529 369.05 225.526 369.583C224.523 370.117 223.361 370.383 222.038 370.383C220.545 370.383 219.179 369.999 217.942 369.231C216.705 368.463 215.723 367.386 214.998 365.999C214.294 364.591 213.942 362.981 213.942 361.167ZM227.894 361.231C227.894 360.143 227.681 359.215 227.254 358.447C226.827 357.658 226.251 357.061 225.526 356.655C224.801 356.229 224.022 356.015 223.19 356.015C222.358 356.015 221.59 356.218 220.886 356.623C220.182 357.029 219.606 357.626 219.158 358.415C218.731 359.183 218.518 360.101 218.518 361.167C218.518 362.234 218.731 363.173 219.158 363.983C219.606 364.773 220.182 365.381 220.886 365.807C221.611 366.234 222.379 366.447 223.19 366.447C224.022 366.447 224.801 366.245 225.526 365.839C226.251 365.413 226.827 364.815 227.254 364.047C227.681 363.258 227.894 362.319 227.894 361.231ZM239.054 350.255C238.264 350.255 237.603 350.01 237.07 349.519C236.558 349.007 236.302 348.378 236.302 347.631C236.302 346.885 236.558 346.266 237.07 345.775C237.603 345.263 238.264 345.007 239.054 345.007C239.843 345.007 240.494 345.263 241.006 345.775C241.539 346.266 241.806 346.885 241.806 347.631C241.806 348.378 241.539 349.007 241.006 349.519C240.494 350.01 239.843 350.255 239.054 350.255ZM241.262 352.367V370.095H236.782V352.367H241.262ZM255.512 352.111C257.624 352.111 259.33 352.783 260.632 354.127C261.933 355.45 262.584 357.306 262.584 359.695V370.095H258.104V360.303C258.104 358.895 257.752 357.818 257.048 357.071C256.344 356.303 255.384 355.919 254.168 355.919C252.93 355.919 251.949 356.303 251.224 357.071C250.52 357.818 250.168 358.895 250.168 360.303V370.095H245.688V352.367H250.168V354.575C250.765 353.807 251.522 353.21 252.44 352.783C253.378 352.335 254.402 352.111 255.512 352.111Z" fill="#19154E"/>
<rect x="31.6707" y="25.6192" width="330.549" height="189.58" rx="24" fill="#0A66C2"/>
<rect x="151.581" y="72.6088" width="90.739" height="93.9797" fill="white"/>
<path d="M234.55 157.198H218.995V132.837C218.995 127.029 218.891 119.551 210.905 119.551C202.803 119.551 201.563 125.88 201.563 132.415V157.196H186.008V107.102H200.941V113.948H201.15C202.645 111.392 204.804 109.29 207.399 107.865C209.993 106.44 212.926 105.746 215.884 105.856C231.65 105.856 234.557 116.226 234.557 129.717L234.55 157.198ZM168.457 100.254C166.671 100.254 164.926 99.7253 163.441 98.7337C161.956 97.7421 160.799 96.3325 160.116 94.6831C159.432 93.0338 159.253 91.2188 159.601 89.4677C159.949 87.7166 160.809 86.108 162.071 84.8453C163.333 83.5827 164.941 82.7227 166.692 82.374C168.443 82.0254 170.258 82.2039 171.908 82.8868C173.557 83.5697 174.967 84.7265 175.96 86.2107C176.952 87.695 177.481 89.4402 177.482 91.2256C177.482 92.411 177.249 93.5849 176.795 94.6801C176.342 95.7754 175.677 96.7706 174.839 97.609C174.001 98.4474 173.006 99.1125 171.911 99.5663C170.816 100.02 169.642 100.254 168.457 100.254ZM176.234 157.198H160.663V107.102H176.234V157.198ZM242.305 67.755H152.846C150.816 67.732 148.859 68.5162 147.407 69.9351C145.954 71.354 145.124 73.2915 145.099 75.3219V165.152C145.123 167.183 145.953 169.122 147.405 170.543C148.858 171.963 150.815 172.749 152.846 172.727H242.305C244.341 172.753 246.303 171.969 247.761 170.549C249.22 169.128 250.054 167.187 250.083 165.152V75.3155C250.054 73.281 249.218 71.3412 247.76 69.9224C246.302 68.5035 244.34 67.7216 242.305 67.7485" fill="#0A66C2"/>
<defs>
<filter id="filter0_d_10_499" x="0" y="0" width="382.035" height="551.12" filterUnits="userSpaceOnUse" color-interpolation-filters="sRGB">
<feFlood flood-opacity="0" result="BackgroundImageFix"/>
<feColorMatrix in="SourceAlpha" type="matrix" values="0 0 0 0 0 0 0 0 0 0 0 0 0 0 0 0 0 0 127 0" result="hardAlpha"/>
<feOffset dy="4"/>
<feGaussianBlur stdDeviation="2"/>
<feComposite in2="hardAlpha" operator="out"/>
<feColorMatrix type="matrix" values="0 0 0 0 0 0 0 0 0 0 0 0 0 0 0 0 0 0 0.25 0"/>
<feBlend mode="normal" in2="BackgroundImageFix" result="effect1_dropShadow_10_499"/>
<feBlend mode="normal" in="SourceGraphic" in2="effect1_dropShadow_10_499" result="shape"/>
</filter>
<linearGradient id="paint0_linear_10_499" x1="191.018" y1="0" x2="191.018" y2="1518.17" gradientUnits="userSpaceOnUse">
<stop stop-color="white"/>
<stop offset="1" stop-color="#0A66C2"/>
</linearGradient>
</defs>
</svg>
