<svg width="375" height="544" viewBox="0 0 375 544" fill="none" xmlns="http://www.w3.org/2000/svg">
<rect width="374.035" height="543.12" rx="12" fill="url(#paint0_linear_10_572)"/>
<path d="M63.4441 400.595C63.4441 401.514 63.2274 402.38 62.7941 403.195C62.3607 404.01 61.6674 404.677 60.7141 405.197C59.7607 405.7 58.5387 405.951 57.0481 405.951H53.7721V413.283H50.8081V395.213H57.0481C58.4347 395.213 59.6047 395.456 60.5581 395.941C61.5287 396.409 62.2481 397.05 62.7161 397.865C63.2014 398.68 63.4441 399.59 63.4441 400.595ZM57.0481 403.533C58.1747 403.533 59.0154 403.282 59.5701 402.779C60.1247 402.259 60.4021 401.531 60.4021 400.595C60.4021 398.619 59.2841 397.631 57.0481 397.631H53.7721V403.533H57.0481ZM69.235 401.037C69.6683 400.309 70.2403 399.746 70.951 399.347C71.679 398.931 72.537 398.723 73.525 398.723V401.791H72.771C71.6096 401.791 70.7256 402.086 70.119 402.675C69.5296 403.264 69.235 404.287 69.235 405.743V413.283H66.271V398.957H69.235V401.037ZM82.4635 413.517C81.1115 413.517 79.8895 413.214 78.7975 412.607C77.7055 411.983 76.8475 411.116 76.2235 410.007C75.5995 408.88 75.2875 407.58 75.2875 406.107C75.2875 404.651 75.6081 403.36 76.2495 402.233C76.8908 401.106 77.7661 400.24 78.8755 399.633C79.9848 399.026 81.2241 398.723 82.5935 398.723C83.9628 398.723 85.2021 399.026 86.3115 399.633C87.4208 400.24 88.2961 401.106 88.9375 402.233C89.5788 403.36 89.8995 404.651 89.8995 406.107C89.8995 407.563 89.5701 408.854 88.9115 409.981C88.2528 411.108 87.3515 411.983 86.2075 412.607C85.0808 413.214 83.8328 413.517 82.4635 413.517ZM82.4635 410.943C83.2261 410.943 83.9368 410.761 84.5955 410.397C85.2715 410.033 85.8175 409.487 86.2335 408.759C86.6495 408.031 86.8575 407.147 86.8575 406.107C86.8575 405.067 86.6581 404.192 86.2595 403.481C85.8608 402.753 85.3321 402.207 84.6735 401.843C84.0148 401.479 83.3041 401.297 82.5415 401.297C81.7788 401.297 81.0681 401.479 80.4095 401.843C79.7681 402.207 79.2568 402.753 78.8755 403.481C78.4941 404.192 78.3035 405.067 78.3035 406.107C78.3035 407.65 78.6935 408.846 79.4735 409.695C80.2708 410.527 81.2675 410.943 82.4635 410.943ZM94.3375 397.059C93.8002 397.059 93.3495 396.877 92.9855 396.513C92.6215 396.149 92.4395 395.698 92.4395 395.161C92.4395 394.624 92.6215 394.173 92.9855 393.809C93.3495 393.445 93.8002 393.263 94.3375 393.263C94.8575 393.263 95.2995 393.445 95.6635 393.809C96.0275 394.173 96.2095 394.624 96.2095 395.161C96.2095 395.698 96.0275 396.149 95.6635 396.513C95.2995 396.877 94.8575 397.059 94.3375 397.059ZM95.7935 416.091C95.7935 417.495 95.4382 418.509 94.7275 419.133C94.0342 419.774 93.0202 420.095 91.6855 420.095H90.1515V417.599H91.1655C91.7722 417.599 92.1969 417.478 92.4395 417.235C92.6995 417.01 92.8295 416.628 92.8295 416.091V398.957H95.7935V416.091ZM112.815 405.769C112.815 406.306 112.78 406.792 112.711 407.225H101.765C101.852 408.369 102.276 409.288 103.039 409.981C103.802 410.674 104.738 411.021 105.847 411.021C107.442 411.021 108.568 410.354 109.227 409.019H112.425C111.992 410.336 111.203 411.42 110.059 412.269C108.932 413.101 107.528 413.517 105.847 413.517C104.478 413.517 103.247 413.214 102.155 412.607C101.08 411.983 100.231 411.116 99.607 410.007C99.0003 408.88 98.697 407.58 98.697 406.107C98.697 404.634 98.9917 403.342 99.581 402.233C100.188 401.106 101.028 400.24 102.103 399.633C103.195 399.026 104.443 398.723 105.847 398.723C107.199 398.723 108.404 399.018 109.461 399.607C110.518 400.196 111.342 401.028 111.931 402.103C112.52 403.16 112.815 404.382 112.815 405.769ZM109.721 404.833C109.704 403.741 109.314 402.866 108.551 402.207C107.788 401.548 106.844 401.219 105.717 401.219C104.694 401.219 103.819 401.548 103.091 402.207C102.363 402.848 101.93 403.724 101.791 404.833H109.721ZM114.744 406.107C114.744 404.634 115.039 403.342 115.628 402.233C116.235 401.106 117.067 400.24 118.124 399.633C119.181 399.026 120.395 398.723 121.764 398.723C123.497 398.723 124.927 399.139 126.054 399.971C127.198 400.786 127.969 401.956 128.368 403.481H125.17C124.91 402.77 124.494 402.216 123.922 401.817C123.35 401.418 122.631 401.219 121.764 401.219C120.551 401.219 119.58 401.652 118.852 402.519C118.141 403.368 117.786 404.564 117.786 406.107C117.786 407.65 118.141 408.854 118.852 409.721C119.58 410.588 120.551 411.021 121.764 411.021C123.48 411.021 124.615 410.267 125.17 408.759H128.368C127.952 410.215 127.172 411.376 126.028 412.243C124.884 413.092 123.463 413.517 121.764 413.517C120.395 413.517 119.181 413.214 118.124 412.607C117.067 411.983 116.235 411.116 115.628 410.007C115.039 408.88 114.744 407.58 114.744 406.107ZM134.78 401.375V409.305C134.78 409.842 134.901 410.232 135.144 410.475C135.404 410.7 135.837 410.813 136.444 410.813H138.264V413.283H135.924C134.589 413.283 133.566 412.971 132.856 412.347C132.145 411.723 131.79 410.709 131.79 409.305V401.375H130.1V398.957H131.79V395.395H134.78V398.957H138.264V401.375H134.78ZM166.781 395.213V413.283H163.817V400.907L158.305 413.283H156.251L150.713 400.907V413.283H147.749V395.213H150.947L157.291 409.383L163.609 395.213H166.781ZM169.689 406.055C169.689 404.616 169.984 403.342 170.573 402.233C171.18 401.124 171.995 400.266 173.017 399.659C174.057 399.035 175.201 398.723 176.449 398.723C177.576 398.723 178.555 398.948 179.387 399.399C180.237 399.832 180.913 400.378 181.415 401.037V398.957H184.405V413.283H181.415V411.151C180.913 411.827 180.228 412.39 179.361 412.841C178.495 413.292 177.507 413.517 176.397 413.517C175.167 413.517 174.04 413.205 173.017 412.581C171.995 411.94 171.18 411.056 170.573 409.929C169.984 408.785 169.689 407.494 169.689 406.055ZM181.415 406.107C181.415 405.119 181.207 404.261 180.791 403.533C180.393 402.805 179.864 402.25 179.205 401.869C178.547 401.488 177.836 401.297 177.073 401.297C176.311 401.297 175.6 401.488 174.941 401.869C174.283 402.233 173.745 402.779 173.329 403.507C172.931 404.218 172.731 405.067 172.731 406.055C172.731 407.043 172.931 407.91 173.329 408.655C173.745 409.4 174.283 409.972 174.941 410.371C175.617 410.752 176.328 410.943 177.073 410.943C177.836 410.943 178.547 410.752 179.205 410.371C179.864 409.99 180.393 409.435 180.791 408.707C181.207 407.962 181.415 407.095 181.415 406.107ZM195.526 398.723C196.653 398.723 197.658 398.957 198.542 399.425C199.444 399.893 200.146 400.586 200.648 401.505C201.151 402.424 201.402 403.533 201.402 404.833V413.283H198.464V405.275C198.464 403.992 198.144 403.013 197.502 402.337C196.861 401.644 195.986 401.297 194.876 401.297C193.767 401.297 192.883 401.644 192.224 402.337C191.583 403.013 191.262 403.992 191.262 405.275V413.283H188.298V398.957H191.262V400.595C191.748 400.006 192.363 399.546 193.108 399.217C193.871 398.888 194.677 398.723 195.526 398.723ZM204.195 406.055C204.195 404.616 204.49 403.342 205.079 402.233C205.686 401.124 206.5 400.266 207.523 399.659C208.563 399.035 209.707 398.723 210.955 398.723C212.082 398.723 213.061 398.948 213.893 399.399C214.742 399.832 215.418 400.378 215.921 401.037V398.957H218.911V413.283H215.921V411.151C215.418 411.827 214.734 412.39 213.867 412.841C213 413.292 212.012 413.517 210.903 413.517C209.672 413.517 208.546 413.205 207.523 412.581C206.5 411.94 205.686 411.056 205.079 409.929C204.49 408.785 204.195 407.494 204.195 406.055ZM215.921 406.107C215.921 405.119 215.713 404.261 215.297 403.533C214.898 402.805 214.37 402.25 213.711 401.869C213.052 401.488 212.342 401.297 211.579 401.297C210.816 401.297 210.106 401.488 209.447 401.869C208.788 402.233 208.251 402.779 207.835 403.507C207.436 404.218 207.237 405.067 207.237 406.055C207.237 407.043 207.436 407.91 207.835 408.655C208.251 409.4 208.788 409.972 209.447 410.371C210.123 410.752 210.834 410.943 211.579 410.943C212.342 410.943 213.052 410.752 213.711 410.371C214.37 409.99 214.898 409.435 215.297 408.707C215.713 407.962 215.921 407.095 215.921 406.107ZM228.576 398.723C229.685 398.723 230.665 398.948 231.514 399.399C232.381 399.832 233.057 400.378 233.542 401.037V398.957H236.532V413.517C236.532 414.834 236.255 416.004 235.7 417.027C235.145 418.067 234.339 418.882 233.282 419.471C232.242 420.06 230.994 420.355 229.538 420.355C227.597 420.355 225.985 419.896 224.702 418.977C223.419 418.076 222.691 416.845 222.518 415.285H225.456C225.681 416.03 226.158 416.628 226.886 417.079C227.631 417.547 228.515 417.781 229.538 417.781C230.734 417.781 231.696 417.417 232.424 416.689C233.169 415.961 233.542 414.904 233.542 413.517V411.125C233.039 411.801 232.355 412.373 231.488 412.841C230.639 413.292 229.668 413.517 228.576 413.517C227.328 413.517 226.184 413.205 225.144 412.581C224.121 411.94 223.307 411.056 222.7 409.929C222.111 408.785 221.816 407.494 221.816 406.055C221.816 404.616 222.111 403.342 222.7 402.233C223.307 401.124 224.121 400.266 225.144 399.659C226.184 399.035 227.328 398.723 228.576 398.723ZM233.542 406.107C233.542 405.119 233.334 404.261 232.918 403.533C232.519 402.805 231.991 402.25 231.332 401.869C230.673 401.488 229.963 401.297 229.2 401.297C228.437 401.297 227.727 401.488 227.068 401.869C226.409 402.233 225.872 402.779 225.456 403.507C225.057 404.218 224.858 405.067 224.858 406.055C224.858 407.043 225.057 407.91 225.456 408.655C225.872 409.4 226.409 409.972 227.068 410.371C227.744 410.752 228.455 410.943 229.2 410.943C229.963 410.943 230.673 410.752 231.332 410.371C231.991 409.99 232.519 409.435 232.918 408.707C233.334 407.962 233.542 407.095 233.542 406.107ZM253.555 405.769C253.555 406.306 253.521 406.792 253.451 407.225H242.505C242.592 408.369 243.017 409.288 243.779 409.981C244.542 410.674 245.478 411.021 246.587 411.021C248.182 411.021 249.309 410.354 249.967 409.019H253.165C252.732 410.336 251.943 411.42 250.799 412.269C249.673 413.101 248.269 413.517 246.587 413.517C245.218 413.517 243.987 413.214 242.895 412.607C241.821 411.983 240.971 411.116 240.347 410.007C239.741 408.88 239.437 407.58 239.437 406.107C239.437 404.634 239.732 403.342 240.321 402.233C240.928 401.106 241.769 400.24 242.843 399.633C243.935 399.026 245.183 398.723 246.587 398.723C247.939 398.723 249.144 399.018 250.201 399.607C251.259 400.196 252.082 401.028 252.671 402.103C253.261 403.16 253.555 404.382 253.555 405.769ZM250.461 404.833C250.444 403.741 250.054 402.866 249.291 402.207C248.529 401.548 247.584 401.219 246.457 401.219C245.435 401.219 244.559 401.548 243.831 402.207C243.103 402.848 242.67 403.724 242.531 404.833H250.461ZM273.814 398.723C274.941 398.723 275.946 398.957 276.83 399.425C277.731 399.893 278.433 400.586 278.936 401.505C279.456 402.424 279.716 403.533 279.716 404.833V413.283H276.778V405.275C276.778 403.992 276.457 403.013 275.816 402.337C275.175 401.644 274.299 401.297 273.19 401.297C272.081 401.297 271.197 401.644 270.538 402.337C269.897 403.013 269.576 403.992 269.576 405.275V413.283H266.638V405.275C266.638 403.992 266.317 403.013 265.676 402.337C265.035 401.644 264.159 401.297 263.05 401.297C261.941 401.297 261.057 401.644 260.398 402.337C259.757 403.013 259.436 403.992 259.436 405.275V413.283H256.472V398.957H259.436V400.595C259.921 400.006 260.537 399.546 261.282 399.217C262.027 398.888 262.825 398.723 263.674 398.723C264.818 398.723 265.841 398.966 266.742 399.451C267.643 399.936 268.337 400.638 268.822 401.557C269.255 400.69 269.931 400.006 270.85 399.503C271.769 398.983 272.757 398.723 273.814 398.723ZM296.618 405.769C296.618 406.306 296.583 406.792 296.514 407.225H285.568C285.654 408.369 286.079 409.288 286.842 409.981C287.604 410.674 288.54 411.021 289.65 411.021C291.244 411.021 292.371 410.354 293.03 409.019H296.228C295.794 410.336 295.006 411.42 293.862 412.269C292.735 413.101 291.331 413.517 289.65 413.517C288.28 413.517 287.05 413.214 285.958 412.607C284.883 411.983 284.034 411.116 283.41 410.007C282.803 408.88 282.5 407.58 282.5 406.107C282.5 404.634 282.794 403.342 283.384 402.233C283.99 401.106 284.831 400.24 285.906 399.633C286.998 399.026 288.246 398.723 289.65 398.723C291.002 398.723 292.206 399.018 293.264 399.607C294.321 400.196 295.144 401.028 295.734 402.103C296.323 403.16 296.618 404.382 296.618 405.769ZM293.524 404.833C293.506 403.741 293.116 402.866 292.354 402.207C291.591 401.548 290.646 401.219 289.52 401.219C288.497 401.219 287.622 401.548 286.894 402.207C286.166 402.848 285.732 403.724 285.594 404.833H293.524ZM306.763 398.723C307.889 398.723 308.895 398.957 309.779 399.425C310.68 399.893 311.382 400.586 311.885 401.505C312.387 402.424 312.639 403.533 312.639 404.833V413.283H309.701V405.275C309.701 403.992 309.38 403.013 308.739 402.337C308.097 401.644 307.222 401.297 306.113 401.297C305.003 401.297 304.119 401.644 303.461 402.337C302.819 403.013 302.499 403.992 302.499 405.275V413.283H299.535V398.957H302.499V400.595C302.984 400.006 303.599 399.546 304.345 399.217C305.107 398.888 305.913 398.723 306.763 398.723ZM319.877 401.375V409.305C319.877 409.842 319.999 410.232 320.241 410.475C320.501 410.7 320.935 410.813 321.541 410.813H323.361V413.283H321.021C319.687 413.283 318.664 412.971 317.953 412.347C317.243 411.723 316.887 410.709 316.887 409.305V401.375H315.197V398.957H316.887V395.395H319.877V398.957H323.361V401.375H319.877Z" fill="#595959"/>
<path d="M84.8826 358.895C84.8826 356.697 85.3732 354.735 86.3546 353.007C87.3572 351.257 88.7119 349.903 90.4186 348.943C92.1466 347.961 94.0772 347.471 96.2106 347.471C98.7066 347.471 100.893 348.111 102.771 349.391C104.648 350.671 105.96 352.441 106.707 354.703H101.555C101.043 353.636 100.317 352.836 99.3786 352.303C98.4612 351.769 97.3946 351.503 96.1786 351.503C94.8772 351.503 93.7146 351.812 92.6906 352.431C91.6879 353.028 90.8986 353.881 90.3226 354.991C89.7679 356.1 89.4906 357.401 89.4906 358.895C89.4906 360.367 89.7679 361.668 90.3226 362.799C90.8986 363.908 91.6879 364.772 92.6906 365.391C93.7146 365.988 94.8772 366.287 96.1786 366.287C97.3946 366.287 98.4612 366.02 99.3786 365.487C100.317 364.932 101.043 364.121 101.555 363.055H106.707C105.96 365.337 104.648 367.119 102.771 368.399C100.915 369.657 98.7279 370.287 96.2106 370.287C94.0772 370.287 92.1466 369.807 90.4186 368.847C88.7119 367.865 87.3572 366.511 86.3546 364.783C85.3732 363.055 84.8826 361.092 84.8826 358.895ZM120.517 352.111C121.861 352.111 123.056 352.409 124.101 353.007C125.146 353.583 125.957 354.447 126.533 355.599C127.13 356.729 127.429 358.095 127.429 359.695V370.095H122.949V360.303C122.949 358.895 122.597 357.817 121.893 357.071C121.189 356.303 120.229 355.919 119.013 355.919C117.776 355.919 116.794 356.303 116.069 357.071C115.365 357.817 115.013 358.895 115.013 360.303V370.095H110.533V346.415H115.013V354.575C115.589 353.807 116.357 353.209 117.317 352.783C118.277 352.335 119.344 352.111 120.517 352.111ZM133.961 350.255C133.172 350.255 132.511 350.009 131.977 349.519C131.465 349.007 131.209 348.377 131.209 347.631C131.209 346.884 131.465 346.265 131.977 345.775C132.511 345.263 133.172 345.007 133.961 345.007C134.751 345.007 135.401 345.263 135.913 345.775C136.447 346.265 136.713 346.884 136.713 347.631C136.713 348.377 136.447 349.007 135.913 349.519C135.401 350.009 134.751 350.255 133.961 350.255ZM136.169 352.367V370.095H131.689V352.367H136.169ZM162.612 352.111C164.788 352.111 166.537 352.783 167.86 354.127C169.204 355.449 169.876 357.305 169.876 359.695V370.095H165.396V360.303C165.396 358.916 165.044 357.86 164.34 357.135C163.636 356.388 162.676 356.015 161.46 356.015C160.244 356.015 159.273 356.388 158.548 357.135C157.844 357.86 157.492 358.916 157.492 360.303V370.095H153.012V360.303C153.012 358.916 152.66 357.86 151.956 357.135C151.252 356.388 150.292 356.015 149.076 356.015C147.838 356.015 146.857 356.388 146.132 357.135C145.428 357.86 145.076 358.916 145.076 360.303V370.095H140.596V352.367H145.076V354.511C145.652 353.764 146.388 353.177 147.284 352.751C148.201 352.324 149.204 352.111 150.292 352.111C151.678 352.111 152.916 352.409 154.004 353.007C155.092 353.583 155.934 354.415 156.532 355.503C157.108 354.479 157.94 353.657 159.028 353.039C160.137 352.42 161.332 352.111 162.612 352.111ZM178.607 354.927C179.183 354.116 179.972 353.444 180.975 352.911C181.999 352.356 183.161 352.079 184.463 352.079C185.977 352.079 187.343 352.452 188.559 353.199C189.796 353.945 190.767 355.012 191.471 356.399C192.196 357.764 192.559 359.353 192.559 361.167C192.559 362.98 192.196 364.591 191.471 365.999C190.767 367.385 189.796 368.463 188.559 369.231C187.343 369.999 185.977 370.383 184.463 370.383C183.161 370.383 182.009 370.116 181.007 369.583C180.025 369.049 179.225 368.377 178.607 367.567V378.543H174.127V352.367H178.607V354.927ZM187.983 361.167C187.983 360.1 187.759 359.183 187.311 358.415C186.884 357.625 186.308 357.028 185.583 356.623C184.879 356.217 184.111 356.015 183.279 356.015C182.468 356.015 181.7 356.228 180.975 356.655C180.271 357.06 179.695 357.657 179.247 358.447C178.82 359.236 178.607 360.164 178.607 361.231C178.607 362.297 178.82 363.225 179.247 364.015C179.695 364.804 180.271 365.412 180.975 365.839C181.7 366.244 182.468 366.447 183.279 366.447C184.111 366.447 184.879 366.233 185.583 365.807C186.308 365.38 186.884 364.772 187.311 363.983C187.759 363.193 187.983 362.255 187.983 361.167ZM227.791 347.759V370.095H223.311V355.567L217.327 370.095H213.935L207.919 355.567V370.095H203.439V347.759H208.527L215.631 364.367L222.735 347.759H227.791ZM240.093 370.383C238.386 370.383 236.85 370.009 235.485 369.263C234.119 368.495 233.042 367.417 232.253 366.031C231.485 364.644 231.101 363.044 231.101 361.231C231.101 359.417 231.495 357.817 232.285 356.431C233.095 355.044 234.194 353.977 235.581 353.231C236.967 352.463 238.514 352.079 240.221 352.079C241.927 352.079 243.474 352.463 244.861 353.231C246.247 353.977 247.335 355.044 248.125 356.431C248.935 357.817 249.341 359.417 249.341 361.231C249.341 363.044 248.925 364.644 248.093 366.031C247.282 367.417 246.173 368.495 244.765 369.263C243.378 370.009 241.821 370.383 240.093 370.383ZM240.093 366.479C240.903 366.479 241.661 366.287 242.365 365.903C243.09 365.497 243.666 364.9 244.093 364.111C244.519 363.321 244.733 362.361 244.733 361.231C244.733 359.545 244.285 358.255 243.389 357.359C242.514 356.441 241.437 355.983 240.157 355.983C238.877 355.983 237.799 356.441 236.925 357.359C236.071 358.255 235.645 359.545 235.645 361.231C235.645 362.916 236.061 364.217 236.893 365.135C237.746 366.031 238.813 366.479 240.093 366.479ZM262.451 352.111C264.563 352.111 266.269 352.783 267.571 354.127C268.872 355.449 269.523 357.305 269.523 359.695V370.095H265.043V360.303C265.043 358.895 264.691 357.817 263.987 357.071C263.283 356.303 262.323 355.919 261.107 355.919C259.869 355.919 258.888 356.303 258.163 357.071C257.459 357.817 257.107 358.895 257.107 360.303V370.095H252.627V352.367H257.107V354.575C257.704 353.807 258.461 353.209 259.379 352.783C260.317 352.335 261.341 352.111 262.451 352.111ZM284.279 370.095L278.263 362.543V370.095H273.783V346.415H278.263V359.887L284.215 352.367H290.039L282.231 361.263L290.103 370.095H284.279Z" fill="#19154E"/>
<rect x="21.5227" y="25.6191" width="330.549" height="189.58" rx="24" fill="#FFE002"/>
<g clip-path="url(#clip0_10_572)">
<path d="M184.789 74.2289C167.564 74.1712 134.426 113.659 146.806 124.118L149.846 126.693C149.026 128.893 148.736 131.256 149 133.589C149.323 136.822 150.993 139.916 153.695 142.309C156.258 144.58 159.629 146.019 162.9 146.019C168.311 158.488 180.679 166.138 195.172 166.569C210.719 167.031 223.776 159.734 229.245 146.627C229.602 145.704 231.123 141.563 231.123 137.903C231.123 134.224 229.044 132.7 227.717 132.7C227.678 132.558 227.417 131.599 227.055 130.445C226.697 129.29 226.324 128.482 226.324 128.482C227.767 126.316 227.794 124.384 227.601 123.287C227.397 121.929 226.832 120.774 225.693 119.577C224.554 118.381 222.221 117.153 218.947 116.237L217.23 115.76C217.222 115.687 217.138 111.708 217.065 109.999C217.011 108.767 216.903 106.836 216.307 104.938C215.591 102.368 214.352 100.116 212.801 98.6772C217.08 94.244 219.751 89.3566 219.743 85.1658C219.732 77.1036 209.83 74.6638 197.631 79.7166L195.045 80.8134C193.466 79.2631 191.886 77.7148 190.304 76.1685C188.78 74.8408 186.906 74.2366 184.789 74.2289ZM185.07 77.5885C185.709 77.5885 186.309 77.6616 186.859 77.8117C188.002 78.135 191.785 82.522 191.785 82.522C191.785 82.522 184.758 86.4204 178.239 91.858C169.465 98.6195 162.827 108.448 158.855 119.112C155.734 119.72 152.983 121.49 151.301 123.934C150.297 123.095 148.422 121.471 148.092 120.84C145.405 115.737 151.02 105.824 154.945 100.224C163.881 87.4671 177.489 77.5654 185.07 77.5885ZM197.715 90.184C197.869 90.1763 197.946 90.3764 197.823 90.4688C197.273 90.8921 196.673 91.4693 196.234 92.062C196.217 92.0846 196.206 92.1114 196.204 92.1396C196.201 92.1677 196.206 92.1961 196.218 92.2215C196.231 92.2469 196.25 92.2685 196.274 92.2838C196.297 92.2991 196.325 92.3076 196.353 92.3083C198.889 92.3237 202.46 93.2126 204.789 94.5172C204.946 94.6057 204.835 94.9136 204.658 94.8713C201.137 94.0631 195.368 93.4512 189.38 94.9097C184.031 96.2182 179.952 98.2308 176.973 100.397C176.819 100.505 176.642 100.309 176.761 100.167C180.209 96.1835 184.454 92.72 188.256 90.7767C188.387 90.7074 188.526 90.8498 188.456 90.9768C188.152 91.5271 187.571 92.697 187.387 93.5859C187.36 93.7206 187.51 93.8284 187.625 93.7475C189.992 92.1313 194.106 90.4072 197.715 90.184ZM209.349 102.518L209.564 102.522C210.189 102.546 210.796 102.741 211.319 103.084C213.374 104.45 213.667 107.763 213.774 110.184C213.832 111.569 214.001 114.913 214.059 115.871C214.19 118.069 214.767 118.377 215.933 118.762C216.588 118.981 217.203 119.139 218.1 119.393C220.817 120.155 222.429 120.932 223.449 121.925C224.053 122.548 224.334 123.206 224.423 123.837C224.742 126.177 222.606 129.071 216.949 131.692C210.765 134.563 203.261 135.29 198.077 134.713L196.265 134.509C192.116 133.951 189.749 139.308 192.239 142.979C193.844 145.346 198.212 146.885 202.584 146.885C212.605 146.885 220.305 142.609 223.172 138.911C223.255 138.806 223.332 138.697 223.403 138.584C223.541 138.372 223.426 138.257 223.249 138.376C220.909 139.977 210.511 146.338 199.389 144.422C199.389 144.422 198.039 144.203 196.803 143.722C195.822 143.337 193.771 142.398 193.521 140.293C202.499 143.064 208.148 140.443 208.148 140.443C208.201 140.419 208.244 140.38 208.273 140.33C208.302 140.28 208.315 140.223 208.31 140.166C208.306 140.132 208.296 140.099 208.28 140.069C208.264 140.039 208.242 140.012 208.216 139.991C208.189 139.969 208.159 139.953 208.126 139.944C208.093 139.934 208.059 139.931 208.025 139.935C208.025 139.935 200.671 141.024 193.717 138.48C194.475 136.017 196.488 136.91 199.528 137.153C204.258 137.433 209.002 136.921 213.563 135.636C216.711 134.736 220.844 132.954 224.057 130.418C225.138 132.796 225.519 135.417 225.519 135.417C225.519 135.417 226.362 135.263 227.059 135.698C227.725 136.106 228.209 136.952 227.878 139.142C227.201 143.233 225.462 146.554 222.541 149.61C220.715 151.584 218.541 153.207 216.13 154.397C214.821 155.09 213.42 155.682 211.946 156.167C200.929 159.765 189.649 155.809 186.013 147.316C185.718 146.666 185.475 145.995 185.285 145.307C183.735 139.708 185.055 132.993 189.165 128.763C189.415 128.494 189.672 128.174 189.672 127.778C189.672 127.443 189.461 127.089 189.28 126.843C187.841 124.753 182.857 121.201 183.858 114.321C184.577 109.379 188.899 105.897 192.928 106.104C193.271 106.12 193.609 106.143 193.952 106.162C195.695 106.266 197.223 106.489 198.658 106.547C201.063 106.655 203.226 106.305 205.789 104.169C206.655 103.449 207.348 102.822 208.521 102.626C208.629 102.606 208.876 102.518 209.349 102.518ZM209.434 110.907C209.356 110.908 209.279 110.914 209.203 110.926C207.913 111.134 207.867 112.727 208.325 114.929C208.587 116.16 209.045 117.218 209.557 117.873C210.23 117.796 210.877 117.788 211.473 117.873C211.816 117.084 211.873 115.729 211.565 114.247C211.134 112.189 210.561 110.892 209.434 110.907ZM195.349 116.857C193.946 116.851 192.577 117.29 191.439 118.111C190.823 118.561 190.242 119.189 190.323 119.566C190.354 119.689 190.442 119.781 190.661 119.808C191.166 119.866 192.94 118.973 194.979 118.846C196.419 118.758 197.612 119.208 198.531 119.616C199.451 120.016 200.017 120.282 200.236 120.051C200.378 119.904 200.336 119.627 200.117 119.266C199.663 118.527 198.731 117.776 197.739 117.353C196.983 117.03 196.17 116.861 195.349 116.857ZM211.058 119.974C210.399 119.962 209.853 120.69 209.838 121.59C209.822 122.498 210.342 123.245 211.004 123.252C211.666 123.264 212.212 122.541 212.227 121.636C212.243 120.728 211.719 119.985 211.058 119.974ZM197.281 120.636C197.088 120.636 196.888 120.643 196.684 120.666C195.487 120.859 194.825 121.251 194.402 121.617C194.04 121.933 193.817 122.283 193.817 122.529C193.817 122.567 193.824 122.605 193.838 122.641C193.852 122.676 193.873 122.708 193.9 122.736C193.927 122.763 193.959 122.784 193.994 122.799C194.03 122.814 194.067 122.821 194.106 122.821C194.375 122.821 194.983 122.579 194.983 122.579C196.211 122.116 197.538 121.978 198.835 122.179C199.439 122.248 199.72 122.283 199.855 122.079C199.894 122.017 199.94 121.89 199.817 121.694C199.574 121.298 198.624 120.659 197.281 120.636ZM205.978 122.175C205.489 122.175 205.073 122.371 204.889 122.745C204.6 123.337 205.023 124.141 205.835 124.538C206.643 124.938 207.54 124.78 207.836 124.191C208.125 123.595 207.702 122.791 206.89 122.394C206.607 122.252 206.295 122.179 205.978 122.175ZM161.203 122.267C161.387 122.267 161.58 122.267 161.776 122.279C164.585 122.433 168.726 124.588 169.673 130.707C170.508 136.133 169.18 141.647 164.097 142.517C163.623 142.594 163.142 142.629 162.657 142.617C157.962 142.49 152.887 138.261 152.382 133.247C151.824 127.705 154.657 123.441 159.671 122.429C160.121 122.337 160.641 122.275 161.203 122.267ZM160.933 125.835C160.323 125.829 159.717 125.951 159.156 126.192C158.595 126.433 158.09 126.789 157.674 127.235C156.211 128.844 155.984 131.038 156.265 131.815C156.369 132.096 156.535 132.177 156.65 132.192C156.896 132.223 157.266 132.042 157.497 131.422C157.52 131.356 157.542 131.29 157.562 131.222C157.702 130.724 157.905 130.245 158.166 129.798C158.357 129.507 158.604 129.255 158.892 129.059C159.18 128.862 159.504 128.724 159.845 128.653C160.186 128.582 160.539 128.579 160.881 128.644C161.224 128.709 161.55 128.841 161.842 129.033C162.865 129.702 163.262 130.957 162.823 132.15C162.6 132.769 162.23 133.955 162.311 134.924C162.477 136.891 163.685 137.684 164.774 137.764C165.828 137.803 166.567 137.214 166.756 136.779C166.867 136.521 166.775 136.368 166.713 136.298C166.548 136.094 166.279 136.156 166.021 136.217C165.82 136.272 165.613 136.3 165.405 136.302C165.184 136.308 164.965 136.259 164.768 136.16C164.57 136.061 164.4 135.914 164.274 135.733C163.973 135.271 163.993 134.578 164.324 133.793C164.366 133.685 164.42 133.57 164.478 133.439C165.009 132.254 165.894 130.264 164.901 128.371C164.151 126.947 162.927 126.054 161.461 125.869C161.284 125.846 161.107 125.833 160.929 125.831L160.933 125.835Z" fill="black"/>
</g>
<defs>
<linearGradient id="paint0_linear_10_572" x1="187.018" y1="0" x2="187.018" y2="1518.17" gradientUnits="userSpaceOnUse">
<stop stop-color="white"/>
<stop offset="1" stop-color="#FFE002"/>
</linearGradient>
<clipPath id="clip0_10_572">
<rect width="92.3593" height="92.3593" fill="white" transform="translate(141.43 74.229)"/>
</clipPath>
</defs>
</svg>
