<svg width="375" height="544" viewBox="0 0 375 544" fill="none" xmlns="http://www.w3.org/2000/svg">
<rect width="374.035" height="543.12" rx="12" fill="url(#paint0_linear_10_510)"/>
<path d="M63.4441 400.595C63.4441 401.514 63.2274 402.38 62.7941 403.195C62.3607 404.01 61.6674 404.677 60.7141 405.197C59.7607 405.7 58.5387 405.951 57.0481 405.951H53.7721V413.283H50.8081V395.213H57.0481C58.4347 395.213 59.6047 395.456 60.5581 395.941C61.5287 396.409 62.2481 397.05 62.7161 397.865C63.2014 398.68 63.4441 399.59 63.4441 400.595ZM57.0481 403.533C58.1747 403.533 59.0154 403.282 59.5701 402.779C60.1247 402.259 60.4021 401.531 60.4021 400.595C60.4021 398.619 59.2841 397.631 57.0481 397.631H53.7721V403.533H57.0481ZM69.235 401.037C69.6683 400.309 70.2403 399.746 70.951 399.347C71.679 398.931 72.537 398.723 73.525 398.723V401.791H72.771C71.6096 401.791 70.7256 402.086 70.119 402.675C69.5296 403.264 69.235 404.287 69.235 405.743V413.283H66.271V398.957H69.235V401.037ZM82.4635 413.517C81.1115 413.517 79.8895 413.214 78.7975 412.607C77.7055 411.983 76.8475 411.116 76.2235 410.007C75.5995 408.88 75.2875 407.58 75.2875 406.107C75.2875 404.651 75.6081 403.36 76.2495 402.233C76.8908 401.106 77.7661 400.24 78.8755 399.633C79.9848 399.026 81.2241 398.723 82.5935 398.723C83.9628 398.723 85.2021 399.026 86.3115 399.633C87.4208 400.24 88.2961 401.106 88.9375 402.233C89.5788 403.36 89.8995 404.651 89.8995 406.107C89.8995 407.563 89.5701 408.854 88.9115 409.981C88.2528 411.108 87.3515 411.983 86.2075 412.607C85.0808 413.214 83.8328 413.517 82.4635 413.517ZM82.4635 410.943C83.2261 410.943 83.9368 410.761 84.5955 410.397C85.2715 410.033 85.8175 409.487 86.2335 408.759C86.6495 408.031 86.8575 407.147 86.8575 406.107C86.8575 405.067 86.6581 404.192 86.2595 403.481C85.8608 402.753 85.3321 402.207 84.6735 401.843C84.0148 401.479 83.3041 401.297 82.5415 401.297C81.7788 401.297 81.0681 401.479 80.4095 401.843C79.7681 402.207 79.2568 402.753 78.8755 403.481C78.4941 404.192 78.3035 405.067 78.3035 406.107C78.3035 407.65 78.6935 408.846 79.4735 409.695C80.2708 410.527 81.2675 410.943 82.4635 410.943ZM94.3375 397.059C93.8002 397.059 93.3495 396.877 92.9855 396.513C92.6215 396.149 92.4395 395.698 92.4395 395.161C92.4395 394.624 92.6215 394.173 92.9855 393.809C93.3495 393.445 93.8002 393.263 94.3375 393.263C94.8575 393.263 95.2995 393.445 95.6635 393.809C96.0275 394.173 96.2095 394.624 96.2095 395.161C96.2095 395.698 96.0275 396.149 95.6635 396.513C95.2995 396.877 94.8575 397.059 94.3375 397.059ZM95.7935 416.091C95.7935 417.495 95.4382 418.509 94.7275 419.133C94.0342 419.774 93.0202 420.095 91.6855 420.095H90.1515V417.599H91.1655C91.7722 417.599 92.1969 417.478 92.4395 417.235C92.6995 417.01 92.8295 416.628 92.8295 416.091V398.957H95.7935V416.091ZM112.815 405.769C112.815 406.306 112.78 406.792 112.711 407.225H101.765C101.852 408.369 102.276 409.288 103.039 409.981C103.802 410.674 104.738 411.021 105.847 411.021C107.442 411.021 108.568 410.354 109.227 409.019H112.425C111.992 410.336 111.203 411.42 110.059 412.269C108.932 413.101 107.528 413.517 105.847 413.517C104.478 413.517 103.247 413.214 102.155 412.607C101.08 411.983 100.231 411.116 99.607 410.007C99.0003 408.88 98.697 407.58 98.697 406.107C98.697 404.634 98.9917 403.342 99.581 402.233C100.188 401.106 101.028 400.24 102.103 399.633C103.195 399.026 104.443 398.723 105.847 398.723C107.199 398.723 108.404 399.018 109.461 399.607C110.518 400.196 111.342 401.028 111.931 402.103C112.52 403.16 112.815 404.382 112.815 405.769ZM109.721 404.833C109.704 403.741 109.314 402.866 108.551 402.207C107.788 401.548 106.844 401.219 105.717 401.219C104.694 401.219 103.819 401.548 103.091 402.207C102.363 402.848 101.93 403.724 101.791 404.833H109.721ZM114.744 406.107C114.744 404.634 115.039 403.342 115.628 402.233C116.235 401.106 117.067 400.24 118.124 399.633C119.181 399.026 120.395 398.723 121.764 398.723C123.497 398.723 124.927 399.139 126.054 399.971C127.198 400.786 127.969 401.956 128.368 403.481H125.17C124.91 402.77 124.494 402.216 123.922 401.817C123.35 401.418 122.631 401.219 121.764 401.219C120.551 401.219 119.58 401.652 118.852 402.519C118.141 403.368 117.786 404.564 117.786 406.107C117.786 407.65 118.141 408.854 118.852 409.721C119.58 410.588 120.551 411.021 121.764 411.021C123.48 411.021 124.615 410.267 125.17 408.759H128.368C127.952 410.215 127.172 411.376 126.028 412.243C124.884 413.092 123.463 413.517 121.764 413.517C120.395 413.517 119.181 413.214 118.124 412.607C117.067 411.983 116.235 411.116 115.628 410.007C115.039 408.88 114.744 407.58 114.744 406.107ZM134.78 401.375V409.305C134.78 409.842 134.901 410.232 135.144 410.475C135.404 410.7 135.837 410.813 136.444 410.813H138.264V413.283H135.924C134.589 413.283 133.566 412.971 132.856 412.347C132.145 411.723 131.79 410.709 131.79 409.305V401.375H130.1V398.957H131.79V395.395H134.78V398.957H138.264V401.375H134.78ZM166.781 395.213V413.283H163.817V400.907L158.305 413.283H156.251L150.713 400.907V413.283H147.749V395.213H150.947L157.291 409.383L163.609 395.213H166.781ZM169.689 406.055C169.689 404.616 169.984 403.342 170.573 402.233C171.18 401.124 171.995 400.266 173.017 399.659C174.057 399.035 175.201 398.723 176.449 398.723C177.576 398.723 178.555 398.948 179.387 399.399C180.237 399.832 180.913 400.378 181.415 401.037V398.957H184.405V413.283H181.415V411.151C180.913 411.827 180.228 412.39 179.361 412.841C178.495 413.292 177.507 413.517 176.397 413.517C175.167 413.517 174.04 413.205 173.017 412.581C171.995 411.94 171.18 411.056 170.573 409.929C169.984 408.785 169.689 407.494 169.689 406.055ZM181.415 406.107C181.415 405.119 181.207 404.261 180.791 403.533C180.393 402.805 179.864 402.25 179.205 401.869C178.547 401.488 177.836 401.297 177.073 401.297C176.311 401.297 175.6 401.488 174.941 401.869C174.283 402.233 173.745 402.779 173.329 403.507C172.931 404.218 172.731 405.067 172.731 406.055C172.731 407.043 172.931 407.91 173.329 408.655C173.745 409.4 174.283 409.972 174.941 410.371C175.617 410.752 176.328 410.943 177.073 410.943C177.836 410.943 178.547 410.752 179.205 410.371C179.864 409.99 180.393 409.435 180.791 408.707C181.207 407.962 181.415 407.095 181.415 406.107ZM195.526 398.723C196.653 398.723 197.658 398.957 198.542 399.425C199.444 399.893 200.146 400.586 200.648 401.505C201.151 402.424 201.402 403.533 201.402 404.833V413.283H198.464V405.275C198.464 403.992 198.144 403.013 197.502 402.337C196.861 401.644 195.986 401.297 194.876 401.297C193.767 401.297 192.883 401.644 192.224 402.337C191.583 403.013 191.262 403.992 191.262 405.275V413.283H188.298V398.957H191.262V400.595C191.748 400.006 192.363 399.546 193.108 399.217C193.871 398.888 194.677 398.723 195.526 398.723ZM204.195 406.055C204.195 404.616 204.49 403.342 205.079 402.233C205.686 401.124 206.5 400.266 207.523 399.659C208.563 399.035 209.707 398.723 210.955 398.723C212.082 398.723 213.061 398.948 213.893 399.399C214.742 399.832 215.418 400.378 215.921 401.037V398.957H218.911V413.283H215.921V411.151C215.418 411.827 214.734 412.39 213.867 412.841C213 413.292 212.012 413.517 210.903 413.517C209.672 413.517 208.546 413.205 207.523 412.581C206.5 411.94 205.686 411.056 205.079 409.929C204.49 408.785 204.195 407.494 204.195 406.055ZM215.921 406.107C215.921 405.119 215.713 404.261 215.297 403.533C214.898 402.805 214.37 402.25 213.711 401.869C213.052 401.488 212.342 401.297 211.579 401.297C210.816 401.297 210.106 401.488 209.447 401.869C208.788 402.233 208.251 402.779 207.835 403.507C207.436 404.218 207.237 405.067 207.237 406.055C207.237 407.043 207.436 407.91 207.835 408.655C208.251 409.4 208.788 409.972 209.447 410.371C210.123 410.752 210.834 410.943 211.579 410.943C212.342 410.943 213.052 410.752 213.711 410.371C214.37 409.99 214.898 409.435 215.297 408.707C215.713 407.962 215.921 407.095 215.921 406.107ZM228.576 398.723C229.685 398.723 230.665 398.948 231.514 399.399C232.381 399.832 233.057 400.378 233.542 401.037V398.957H236.532V413.517C236.532 414.834 236.255 416.004 235.7 417.027C235.145 418.067 234.339 418.882 233.282 419.471C232.242 420.06 230.994 420.355 229.538 420.355C227.597 420.355 225.985 419.896 224.702 418.977C223.419 418.076 222.691 416.845 222.518 415.285H225.456C225.681 416.03 226.158 416.628 226.886 417.079C227.631 417.547 228.515 417.781 229.538 417.781C230.734 417.781 231.696 417.417 232.424 416.689C233.169 415.961 233.542 414.904 233.542 413.517V411.125C233.039 411.801 232.355 412.373 231.488 412.841C230.639 413.292 229.668 413.517 228.576 413.517C227.328 413.517 226.184 413.205 225.144 412.581C224.121 411.94 223.307 411.056 222.7 409.929C222.111 408.785 221.816 407.494 221.816 406.055C221.816 404.616 222.111 403.342 222.7 402.233C223.307 401.124 224.121 400.266 225.144 399.659C226.184 399.035 227.328 398.723 228.576 398.723ZM233.542 406.107C233.542 405.119 233.334 404.261 232.918 403.533C232.519 402.805 231.991 402.25 231.332 401.869C230.673 401.488 229.963 401.297 229.2 401.297C228.437 401.297 227.727 401.488 227.068 401.869C226.409 402.233 225.872 402.779 225.456 403.507C225.057 404.218 224.858 405.067 224.858 406.055C224.858 407.043 225.057 407.91 225.456 408.655C225.872 409.4 226.409 409.972 227.068 410.371C227.744 410.752 228.455 410.943 229.2 410.943C229.963 410.943 230.673 410.752 231.332 410.371C231.991 409.99 232.519 409.435 232.918 408.707C233.334 407.962 233.542 407.095 233.542 406.107ZM253.555 405.769C253.555 406.306 253.521 406.792 253.451 407.225H242.505C242.592 408.369 243.017 409.288 243.779 409.981C244.542 410.674 245.478 411.021 246.587 411.021C248.182 411.021 249.309 410.354 249.967 409.019H253.165C252.732 410.336 251.943 411.42 250.799 412.269C249.673 413.101 248.269 413.517 246.587 413.517C245.218 413.517 243.987 413.214 242.895 412.607C241.821 411.983 240.971 411.116 240.347 410.007C239.741 408.88 239.437 407.58 239.437 406.107C239.437 404.634 239.732 403.342 240.321 402.233C240.928 401.106 241.769 400.24 242.843 399.633C243.935 399.026 245.183 398.723 246.587 398.723C247.939 398.723 249.144 399.018 250.201 399.607C251.259 400.196 252.082 401.028 252.671 402.103C253.261 403.16 253.555 404.382 253.555 405.769ZM250.461 404.833C250.444 403.741 250.054 402.866 249.291 402.207C248.529 401.548 247.584 401.219 246.457 401.219C245.435 401.219 244.559 401.548 243.831 402.207C243.103 402.848 242.67 403.724 242.531 404.833H250.461ZM273.814 398.723C274.941 398.723 275.946 398.957 276.83 399.425C277.731 399.893 278.433 400.586 278.936 401.505C279.456 402.424 279.716 403.533 279.716 404.833V413.283H276.778V405.275C276.778 403.992 276.457 403.013 275.816 402.337C275.175 401.644 274.299 401.297 273.19 401.297C272.081 401.297 271.197 401.644 270.538 402.337C269.897 403.013 269.576 403.992 269.576 405.275V413.283H266.638V405.275C266.638 403.992 266.317 403.013 265.676 402.337C265.035 401.644 264.159 401.297 263.05 401.297C261.941 401.297 261.057 401.644 260.398 402.337C259.757 403.013 259.436 403.992 259.436 405.275V413.283H256.472V398.957H259.436V400.595C259.921 400.006 260.537 399.546 261.282 399.217C262.027 398.888 262.825 398.723 263.674 398.723C264.818 398.723 265.841 398.966 266.742 399.451C267.643 399.936 268.337 400.638 268.822 401.557C269.255 400.69 269.931 400.006 270.85 399.503C271.769 398.983 272.757 398.723 273.814 398.723ZM296.618 405.769C296.618 406.306 296.583 406.792 296.514 407.225H285.568C285.654 408.369 286.079 409.288 286.842 409.981C287.604 410.674 288.54 411.021 289.65 411.021C291.244 411.021 292.371 410.354 293.03 409.019H296.228C295.794 410.336 295.006 411.42 293.862 412.269C292.735 413.101 291.331 413.517 289.65 413.517C288.28 413.517 287.05 413.214 285.958 412.607C284.883 411.983 284.034 411.116 283.41 410.007C282.803 408.88 282.5 407.58 282.5 406.107C282.5 404.634 282.794 403.342 283.384 402.233C283.99 401.106 284.831 400.24 285.906 399.633C286.998 399.026 288.246 398.723 289.65 398.723C291.002 398.723 292.206 399.018 293.264 399.607C294.321 400.196 295.144 401.028 295.734 402.103C296.323 403.16 296.618 404.382 296.618 405.769ZM293.524 404.833C293.506 403.741 293.116 402.866 292.354 402.207C291.591 401.548 290.646 401.219 289.52 401.219C288.497 401.219 287.622 401.548 286.894 402.207C286.166 402.848 285.732 403.724 285.594 404.833H293.524ZM306.763 398.723C307.889 398.723 308.895 398.957 309.779 399.425C310.68 399.893 311.382 400.586 311.885 401.505C312.387 402.424 312.639 403.533 312.639 404.833V413.283H309.701V405.275C309.701 403.992 309.38 403.013 308.739 402.337C308.097 401.644 307.222 401.297 306.113 401.297C305.003 401.297 304.119 401.644 303.461 402.337C302.819 403.013 302.499 403.992 302.499 405.275V413.283H299.535V398.957H302.499V400.595C302.984 400.006 303.599 399.546 304.345 399.217C305.107 398.888 305.913 398.723 306.763 398.723ZM319.877 401.375V409.305C319.877 409.842 319.999 410.232 320.241 410.475C320.501 410.7 320.935 410.813 321.541 410.813H323.361V413.283H321.021C319.687 413.283 318.664 412.971 317.953 412.347C317.243 411.723 316.887 410.709 316.887 409.305V401.375H315.197V398.957H316.887V395.395H319.877V398.957H323.361V401.375H319.877Z" fill="#595959"/>
<path d="M134.006 358.894C134.006 356.697 134.496 354.734 135.478 353.006C136.48 351.257 137.835 349.902 139.542 348.942C141.27 347.961 143.2 347.47 145.334 347.47C147.83 347.47 150.016 348.11 151.894 349.39C153.771 350.67 155.083 352.441 155.83 354.702H150.678C150.166 353.636 149.44 352.836 148.502 352.302C147.584 351.769 146.518 351.502 145.302 351.502C144 351.502 142.838 351.812 141.814 352.43C140.811 353.028 140.022 353.881 139.446 354.99C138.891 356.1 138.614 357.401 138.614 358.894C138.614 360.366 138.891 361.668 139.446 362.798C140.022 363.908 140.811 364.772 141.814 365.39C142.838 365.988 144 366.286 145.302 366.286C146.518 366.286 147.584 366.02 148.502 365.486C149.44 364.932 150.166 364.121 150.678 363.054H155.83C155.083 365.337 153.771 367.118 151.894 368.398C150.038 369.657 147.851 370.286 145.334 370.286C143.2 370.286 141.27 369.806 139.542 368.846C137.835 367.865 136.48 366.51 135.478 364.782C134.496 363.054 134.006 361.092 134.006 358.894ZM158.504 361.166C158.504 359.374 158.856 357.785 159.56 356.398C160.286 355.012 161.256 353.945 162.472 353.198C163.71 352.452 165.086 352.078 166.6 352.078C167.923 352.078 169.075 352.345 170.056 352.878C171.059 353.412 171.859 354.084 172.456 354.894V352.366H176.968V370.094H172.456V367.502C171.88 368.334 171.08 369.028 170.056 369.582C169.054 370.116 167.891 370.382 166.568 370.382C165.075 370.382 163.71 369.998 162.472 369.23C161.256 368.462 160.286 367.385 159.56 365.998C158.856 364.59 158.504 362.98 158.504 361.166ZM172.456 361.23C172.456 360.142 172.243 359.214 171.816 358.446C171.39 357.657 170.814 357.06 170.088 356.654C169.363 356.228 168.584 356.014 167.752 356.014C166.92 356.014 166.152 356.217 165.448 356.622C164.744 357.028 164.168 357.625 163.72 358.414C163.294 359.182 163.08 360.1 163.08 361.166C163.08 362.233 163.294 363.172 163.72 363.982C164.168 364.772 164.744 365.38 165.448 365.806C166.174 366.233 166.942 366.446 167.752 366.446C168.584 366.446 169.363 366.244 170.088 365.838C170.814 365.412 171.39 364.814 171.816 364.046C172.243 363.257 172.456 362.318 172.456 361.23ZM191.168 352.11C193.28 352.11 194.986 352.782 196.288 354.126C197.589 355.449 198.24 357.305 198.24 359.694V370.094H193.76V360.302C193.76 358.894 193.408 357.817 192.704 357.07C192 356.302 191.04 355.918 189.824 355.918C188.586 355.918 187.605 356.302 186.88 357.07C186.176 357.817 185.824 358.894 185.824 360.302V370.094H181.344V352.366H185.824V354.574C186.421 353.806 187.178 353.209 188.096 352.782C189.034 352.334 190.058 352.11 191.168 352.11ZM209.892 365.966L214.372 352.366H219.14L212.58 370.094H207.14L200.612 352.366H205.412L209.892 365.966ZM220.504 361.166C220.504 359.374 220.856 357.785 221.56 356.398C222.286 355.012 223.256 353.945 224.472 353.198C225.71 352.452 227.086 352.078 228.6 352.078C229.923 352.078 231.075 352.345 232.056 352.878C233.059 353.412 233.859 354.084 234.456 354.894V352.366H238.968V370.094H234.456V367.502C233.88 368.334 233.08 369.028 232.056 369.582C231.054 370.116 229.891 370.382 228.568 370.382C227.075 370.382 225.71 369.998 224.472 369.23C223.256 368.462 222.286 367.385 221.56 365.998C220.856 364.59 220.504 362.98 220.504 361.166ZM234.456 361.23C234.456 360.142 234.243 359.214 233.816 358.446C233.39 357.657 232.814 357.06 232.088 356.654C231.363 356.228 230.584 356.014 229.752 356.014C228.92 356.014 228.152 356.217 227.448 356.622C226.744 357.028 226.168 357.625 225.72 358.414C225.294 359.182 225.08 360.1 225.08 361.166C225.08 362.233 225.294 363.172 225.72 363.982C226.168 364.772 226.744 365.38 227.448 365.806C228.174 366.233 228.942 366.446 229.752 366.446C230.584 366.446 231.363 366.244 232.088 365.838C232.814 365.412 233.39 364.814 233.816 364.046C234.243 363.257 234.456 362.318 234.456 361.23Z" fill="#19154E"/>
<rect x="21.5222" y="25.6185" width="330.549" height="189.58" rx="24" fill="#24BECA"/>
<g clip-path="url(#clip0_10_510)">
<rect width="113.424" height="113.424" transform="translate(130.09 62.8865)" fill="#24BECA"/>
<path d="M186.802 176.31C218.123 176.31 243.514 150.919 243.514 119.598C243.514 88.2773 218.123 62.8865 186.802 62.8865C155.481 62.8865 130.09 88.2773 130.09 119.598C130.09 150.919 155.481 176.31 186.802 176.31Z" fill="#24BECA"/>
<path d="M210.905 139.27C207.892 143.346 203.993 147.6 198.853 150.79C193.891 153.98 188.22 156.461 181.485 156.461C175.283 156.461 170.143 153.271 167.307 150.613C163.054 146.537 160.75 140.688 160.041 135.194C157.915 118.181 168.371 95.6731 184.498 85.9257C188.22 83.6218 192.296 82.5585 196.195 82.5585C203.993 82.5585 209.841 88.0524 210.55 94.787C211.259 100.813 208.955 105.952 202.221 109.319C198.853 111.092 197.081 110.914 196.55 110.206C196.195 109.674 196.372 108.788 197.081 108.256C203.284 103.117 203.461 98.8631 202.752 92.8375C202.221 88.9386 199.74 86.4574 196.904 86.4574C184.675 86.4574 166.953 113.927 169.434 133.776C170.32 141.574 175.105 150.613 185.03 150.613C188.22 150.613 191.764 149.727 194.777 148.132C201.689 144.587 204.702 142.106 208.778 136.435C209.31 135.726 209.841 134.84 210.373 134.131C210.727 133.422 211.436 133.245 211.968 133.245C212.5 133.245 213.209 133.776 213.209 134.662C213.209 135.194 213.031 136.258 212.322 137.144C212.145 137.498 211.614 138.561 210.905 139.27Z" fill="white"/>
</g>
<defs>
<linearGradient id="paint0_linear_10_510" x1="187.018" y1="0" x2="187.018" y2="1518.17" gradientUnits="userSpaceOnUse">
<stop stop-color="white"/>
<stop offset="1" stop-color="#24BECA"/>
</linearGradient>
<clipPath id="clip0_10_510">
<rect width="113.424" height="113.424" fill="white" transform="translate(130.09 62.8865)"/>
</clipPath>
</defs>
</svg>
