<svg width="375" height="544" viewBox="0 0 375 544" fill="none" xmlns="http://www.w3.org/2000/svg">
<rect width="374.035" height="543.12" rx="12" fill="url(#paint0_linear_10_521)"/>
<path d="M63.4502 400.595C63.4502 401.514 63.2335 402.38 62.8002 403.195C62.3668 404.01 61.6735 404.677 60.7202 405.197C59.7668 405.7 58.5448 405.951 57.0542 405.951H53.7782V413.283H50.8142V395.213H57.0542C58.4408 395.213 59.6108 395.456 60.5642 395.941C61.5348 396.409 62.2542 397.05 62.7222 397.865C63.2075 398.68 63.4502 399.59 63.4502 400.595ZM57.0542 403.533C58.1808 403.533 59.0215 403.282 59.5762 402.779C60.1308 402.259 60.4082 401.531 60.4082 400.595C60.4082 398.619 59.2902 397.631 57.0542 397.631H53.7782V403.533H57.0542ZM69.2411 401.037C69.6744 400.309 70.2464 399.746 70.9571 399.347C71.6851 398.931 72.5431 398.723 73.5311 398.723V401.791H72.7771C71.6157 401.791 70.7317 402.086 70.1251 402.675C69.5357 403.264 69.2411 404.287 69.2411 405.743V413.283H66.2771V398.957H69.2411V401.037ZM82.4696 413.517C81.1176 413.517 79.8956 413.214 78.8036 412.607C77.7116 411.983 76.8536 411.116 76.2296 410.007C75.6056 408.88 75.2936 407.58 75.2936 406.107C75.2936 404.651 75.6142 403.36 76.2556 402.233C76.8969 401.106 77.7722 400.24 78.8816 399.633C79.9909 399.026 81.2302 398.723 82.5996 398.723C83.9689 398.723 85.2082 399.026 86.3176 399.633C87.4269 400.24 88.3022 401.106 88.9436 402.233C89.5849 403.36 89.9056 404.651 89.9056 406.107C89.9056 407.563 89.5762 408.854 88.9176 409.981C88.2589 411.108 87.3576 411.983 86.2136 412.607C85.0869 413.214 83.8389 413.517 82.4696 413.517ZM82.4696 410.943C83.2322 410.943 83.9429 410.761 84.6016 410.397C85.2776 410.033 85.8236 409.487 86.2396 408.759C86.6556 408.031 86.8636 407.147 86.8636 406.107C86.8636 405.067 86.6642 404.192 86.2656 403.481C85.8669 402.753 85.3382 402.207 84.6796 401.843C84.0209 401.479 83.3102 401.297 82.5476 401.297C81.7849 401.297 81.0742 401.479 80.4156 401.843C79.7742 402.207 79.2629 402.753 78.8816 403.481C78.5002 404.192 78.3096 405.067 78.3096 406.107C78.3096 407.65 78.6996 408.846 79.4796 409.695C80.2769 410.527 81.2736 410.943 82.4696 410.943ZM94.3437 397.059C93.8063 397.059 93.3557 396.877 92.9917 396.513C92.6277 396.149 92.4457 395.698 92.4457 395.161C92.4457 394.624 92.6277 394.173 92.9917 393.809C93.3557 393.445 93.8063 393.263 94.3437 393.263C94.8637 393.263 95.3057 393.445 95.6697 393.809C96.0337 394.173 96.2157 394.624 96.2157 395.161C96.2157 395.698 96.0337 396.149 95.6697 396.513C95.3057 396.877 94.8637 397.059 94.3437 397.059ZM95.7997 416.091C95.7997 417.495 95.4443 418.509 94.7337 419.133C94.0403 419.774 93.0263 420.095 91.6917 420.095H90.1577V417.599H91.1717C91.7783 417.599 92.203 417.478 92.4457 417.235C92.7057 417.01 92.8357 416.628 92.8357 416.091V398.957H95.7997V416.091ZM112.821 405.769C112.821 406.306 112.786 406.792 112.717 407.225H101.771C101.858 408.369 102.282 409.288 103.045 409.981C103.808 410.674 104.744 411.021 105.853 411.021C107.448 411.021 108.574 410.354 109.233 409.019H112.431C111.998 410.336 111.209 411.42 110.065 412.269C108.938 413.101 107.534 413.517 105.853 413.517C104.484 413.517 103.253 413.214 102.161 412.607C101.086 411.983 100.237 411.116 99.6131 410.007C99.0065 408.88 98.7031 407.58 98.7031 406.107C98.7031 404.634 98.9978 403.342 99.5871 402.233C100.194 401.106 101.034 400.24 102.109 399.633C103.201 399.026 104.449 398.723 105.853 398.723C107.205 398.723 108.41 399.018 109.467 399.607C110.524 400.196 111.348 401.028 111.937 402.103C112.526 403.16 112.821 404.382 112.821 405.769ZM109.727 404.833C109.71 403.741 109.32 402.866 108.557 402.207C107.794 401.548 106.85 401.219 105.723 401.219C104.7 401.219 103.825 401.548 103.097 402.207C102.369 402.848 101.936 403.724 101.797 404.833H109.727ZM114.75 406.107C114.75 404.634 115.045 403.342 115.634 402.233C116.241 401.106 117.073 400.24 118.13 399.633C119.187 399.026 120.401 398.723 121.77 398.723C123.503 398.723 124.933 399.139 126.06 399.971C127.204 400.786 127.975 401.956 128.374 403.481H125.176C124.916 402.77 124.5 402.216 123.928 401.817C123.356 401.418 122.637 401.219 121.77 401.219C120.557 401.219 119.586 401.652 118.858 402.519C118.147 403.368 117.792 404.564 117.792 406.107C117.792 407.65 118.147 408.854 118.858 409.721C119.586 410.588 120.557 411.021 121.77 411.021C123.486 411.021 124.621 410.267 125.176 408.759H128.374C127.958 410.215 127.178 411.376 126.034 412.243C124.89 413.092 123.469 413.517 121.77 413.517C120.401 413.517 119.187 413.214 118.13 412.607C117.073 411.983 116.241 411.116 115.634 410.007C115.045 408.88 114.75 407.58 114.75 406.107ZM134.786 401.375V409.305C134.786 409.842 134.907 410.232 135.15 410.475C135.41 410.7 135.843 410.813 136.45 410.813H138.27V413.283H135.93C134.595 413.283 133.573 412.971 132.862 412.347C132.151 411.723 131.796 410.709 131.796 409.305V401.375H130.106V398.957H131.796V395.395H134.786V398.957H138.27V401.375H134.786ZM166.788 395.213V413.283H163.824V400.907L158.312 413.283H156.258L150.72 400.907V413.283H147.756V395.213H150.954L157.298 409.383L163.616 395.213H166.788ZM169.695 406.055C169.695 404.616 169.99 403.342 170.579 402.233C171.186 401.124 172.001 400.266 173.023 399.659C174.063 399.035 175.207 398.723 176.455 398.723C177.582 398.723 178.561 398.948 179.393 399.399C180.243 399.832 180.919 400.378 181.421 401.037V398.957H184.411V413.283H181.421V411.151C180.919 411.827 180.234 412.39 179.367 412.841C178.501 413.292 177.513 413.517 176.403 413.517C175.173 413.517 174.046 413.205 173.023 412.581C172.001 411.94 171.186 411.056 170.579 409.929C169.99 408.785 169.695 407.494 169.695 406.055ZM181.421 406.107C181.421 405.119 181.213 404.261 180.797 403.533C180.399 402.805 179.87 402.25 179.211 401.869C178.553 401.488 177.842 401.297 177.079 401.297C176.317 401.297 175.606 401.488 174.947 401.869C174.289 402.233 173.751 402.779 173.335 403.507C172.937 404.218 172.737 405.067 172.737 406.055C172.737 407.043 172.937 407.91 173.335 408.655C173.751 409.4 174.289 409.972 174.947 410.371C175.623 410.752 176.334 410.943 177.079 410.943C177.842 410.943 178.553 410.752 179.211 410.371C179.87 409.99 180.399 409.435 180.797 408.707C181.213 407.962 181.421 407.095 181.421 406.107ZM195.532 398.723C196.659 398.723 197.664 398.957 198.548 399.425C199.45 399.893 200.152 400.586 200.654 401.505C201.157 402.424 201.408 403.533 201.408 404.833V413.283H198.47V405.275C198.47 403.992 198.15 403.013 197.508 402.337C196.867 401.644 195.992 401.297 194.882 401.297C193.773 401.297 192.889 401.644 192.23 402.337C191.589 403.013 191.268 403.992 191.268 405.275V413.283H188.304V398.957H191.268V400.595C191.754 400.006 192.369 399.546 193.114 399.217C193.877 398.888 194.683 398.723 195.532 398.723ZM204.201 406.055C204.201 404.616 204.496 403.342 205.085 402.233C205.692 401.124 206.506 400.266 207.529 399.659C208.569 399.035 209.713 398.723 210.961 398.723C212.088 398.723 213.067 398.948 213.899 399.399C214.749 399.832 215.425 400.378 215.927 401.037V398.957H218.917V413.283H215.927V411.151C215.425 411.827 214.74 412.39 213.873 412.841C213.007 413.292 212.019 413.517 210.909 413.517C209.678 413.517 208.552 413.205 207.529 412.581C206.506 411.94 205.692 411.056 205.085 409.929C204.496 408.785 204.201 407.494 204.201 406.055ZM215.927 406.107C215.927 405.119 215.719 404.261 215.303 403.533C214.904 402.805 214.376 402.25 213.717 401.869C213.058 401.488 212.348 401.297 211.585 401.297C210.822 401.297 210.112 401.488 209.453 401.869C208.794 402.233 208.257 402.779 207.841 403.507C207.442 404.218 207.243 405.067 207.243 406.055C207.243 407.043 207.442 407.91 207.841 408.655C208.257 409.4 208.794 409.972 209.453 410.371C210.129 410.752 210.84 410.943 211.585 410.943C212.348 410.943 213.058 410.752 213.717 410.371C214.376 409.99 214.904 409.435 215.303 408.707C215.719 407.962 215.927 407.095 215.927 406.107ZM228.582 398.723C229.692 398.723 230.671 398.948 231.52 399.399C232.387 399.832 233.063 400.378 233.548 401.037V398.957H236.538V413.517C236.538 414.834 236.261 416.004 235.706 417.027C235.152 418.067 234.346 418.882 233.288 419.471C232.248 420.06 231 420.355 229.544 420.355C227.603 420.355 225.991 419.896 224.708 418.977C223.426 418.076 222.698 416.845 222.524 415.285H225.462C225.688 416.03 226.164 416.628 226.892 417.079C227.638 417.547 228.522 417.781 229.544 417.781C230.74 417.781 231.702 417.417 232.43 416.689C233.176 415.961 233.548 414.904 233.548 413.517V411.125C233.046 411.801 232.361 412.373 231.494 412.841C230.645 413.292 229.674 413.517 228.582 413.517C227.334 413.517 226.19 413.205 225.15 412.581C224.128 411.94 223.313 411.056 222.706 409.929C222.117 408.785 221.822 407.494 221.822 406.055C221.822 404.616 222.117 403.342 222.706 402.233C223.313 401.124 224.128 400.266 225.15 399.659C226.19 399.035 227.334 398.723 228.582 398.723ZM233.548 406.107C233.548 405.119 233.34 404.261 232.924 403.533C232.526 402.805 231.997 402.25 231.338 401.869C230.68 401.488 229.969 401.297 229.206 401.297C228.444 401.297 227.733 401.488 227.074 401.869C226.416 402.233 225.878 402.779 225.462 403.507C225.064 404.218 224.864 405.067 224.864 406.055C224.864 407.043 225.064 407.91 225.462 408.655C225.878 409.4 226.416 409.972 227.074 410.371C227.75 410.752 228.461 410.943 229.206 410.943C229.969 410.943 230.68 410.752 231.338 410.371C231.997 409.99 232.526 409.435 232.924 408.707C233.34 407.962 233.548 407.095 233.548 406.107ZM253.561 405.769C253.561 406.306 253.527 406.792 253.457 407.225H242.511C242.598 408.369 243.023 409.288 243.785 409.981C244.548 410.674 245.484 411.021 246.593 411.021C248.188 411.021 249.315 410.354 249.973 409.019H253.171C252.738 410.336 251.949 411.42 250.805 412.269C249.679 413.101 248.275 413.517 246.593 413.517C245.224 413.517 243.993 413.214 242.901 412.607C241.827 411.983 240.977 411.116 240.353 410.007C239.747 408.88 239.443 407.58 239.443 406.107C239.443 404.634 239.738 403.342 240.327 402.233C240.934 401.106 241.775 400.24 242.849 399.633C243.941 399.026 245.189 398.723 246.593 398.723C247.945 398.723 249.15 399.018 250.207 399.607C251.265 400.196 252.088 401.028 252.677 402.103C253.267 403.16 253.561 404.382 253.561 405.769ZM250.467 404.833C250.45 403.741 250.06 402.866 249.297 402.207C248.535 401.548 247.59 401.219 246.463 401.219C245.441 401.219 244.565 401.548 243.837 402.207C243.109 402.848 242.676 403.724 242.537 404.833H250.467ZM273.82 398.723C274.947 398.723 275.952 398.957 276.836 399.425C277.738 399.893 278.44 400.586 278.942 401.505C279.462 402.424 279.722 403.533 279.722 404.833V413.283H276.784V405.275C276.784 403.992 276.464 403.013 275.822 402.337C275.181 401.644 274.306 401.297 273.196 401.297C272.087 401.297 271.203 401.644 270.544 402.337C269.903 403.013 269.582 403.992 269.582 405.275V413.283H266.644V405.275C266.644 403.992 266.324 403.013 265.682 402.337C265.041 401.644 264.166 401.297 263.056 401.297C261.947 401.297 261.063 401.644 260.404 402.337C259.763 403.013 259.442 403.992 259.442 405.275V413.283H256.478V398.957H259.442V400.595C259.928 400.006 260.543 399.546 261.288 399.217C262.034 398.888 262.831 398.723 263.68 398.723C264.824 398.723 265.847 398.966 266.748 399.451C267.65 399.936 268.343 400.638 268.828 401.557C269.262 400.69 269.938 400.006 270.856 399.503C271.775 398.983 272.763 398.723 273.82 398.723ZM296.624 405.769C296.624 406.306 296.589 406.792 296.52 407.225H285.574C285.661 408.369 286.085 409.288 286.848 409.981C287.611 410.674 288.547 411.021 289.656 411.021C291.251 411.021 292.377 410.354 293.036 409.019H296.234C295.801 410.336 295.012 411.42 293.868 412.269C292.741 413.101 291.337 413.517 289.656 413.517C288.287 413.517 287.056 413.214 285.964 412.607C284.889 411.983 284.04 411.116 283.416 410.007C282.809 408.88 282.506 407.58 282.506 406.107C282.506 404.634 282.801 403.342 283.39 402.233C283.997 401.106 284.837 400.24 285.912 399.633C287.004 399.026 288.252 398.723 289.656 398.723C291.008 398.723 292.213 399.018 293.27 399.607C294.327 400.196 295.151 401.028 295.74 402.103C296.329 403.16 296.624 404.382 296.624 405.769ZM293.53 404.833C293.513 403.741 293.123 402.866 292.36 402.207C291.597 401.548 290.653 401.219 289.526 401.219C288.503 401.219 287.628 401.548 286.9 402.207C286.172 402.848 285.739 403.724 285.6 404.833H293.53ZM306.769 398.723C307.895 398.723 308.901 398.957 309.785 399.425C310.686 399.893 311.388 400.586 311.891 401.505C312.393 402.424 312.645 403.533 312.645 404.833V413.283H309.707V405.275C309.707 403.992 309.386 403.013 308.745 402.337C308.103 401.644 307.228 401.297 306.119 401.297C305.009 401.297 304.125 401.644 303.467 402.337C302.825 403.013 302.505 403.992 302.505 405.275V413.283H299.541V398.957H302.505V400.595C302.99 400.006 303.605 399.546 304.351 399.217C305.113 398.888 305.919 398.723 306.769 398.723ZM319.883 401.375V409.305C319.883 409.842 320.005 410.232 320.247 410.475C320.507 410.7 320.941 410.813 321.547 410.813H323.367V413.283H321.027C319.693 413.283 318.67 412.971 317.959 412.347C317.249 411.723 316.893 410.709 316.893 409.305V401.375H315.203V398.957H316.893V395.395H319.883V398.957H323.367V401.375H319.883Z" fill="#595959"/>
<path d="M154.933 370.094H150.453L140.309 354.766V370.094H135.829V347.726H140.309L150.453 363.086V347.726H154.933V370.094ZM167.232 370.382C165.526 370.382 163.99 370.009 162.624 369.262C161.259 368.494 160.182 367.417 159.392 366.03C158.624 364.644 158.24 363.044 158.24 361.23C158.24 359.417 158.635 357.817 159.424 356.43C160.235 355.044 161.334 353.977 162.72 353.23C164.107 352.462 165.654 352.078 167.36 352.078C169.067 352.078 170.614 352.462 172 353.23C173.387 353.977 174.475 355.044 175.264 356.43C176.075 357.817 176.48 359.417 176.48 361.23C176.48 363.044 176.064 364.644 175.232 366.03C174.422 367.417 173.312 368.494 171.904 369.262C170.518 370.009 168.96 370.382 167.232 370.382ZM167.232 366.478C168.043 366.478 168.8 366.286 169.504 365.902C170.23 365.497 170.806 364.9 171.232 364.11C171.659 363.321 171.872 362.361 171.872 361.23C171.872 359.545 171.424 358.254 170.528 357.358C169.654 356.441 168.576 355.982 167.296 355.982C166.016 355.982 164.939 356.441 164.064 357.358C163.211 358.254 162.784 359.545 162.784 361.23C162.784 362.916 163.2 364.217 164.032 365.134C164.886 366.03 165.952 366.478 167.232 366.478ZM184.983 356.046V364.622C184.983 365.22 185.121 365.657 185.399 365.934C185.697 366.19 186.188 366.318 186.871 366.318H188.951V370.094H186.135C182.359 370.094 180.471 368.26 180.471 364.59V356.046H178.359V352.366H180.471V347.982H184.983V352.366H188.951V356.046H184.983ZM194.445 350.254C193.655 350.254 192.994 350.009 192.461 349.518C191.949 349.006 191.693 348.377 191.693 347.63C191.693 346.884 191.949 346.265 192.461 345.774C192.994 345.262 193.655 345.006 194.445 345.006C195.234 345.006 195.885 345.262 196.397 345.774C196.93 346.265 197.197 346.884 197.197 347.63C197.197 348.377 196.93 349.006 196.397 349.518C195.885 350.009 195.234 350.254 194.445 350.254ZM196.653 352.366V370.094H192.173V352.366H196.653ZM208.951 370.382C207.244 370.382 205.708 370.009 204.343 369.262C202.978 368.494 201.9 367.417 201.111 366.03C200.343 364.644 199.959 363.044 199.959 361.23C199.959 359.417 200.354 357.817 201.143 356.43C201.954 355.044 203.052 353.977 204.439 353.23C205.826 352.462 207.372 352.078 209.079 352.078C210.786 352.078 212.332 352.462 213.719 353.23C215.106 353.977 216.194 355.044 216.983 356.43C217.794 357.817 218.199 359.417 218.199 361.23C218.199 363.044 217.783 364.644 216.951 366.03C216.14 367.417 215.031 368.494 213.623 369.262C212.236 370.009 210.679 370.382 208.951 370.382ZM208.951 366.478C209.762 366.478 210.519 366.286 211.223 365.902C211.948 365.497 212.524 364.9 212.951 364.11C213.378 363.321 213.591 362.361 213.591 361.23C213.591 359.545 213.143 358.254 212.247 357.358C211.372 356.441 210.295 355.982 209.015 355.982C207.735 355.982 206.658 356.441 205.783 357.358C204.93 358.254 204.503 359.545 204.503 361.23C204.503 362.916 204.919 364.217 205.751 365.134C206.604 366.03 207.671 366.478 208.951 366.478ZM231.309 352.11C233.421 352.11 235.128 352.782 236.429 354.126C237.731 355.449 238.381 357.305 238.381 359.694V370.094H233.901V360.302C233.901 358.894 233.549 357.817 232.845 357.07C232.141 356.302 231.181 355.918 229.965 355.918C228.728 355.918 227.747 356.302 227.021 357.07C226.317 357.817 225.965 358.894 225.965 360.302V370.094H221.485V352.366H225.965V354.574C226.563 353.806 227.32 353.209 228.237 352.782C229.176 352.334 230.2 352.11 231.309 352.11Z" fill="#19154E"/>
<rect x="21.5273" y="25.6185" width="330.549" height="189.58" rx="24" fill="black"/>
<path d="M241.818 117.103L185.983 61.2675L130.148 117.103C129.273 117.981 128.781 119.171 128.781 120.412C128.781 121.652 129.273 122.842 130.148 123.721L185.983 179.556L241.818 123.721C242.694 122.842 243.185 121.652 243.185 120.412C243.185 119.171 242.694 117.981 241.818 117.103ZM185.983 137.893L168.496 120.406L185.983 102.919L203.471 120.406L185.983 137.893Z" fill="#2684FF"/>
<path d="M185.984 103.034C180.483 97.5345 177.383 90.082 177.359 82.304C177.335 74.526 180.39 67.0547 185.857 61.5216L147.474 99.6613L168.3 120.487L185.984 103.034Z" fill="url(#paint1_linear_10_521)"/>
<path d="M203.519 120.359L185.986 137.893C188.722 140.627 190.892 143.874 192.373 147.447C193.854 151.021 194.616 154.851 194.616 158.719C194.616 162.587 193.854 166.417 192.373 169.99C190.892 173.563 188.722 176.81 185.986 179.544L224.333 141.197L203.519 120.359Z" fill="url(#paint2_linear_10_521)"/>
<defs>
<linearGradient id="paint0_linear_10_521" x1="187.018" y1="0" x2="187.018" y2="1518.17" gradientUnits="userSpaceOnUse">
<stop stop-color="white"/>
<stop offset="1"/>
</linearGradient>
<linearGradient id="paint1_linear_10_521" x1="182.865" y1="85.2347" x2="158.447" y2="109.652" gradientUnits="userSpaceOnUse">
<stop offset="0.18" stop-color="#0052CC"/>
<stop offset="1" stop-color="#2684FF"/>
</linearGradient>
<linearGradient id="paint2_linear_10_521" x1="189.324" y1="155.381" x2="213.695" y2="131.009" gradientUnits="userSpaceOnUse">
<stop offset="0.18" stop-color="#0052CC"/>
<stop offset="1" stop-color="#2684FF"/>
</linearGradient>
</defs>
</svg>
