<svg width="163" height="38" viewBox="0 0 163 38" fill="none" xmlns="http://www.w3.org/2000/svg">
<path d="M32.9606 12.8185H36.4193V15.404H32.9606V27.8858H30.2705V15.404H27.8761V12.8185H30.2705C30.2705 9.66838 31.3052 6.72626 35.4142 6.72626C35.828 6.72626 36.0645 6.72626 36.4193 6.78569V9.01458C36.2419 9.01458 35.9167 8.98486 35.7098 8.98486C33.2858 8.98486 32.9902 10.5599 32.9606 12.8185Z" fill="white"/>
<path d="M53.7717 20.367C53.7717 24.7059 50.4313 28.2721 45.9084 28.2721C41.3856 28.2721 38.0452 24.7059 38.0452 20.367C38.0452 16.0281 41.3856 12.4619 45.9084 12.4619C50.4313 12.4619 53.7717 16.0281 53.7717 20.367ZM51.0225 20.367C51.0225 17.2763 48.8645 15.0177 45.9084 15.0177C42.9523 15.0177 40.8239 17.2763 40.8239 20.367C40.8239 23.4577 42.9523 25.6866 45.9084 25.6866C48.8645 25.6866 51.0225 23.428 51.0225 20.367Z" fill="white"/>
<path d="M64.4137 12.4619V15.5229C59.9795 14.988 59.4178 18.3759 59.4178 21.1397V27.8858H56.7278V12.8185H59.4178V15.4338C60.4229 13.4129 62.4922 12.4619 64.4137 12.4619Z" fill="white"/>
<path d="M80.6723 21.526H68.7591C69.173 23.9927 71.0058 25.6866 73.9323 25.6866C75.5582 25.6866 77.0363 25.0625 77.864 23.9927L80.0811 25.4192C78.7508 27.232 76.5633 28.2721 73.9323 28.2721C68.9661 28.2721 65.8917 24.7059 65.8917 20.367C65.8917 16.0281 69.0843 12.4619 73.4889 12.4619C77.5684 12.4619 81.3818 15.9093 80.6723 21.526ZM77.9527 19.208C77.5979 16.6522 76.0312 15.0177 73.4889 15.0177C70.9467 15.0177 69.173 16.7117 68.7591 19.208H77.9527Z" fill="white"/>
<path d="M94.3 23.3686C94.3 26.0432 92.4081 28.2721 88.4173 28.2721C85.4612 28.2721 82.9781 27.0834 82.3868 24.8248L85.0178 23.9332C85.2543 24.7059 86.0524 25.7758 88.4764 25.7758C90.4275 25.7758 91.5212 24.9734 91.5212 23.6361C91.5212 21.8827 89.0085 21.8827 86.9393 21.4072C84.1309 20.7831 82.9189 19.416 82.9189 17.1871C82.9189 14.4233 85.1951 12.4619 88.4469 12.4619C90.8709 12.4619 93.0288 13.7101 93.5609 15.939L91.0482 16.6225C90.7822 15.7904 89.8954 14.8988 88.2104 14.8988C86.7323 14.8988 85.6386 15.7309 85.6386 16.9791C85.6386 18.6731 87.7078 18.7919 89.4224 19.1486C93.088 19.9212 94.3 21.11 94.3 23.3686Z" fill="white"/>
<path d="M108.43 23.2794L110.736 24.5276C109.376 26.7565 107.011 28.2721 104.085 28.2721C99.5618 28.2721 96.2214 24.7059 96.2214 20.367C96.2214 16.0281 99.5618 12.4619 104.085 12.4619C107.011 12.4619 109.376 13.9776 110.736 16.1767L108.43 17.4546C107.543 15.9687 105.977 15.0177 104.085 15.0177C101.129 15.0177 98.9706 17.2763 98.9706 20.367C98.9706 23.4577 101.129 25.6866 104.085 25.6866C105.977 25.6866 107.543 24.7654 108.43 23.2794Z" fill="white"/>
<path d="M120.935 12.4619V15.5229C116.5 14.988 115.939 18.3759 115.939 21.1397V27.8858H113.249V12.8185H115.939V15.4338C116.944 13.4129 119.013 12.4619 120.935 12.4619Z" fill="white"/>
<path d="M123.713 8.59852C123.713 7.7664 124.393 7.05316 125.25 7.05316C126.108 7.05316 126.788 7.7664 126.788 8.59852C126.788 9.43064 126.108 10.1439 125.25 10.1439C124.393 10.1439 123.713 9.46036 123.713 8.59852ZM123.891 12.8185H126.61V27.8858H123.891V12.8185Z" fill="white"/>
<path d="M146.061 20.367C146.061 24.3196 143.253 28.2721 138.582 28.2721C135.981 28.2721 134.267 27.2023 133.143 25.7758V27.8858H130.453V7.08289H133.143V14.9286C134.267 13.5318 135.981 12.4619 138.582 12.4619C143.253 12.4619 146.061 16.4145 146.061 20.367ZM143.283 20.367C143.283 17.3358 141.42 15.0177 138.316 15.0177C135.035 15.0177 133.143 17.3952 133.143 20.367C133.143 23.3389 135.035 25.6866 138.316 25.6866C141.42 25.6866 143.283 23.3983 143.283 20.367Z" fill="white"/>
<path d="M162.911 21.526H150.998C151.412 23.9927 153.245 25.6866 156.171 25.6866C157.797 25.6866 159.275 25.0625 160.103 23.9927L162.32 25.4192C160.99 27.232 158.802 28.2721 156.171 28.2721C151.205 28.2721 148.131 24.7059 148.131 20.367C148.131 16.0281 151.323 12.4619 155.728 12.4619C159.807 12.4619 163.621 15.9093 162.911 21.526ZM160.192 19.208C159.837 16.6522 158.27 15.0177 155.728 15.0177C153.186 15.0177 151.412 16.7117 150.998 19.208H160.192Z" fill="white"/>
<path d="M0 10.8571L19.599 0V8.90563L0 19.8321V10.8571Z" fill="#8B3DFF"/>
<path d="M7.46911 38V28.7774L19.599 22.2492V13.3931L0 24.3196V33.8592L7.46911 38Z" fill="#8B3DFF"/>
</svg>
